<svg version="1.1" id="Layer_1" xmlns="http://www.w3.org/2000/svg" xmlns:xlink="http://www.w3.org/1999/xlink" x="0px" y="0px"
	 width="100%" viewBox="0 0 512 512" enable-background="new 0 0 512 512" xml:space="preserve">
<path fill="#FCB54C" opacity="1.000000" stroke="none" 
	d="
M225.000000,1.000000 
	C246.020889,1.000000 267.041779,1.000000 288.190399,1.334823 
	C289.322723,2.111747 290.289154,2.785583 291.338135,2.958524 
	C298.405701,4.123724 305.601715,4.714476 312.550201,6.360478 
	C337.218201,12.203981 360.869965,20.724594 382.976532,33.399971 
	C399.287903,42.752514 414.857941,53.207500 428.372803,66.185158 
	C440.013641,77.363243 451.005066,89.364227 461.156738,101.913010 
	C477.373535,121.959160 489.288513,144.615250 498.010498,168.891373 
	C504.331024,186.483459 509.290161,204.419449 511.084442,223.119766 
	C511.149872,223.801514 512.336121,224.375687 513.000000,225.000000 
	C513.000000,246.020889 513.000000,267.041779 512.665161,288.190369 
	C511.912933,288.818848 511.207733,289.274719 511.121490,289.827240 
	C509.974487,297.174500 508.914246,304.535339 507.646973,312.053864 
	C507.225677,312.456512 507.077087,312.743286 507.014954,313.043823 
	C507.014038,313.012329 507.070526,313.040466 506.703369,313.033752 
	C504.901703,313.786926 503.384979,314.424927 502.046356,315.327118 
	C494.749908,320.244568 487.794617,325.755402 480.155090,330.054810 
	C470.366852,335.563446 460.040039,340.114990 450.069885,344.752808 
	C462.230835,328.425354 471.150177,310.870178 476.417480,291.522583 
	C481.703461,272.106720 471.701935,252.840363 452.911804,246.906067 
	C448.409271,245.484085 443.441681,245.192871 438.667542,245.045914 
	C429.572235,244.765976 420.462219,244.964722 411.196594,244.964722 
	C410.989258,241.576126 410.821716,238.838394 410.629456,235.695801 
	C402.887970,235.695801 395.582214,235.692871 388.276489,235.696243 
	C320.833832,235.727493 253.391174,235.759842 185.744171,235.626923 
	C185.376328,235.399399 185.212814,235.336838 184.913864,235.201767 
	C184.455627,235.063263 184.172821,235.138916 183.475891,235.451965 
	C163.025375,235.528168 143.028976,235.508591 123.013168,235.144272 
	C120.655952,229.841324 118.065002,224.984207 116.036201,219.902618 
	C112.474258,210.980957 109.256538,201.921860 106.297089,192.946701 
	C120.968674,197.631592 135.602066,197.817673 150.383850,196.772217 
	C152.377930,196.631180 154.795715,197.469009 156.457977,198.644516 
	C160.480270,201.488998 164.172165,204.800705 168.345200,207.975388 
	C181.846893,198.601379 192.730713,187.143234 200.153275,172.638351 
	C207.081757,159.098999 207.732529,145.358505 201.407318,131.364502 
	C194.507401,116.099037 183.278091,104.487068 170.351257,94.309509 
	C169.618103,93.732292 168.164017,94.070747 166.736313,94.118675 
	C155.138092,103.203995 145.250519,113.410645 137.670776,125.841492 
	C130.561752,122.433403 124.047760,118.150070 116.894836,116.136856 
	C108.890480,113.884010 100.307182,113.688171 91.975784,112.153885 
	C92.613647,101.131020 93.039909,90.533043 93.959755,79.978065 
	C94.634300,72.237900 95.956322,64.554146 97.120880,56.537910 
	C99.023109,54.798302 100.771461,53.336758 102.568848,51.938240 
	C122.702484,36.272629 144.983398,24.557775 168.949951,15.973655 
	C186.533798,9.675629 204.445145,4.720940 223.123047,2.915481 
	C223.804047,2.849654 224.376801,1.663852 225.000000,1.000000 
M256.015320,105.775551 
	C256.675293,112.542747 254.170258,118.435989 251.290527,124.363045 
	C245.808868,135.645370 246.233032,146.956024 252.556870,157.780426 
	C256.103577,163.851227 260.233643,169.581238 264.000031,175.311356 
	C265.951111,169.993530 264.206421,164.608170 262.192291,159.292038 
	C258.088867,148.461334 258.838409,138.300461 265.142548,128.308395 
	C273.661835,114.805313 273.658844,100.926811 265.017944,87.413818 
	C260.280945,80.005898 258.473145,72.147400 260.139954,63.602669 
	C260.835602,60.036484 262.604187,56.680862 263.313873,53.115826 
	C264.152344,48.903900 264.373108,44.569004 264.861633,40.287418 
	C261.112854,44.848000 258.727997,49.627914 255.547409,53.801353 
	C246.190063,66.079620 245.341904,78.918610 251.771973,92.700584 
	C253.579010,96.573723 254.592331,100.817169 256.015320,105.775551 
z"/>
<path fill="#FF956A" opacity="1.000000" stroke="none" 
	d="
M105.894638,192.920319 
	C109.256538,201.921860 112.474258,210.980957 116.036201,219.902618 
	C118.065002,224.984207 120.655952,229.841324 122.547302,235.213257 
	C111.211838,235.626968 100.322823,235.626968 88.101204,235.626968 
	C89.436806,247.620056 90.659691,258.601105 91.904419,269.969391 
	C94.940224,292.661224 102.023422,313.703583 112.521690,333.502716 
	C129.572708,365.659882 152.655029,392.070648 186.021393,408.701538 
	C186.006302,414.077911 186.010239,419.005005 185.548355,423.995422 
	C178.084290,424.115295 171.086044,424.171844 163.614731,424.160400 
	C138.577286,424.092377 114.012932,424.092377 89.519112,424.092377 
	C88.161804,437.091736 99.496384,449.391541 113.678207,449.659088 
	C137.441711,450.107391 161.220215,449.760315 185.459229,449.793976 
	C251.409225,449.840515 316.892395,449.853882 382.375549,449.802155 
	C385.516541,449.799683 388.726837,449.536865 391.785522,448.857849 
	C403.703125,446.212158 412.261871,433.211639 410.163849,424.109039 
	C408.305115,424.109039 406.334259,424.112152 404.363403,424.108551 
	C374.207214,424.053680 344.051025,423.997925 313.909912,423.481995 
	C313.910858,418.101959 313.896729,413.182343 314.189514,408.091675 
	C316.298645,407.041656 318.100830,406.162659 320.266327,405.491486 
	C347.835663,406.730621 373.476227,400.774994 397.670593,388.404236 
	C418.313171,377.849548 435.396942,362.991516 449.945312,345.078979 
	C460.040039,340.114990 470.366852,335.563446 480.155090,330.054810 
	C487.794617,325.755402 494.749908,320.244568 502.046356,315.327118 
	C503.384979,314.424927 504.901703,313.786926 506.672577,313.447510 
	C506.672058,315.615601 506.427582,317.386993 505.984467,319.107208 
	C499.195526,345.462860 488.919403,370.282715 474.339050,393.374542 
	C460.274384,415.649658 443.055237,435.030334 423.265472,452.310852 
	C409.215057,464.579712 393.914825,475.062134 377.491913,483.690643 
	C350.323364,497.964905 321.573761,507.687653 290.883911,511.082886 
	C290.193695,511.159271 289.625275,512.336365 289.000000,513.000000 
	C267.979095,513.000000 246.958206,513.000000 225.807587,512.662659 
	C224.838730,511.886688 224.045822,511.233917 223.153595,511.041382 
	C209.074402,508.003082 194.825317,505.610382 180.931946,501.887543 
	C162.246094,496.880463 144.458664,489.155487 128.144989,478.825043 
	C113.894272,469.800934 100.086189,459.891022 87.059692,449.183624 
	C77.776001,441.552765 69.943367,432.105865 61.765614,423.191956 
	C49.271774,409.573395 39.152382,394.184021 30.564890,377.920685 
	C16.151941,350.624847 6.251656,321.775421 2.916913,290.890259 
	C2.842303,290.199249 1.663654,289.627411 1.000001,289.000000 
	C1.000000,267.979095 1.000000,246.958206 1.337561,225.807297 
	C2.113593,224.837708 2.764796,224.044357 2.958703,223.151672 
	C5.982217,209.232437 8.420804,195.161713 12.048633,181.403961 
	C17.408308,161.078522 26.537992,142.287460 37.288334,124.258934 
	C50.879795,101.465813 68.387436,81.956146 87.663269,63.934345 
	C90.500938,61.281281 93.867767,59.194199 96.989761,56.845253 
	C95.956322,64.554146 94.634300,72.237900 93.959755,79.978065 
	C93.039909,90.533043 92.613647,101.131020 91.519035,112.238068 
	C85.114983,113.505081 79.167641,114.244583 73.119514,115.405457 
	C72.693130,123.947716 71.688789,132.109055 72.169876,140.181854 
	C73.582573,163.887115 81.755013,183.596420 105.894638,192.920319 
z"/>
<path fill="#000000" opacity="1.000000" stroke="none" 
	d="
M289.468689,513.000000 
	C289.625275,512.336365 290.193695,511.159271 290.883911,511.082886 
	C321.573761,507.687653 350.323364,497.964905 377.491913,483.690643 
	C393.914825,475.062134 409.215057,464.579712 423.265472,452.310852 
	C443.055237,435.030334 460.274384,415.649658 474.339050,393.374542 
	C488.919403,370.282715 499.195526,345.462860 505.984467,319.107208 
	C506.427582,317.386993 506.672058,315.615601 507.039734,313.454224 
	C507.070526,313.040466 507.014038,313.012329 507.287842,312.958557 
	C507.651917,312.567444 507.742157,312.230103 507.832397,311.892792 
	C508.914246,304.535339 509.974487,297.174500 511.121490,289.827240 
	C511.207733,289.274719 511.912933,288.818848 512.665161,288.658997 
	C513.000000,363.593719 513.000000,438.187408 513.000000,513.000000 
	C438.645905,513.000000 364.291626,513.000000 289.468689,513.000000 
z"/>
<path fill="#000000" opacity="1.000000" stroke="none" 
	d="
M513.000000,224.531342 
	C512.336121,224.375687 511.149872,223.801514 511.084442,223.119766 
	C509.290161,204.419449 504.331024,186.483459 498.010498,168.891373 
	C489.288513,144.615250 477.373535,121.959160 461.156738,101.913010 
	C451.005066,89.364227 440.013641,77.363243 428.372803,66.185158 
	C414.857941,53.207500 399.287903,42.752514 382.976532,33.399971 
	C360.869965,20.724594 337.218201,12.203981 312.550201,6.360478 
	C305.601715,4.714476 298.405701,4.123724 291.338135,2.958524 
	C290.289154,2.785583 289.322723,2.111747 288.659058,1.334823 
	C363.593719,1.000000 438.187408,1.000000 513.000000,1.000000 
	C513.000000,75.354088 513.000000,149.708389 513.000000,224.531342 
z"/>
<path fill="#000000" opacity="1.000000" stroke="none" 
	d="
M1.000001,289.468658 
	C1.663654,289.627411 2.842303,290.199249 2.916913,290.890259 
	C6.251656,321.775421 16.151941,350.624847 30.564890,377.920685 
	C39.152382,394.184021 49.271774,409.573395 61.765614,423.191956 
	C69.943367,432.105865 77.776001,441.552765 87.059692,449.183624 
	C100.086189,459.891022 113.894272,469.800934 128.144989,478.825043 
	C144.458664,489.155487 162.246094,496.880463 180.931946,501.887543 
	C194.825317,505.610382 209.074402,508.003082 223.153595,511.041382 
	C224.045822,511.233917 224.838730,511.886688 225.338928,512.662659 
	C150.406296,513.000000 75.812599,513.000000 1.000000,513.000000 
	C1.000000,438.645905 1.000000,364.291626 1.000001,289.468658 
z"/>
<path fill="#000000" opacity="1.000000" stroke="none" 
	d="
M97.120880,56.537914 
	C93.867767,59.194199 90.500938,61.281281 87.663269,63.934345 
	C68.387436,81.956146 50.879795,101.465813 37.288334,124.258934 
	C26.537992,142.287460 17.408308,161.078522 12.048633,181.403961 
	C8.420804,195.161713 5.982217,209.232437 2.958703,223.151672 
	C2.764796,224.044357 2.113593,224.837708 1.337561,225.338638 
	C1.000000,150.406296 1.000000,75.812576 1.000000,1.000000 
	C75.354088,1.000000 149.708389,1.000000 224.531342,1.000000 
	C224.376801,1.663852 223.804047,2.849654 223.123047,2.915481 
	C204.445145,4.720940 186.533798,9.675629 168.949951,15.973655 
	C144.983398,24.557775 122.702484,36.272629 102.568848,51.938240 
	C100.771461,53.336758 99.023109,54.798302 97.120880,56.537914 
z"/>
<path fill="#FFFFFE" opacity="1.000000" stroke="none" 
	d="
M450.069885,344.752838 
	C435.396942,362.991516 418.313171,377.849548 397.670593,388.404236 
	C373.476227,400.774994 347.835663,406.730621 320.616425,405.354553 
	C332.376740,396.006561 344.150238,387.003357 356.332703,378.020599 
	C368.994141,375.171814 380.697876,370.941223 391.674561,364.016785 
	C422.906464,345.852203 443.261688,319.547516 453.136658,285.167847 
	C455.391083,277.319031 450.959961,269.630981 443.310638,269.313080 
	C431.545288,268.824158 419.734650,269.425568 407.481110,269.514282 
	C334.277008,269.470673 261.535004,269.477142 188.737549,269.337341 
	C188.682114,269.191071 188.443161,268.985229 188.350525,268.551971 
	C187.488113,257.343109 186.718307,246.567490 185.948517,235.791870 
	C253.391174,235.759842 320.833832,235.727493 388.276489,235.696243 
	C395.582214,235.692871 402.887970,235.695801 410.629456,235.695801 
	C410.821716,238.838394 410.989258,241.576126 411.196594,244.964722 
	C420.462219,244.964722 429.572235,244.765976 438.667542,245.045914 
	C443.441681,245.192871 448.409271,245.484085 452.911804,246.906067 
	C471.701935,252.840363 481.703461,272.106720 476.417480,291.522583 
	C471.150177,310.870178 462.230835,328.425354 450.069885,344.752838 
z"/>
<path fill="#38AA1B" opacity="1.000000" stroke="none" 
	d="
M106.297089,192.946701 
	C81.755013,183.596420 73.582573,163.887115 72.169876,140.181854 
	C71.688789,132.109055 72.693130,123.947716 73.437042,115.492844 
	C75.378326,116.424995 77.011810,117.580406 78.407814,118.973740 
	C102.346321,142.866440 126.254150,166.789856 150.174850,190.700409 
	C151.427567,191.952576 152.734818,193.150177 154.016678,194.373184 
	C154.552170,194.270218 155.087646,194.167252 155.623123,194.064301 
	C155.757568,188.730728 155.857620,183.396042 156.032593,178.063797 
	C156.678223,158.386185 152.663025,140.332169 137.983871,125.967941 
	C145.250519,113.410645 155.138092,103.203995 166.968048,94.463120 
	C167.682205,96.311272 168.005814,97.950546 168.006653,99.589989 
	C168.025070,135.701355 168.007736,171.812714 167.997223,207.924088 
	C164.172165,204.800705 160.480270,201.488998 156.457977,198.644516 
	C154.795715,197.469009 152.377930,196.631180 150.383850,196.772217 
	C135.602066,197.817673 120.968674,197.631592 106.297089,192.946701 
z"/>
<path fill="#AFE6FF" opacity="1.000000" stroke="none" 
	d="
M185.744171,235.626923 
	C186.718307,246.567490 187.488113,257.343109 188.299988,268.722931 
	C188.342072,269.327148 188.349365,269.680420 187.928452,269.813965 
	C186.199265,269.778381 184.890900,269.460968 183.582733,269.461792 
	C153.016006,269.481049 122.449295,269.534760 91.882584,269.582092 
	C90.659691,258.601105 89.436806,247.620056 88.101204,235.626968 
	C100.322823,235.626968 111.211838,235.626968 122.566711,235.557983 
	C143.028976,235.508591 163.025375,235.528168 183.760406,235.494583 
	C184.682465,235.385712 184.865875,235.329987 185.049301,235.274277 
	C185.212814,235.336838 185.376328,235.399399 185.744171,235.626923 
z"/>
<path fill="#52C322" opacity="1.000000" stroke="none" 
	d="
M168.345184,207.975388 
	C168.007736,171.812714 168.025070,135.701355 168.006653,99.589989 
	C168.005814,97.950546 167.682205,96.311272 167.277191,94.327469 
	C168.164017,94.070747 169.618103,93.732292 170.351257,94.309509 
	C183.278091,104.487068 194.507401,116.099037 201.407318,131.364502 
	C207.732529,145.358505 207.081757,159.098999 200.153275,172.638351 
	C192.730713,187.143234 181.846893,198.601379 168.345184,207.975388 
z"/>
<path fill="#51C422" opacity="1.000000" stroke="none" 
	d="
M137.670776,125.841492 
	C152.663025,140.332169 156.678223,158.386185 156.032593,178.063797 
	C155.857620,183.396042 155.757568,188.730728 155.623123,194.064301 
	C155.087646,194.167252 154.552170,194.270218 154.016678,194.373184 
	C152.734818,193.150177 151.427567,191.952576 150.174850,190.700409 
	C126.254150,166.789856 102.346321,142.866440 78.407814,118.973740 
	C77.011810,117.580406 75.378326,116.424995 73.537834,115.071480 
	C79.167641,114.244583 85.114983,113.505081 91.519066,112.681381 
	C100.307182,113.688171 108.890480,113.884010 116.894836,116.136856 
	C124.047760,118.150070 130.561752,122.433403 137.670776,125.841492 
z"/>
<path fill="#FFFDFB" opacity="1.000000" stroke="none" 
	d="
M255.992523,105.333160 
	C254.592331,100.817169 253.579010,96.573723 251.771973,92.700584 
	C245.341904,78.918610 246.190063,66.079620 255.547409,53.801353 
	C258.727997,49.627914 261.112854,44.848000 264.861633,40.287418 
	C264.373108,44.569004 264.152344,48.903900 263.313873,53.115826 
	C262.604187,56.680862 260.835602,60.036484 260.139954,63.602669 
	C258.473145,72.147400 260.280945,80.005898 265.017944,87.413818 
	C273.658844,100.926811 273.661835,114.805313 265.142548,128.308395 
	C258.838409,138.300461 258.088867,148.461334 262.192291,159.292038 
	C264.206421,164.608170 265.951111,169.993530 264.000031,175.311356 
	C260.233643,169.581238 256.103577,163.851227 252.556870,157.780426 
	C246.233032,146.956024 245.808868,135.645370 251.290527,124.363045 
	C254.170258,118.435989 256.675293,112.542747 255.992523,105.333160 
z"/>
<path fill="#FDD394" opacity="1.000000" stroke="none" 
	d="
M184.913864,235.201767 
	C184.865875,235.329987 184.682465,235.385712 184.214508,235.398834 
	C184.172821,235.138916 184.455627,235.063263 184.913864,235.201767 
z"/>
<path fill="#FF956A" opacity="1.000000" stroke="none" 
	d="
M507.647003,312.053864 
	C507.742157,312.230103 507.651917,312.567444 507.288757,312.990051 
	C507.077087,312.743286 507.225677,312.456512 507.647003,312.053864 
z"/>
<path fill="#AA321E" opacity="1.000000" stroke="none" 
	d="
M188.792984,269.483612 
	C261.535004,269.477142 334.277008,269.470673 407.479858,269.899841 
	C405.463654,281.014496 403.540771,291.859833 400.396820,302.338806 
	C393.378937,325.729858 381.471069,346.653992 366.340668,366.118561 
	C362.699951,370.201172 359.311859,374.100677 355.923767,378.000153 
	C344.150238,387.003357 332.376740,396.006561 320.253143,405.146729 
	C318.100830,406.162659 316.298645,407.041656 313.837646,408.154663 
	C306.131989,410.167999 299.085114,411.947327 291.816956,413.480408 
	C287.492706,411.042389 283.131592,409.222565 279.335480,406.588409 
	C268.300446,398.931213 256.740448,391.793030 246.752197,382.914673 
	C226.541443,364.949890 212.172073,342.566559 201.888229,317.620697 
	C195.590073,302.343048 190.898865,286.577454 188.985809,269.918518 
	C188.990021,269.752075 188.792984,269.483612 188.792984,269.483612 
z"/>
<path fill="#872D1E" opacity="1.000000" stroke="none" 
	d="
M188.981583,270.084991 
	C190.898865,286.577454 195.590073,302.343048 201.888229,317.620697 
	C212.172073,342.566559 226.541443,364.949890 246.752197,382.914673 
	C256.740448,391.793030 268.300446,398.931213 279.335480,406.588409 
	C283.131592,409.222565 287.492706,411.042389 291.353271,413.583954 
	C267.808258,413.994476 244.503647,413.892731 221.203918,414.182770 
	C209.064041,414.333893 197.360733,412.609009 186.040436,408.252289 
	C152.655029,392.070648 129.572708,365.659882 112.521690,333.502716 
	C102.023422,313.703583 94.940224,292.661224 91.904419,269.969360 
	C122.449295,269.534760 153.016006,269.481049 183.582733,269.461792 
	C184.890900,269.460968 186.199265,269.778381 188.080383,269.924042 
	C188.653229,269.900543 188.981583,270.084991 188.981583,270.084991 
z"/>
<path fill="#FFFDFD" opacity="1.000000" stroke="none" 
	d="
M164.087814,424.228394 
	C171.086044,424.171844 178.084290,424.115295 186.013824,424.029907 
	C229.261703,423.981506 271.578278,423.961914 313.894836,423.942322 
	C344.051025,423.997925 374.207214,424.053680 404.363403,424.108551 
	C406.334259,424.112152 408.305115,424.109039 410.163849,424.109039 
	C412.261871,433.211639 403.703125,446.212158 391.785522,448.857849 
	C388.726837,449.536865 385.516541,449.799683 382.375549,449.802155 
	C316.892395,449.853882 251.409225,449.840515 185.160767,449.619446 
	C171.808868,445.702271 165.381119,437.036591 164.087814,424.228394 
z"/>
<path fill="#B1E5FC" opacity="1.000000" stroke="none" 
	d="
M163.614731,424.160400 
	C165.381119,437.036591 171.808868,445.702271 184.693954,449.573486 
	C161.220215,449.760315 137.441711,450.107391 113.678207,449.659088 
	C99.496384,449.391541 88.161804,437.091736 89.519112,424.092377 
	C114.012932,424.092377 138.577286,424.092377 163.614731,424.160400 
z"/>
<path fill="#AFE3FC" opacity="1.000000" stroke="none" 
	d="
M313.909912,423.481964 
	C271.578278,423.961914 229.261703,423.981506 186.479675,423.966614 
	C186.010239,419.005005 186.006302,414.077911 186.021393,408.701538 
	C197.360733,412.609009 209.064041,414.333893 221.203918,414.182770 
	C244.503647,413.892731 267.808258,413.994476 291.574524,413.830139 
	C299.085114,411.947327 306.131989,410.167999 313.530731,408.325684 
	C313.896729,413.182343 313.910858,418.101959 313.909912,423.481964 
z"/>
<path fill="#FAB350" opacity="1.000000" stroke="none" 
	d="
M366.593262,365.935425 
	C381.471069,346.653992 393.378937,325.729858 400.396820,302.338806 
	C403.540771,291.859833 405.463654,281.014496 407.941956,269.949890 
	C419.734650,269.425568 431.545288,268.824158 443.310638,269.313080 
	C450.959961,269.630981 455.391083,277.319031 453.136658,285.167847 
	C443.261688,319.547516 422.906464,345.852203 391.210754,363.990356 
	C382.476624,364.671112 374.534943,365.303284 366.593262,365.935425 
z"/>
<path fill="#FE976D" opacity="1.000000" stroke="none" 
	d="
M366.340668,366.118591 
	C374.534943,365.303284 382.476624,364.671112 390.882141,364.065369 
	C380.697876,370.941223 368.994141,375.171814 356.332703,378.020630 
	C359.311859,374.100677 362.699951,370.201172 366.340668,366.118591 
z"/>
<path fill="#FAB350" opacity="1.000000" stroke="none" 
	d="
M188.985809,269.918518 
	C188.981583,270.084991 188.653229,269.900543 188.501297,269.790466 
	C188.349365,269.680420 188.342072,269.327148 188.392609,269.156189 
	C188.443161,268.985229 188.682114,269.191071 188.737549,269.337341 
	C188.792984,269.483612 188.990021,269.752075 188.985809,269.918518 
z"/>
</svg>