<svg width="37" height="41" viewBox="0 0 37 41" fill="none" xmlns="http://www.w3.org/2000/svg">
<ellipse cx="18.1395" cy="20.5483" rx="18.0697" ry="20.2675" fill="#EEEEEE"/>
<path d="M24.4638 16.0446H11.6143C10.7272 16.0446 10.0081 16.8512 10.0081 17.8461V26.8539C10.0081 27.8489 10.7272 28.6555 11.6143 28.6555H24.4638C25.3509 28.6555 26.07 27.8489 26.07 26.8539V17.8461C26.07 16.8512 25.3509 16.0446 24.4638 16.0446Z" stroke="#282323" stroke-width="2" stroke-linecap="round" stroke-linejoin="round"/>
<path d="M21.2514 28.6554V14.243C21.2514 13.7652 21.0822 13.3069 20.781 12.9691C20.4798 12.6312 20.0712 12.4414 19.6452 12.4414H16.4329C16.0069 12.4414 15.5983 12.6312 15.2971 12.9691C14.9959 13.3069 14.8267 13.7652 14.8267 14.243V28.6554" stroke="#282323" stroke-width="2" stroke-linecap="round" stroke-linejoin="round"/>
</svg>
