<svg version="1.1" id="Layer_1" xmlns="http://www.w3.org/2000/svg" xmlns:xlink="http://www.w3.org/1999/xlink" x="0px" y="0px"
	 width="100%" viewBox="0 0 512 512" enable-background="new 0 0 512 512" xml:space="preserve">
<path fill="#000000" opacity="1.000000" stroke="none" 
	d="
M276.000000,513.000000 
	C184.022324,513.000000 92.544647,513.000000 1.033484,513.000000 
	C1.033484,342.397308 1.033484,171.794586 1.033484,1.095938 
	C171.561035,1.095938 342.122131,1.095938 512.841614,1.095938 
	C512.841614,171.666550 512.841614,342.333252 512.841614,513.000000 
	C434.127899,513.000000 355.313934,513.000000 276.000000,513.000000 
M230.231720,129.986771 
	C225.521545,133.023956 220.811371,136.061142 215.428528,138.751343 
	C212.162231,137.437454 209.077850,136.993500 205.645813,138.810547 
	C200.589706,141.487457 199.562881,145.726303 199.311691,151.150909 
	C195.577484,153.794357 191.843262,156.437790 187.409546,158.763412 
	C184.379120,158.286728 180.877716,156.594498 178.403397,157.553146 
	C169.740417,160.909561 161.237610,177.601318 163.276031,187.008011 
	C166.197235,200.488327 161.432495,206.210648 148.699753,211.929626 
	C138.851028,216.353226 128.996933,214.558182 119.065575,211.906067 
	C110.447388,209.604614 102.202347,210.999619 94.832405,216.118958 
	C68.656219,234.301605 42.622093,252.690643 16.317368,270.684570 
	C11.810316,273.767639 9.879744,276.925018 9.902287,282.415405 
	C10.090469,328.247711 10.045142,374.081177 9.992026,419.914185 
	C9.969563,439.296417 28.753147,452.887024 46.867828,450.797546 
	C60.679470,449.204407 74.478882,447.496735 88.304054,446.031830 
	C102.461693,444.531677 116.658302,443.396301 130.811935,441.862152 
	C147.591125,440.043396 164.332794,437.879547 181.109222,436.033600 
	C194.937241,434.512115 208.799454,433.303833 222.633499,431.834229 
	C240.413010,429.945526 258.188110,428.008179 275.947968,425.944550 
	C284.665924,424.931580 293.071899,422.810181 298.890259,415.510986 
	C302.173462,411.392181 304.631317,406.594330 308.053589,402.611664 
	C317.070557,392.118164 332.251984,389.797668 343.851166,403.378723 
	C351.219910,412.006470 360.388763,416.000885 371.890198,415.122559 
	C376.844025,414.744293 378.647797,412.386536 379.865051,408.001038 
	C383.552063,407.643402 387.239075,407.285767 391.475800,407.352173 
	C393.406708,411.066223 396.335175,413.494049 400.636475,412.770569 
	C404.727234,412.082520 406.855194,409.199371 407.862183,404.997894 
	C412.559509,404.280670 417.256866,403.563446 422.009399,403.616516 
	C423.786957,408.376404 426.720459,409.678528 433.233521,408.929749 
	C445.236206,407.549896 457.302643,406.621124 469.241425,404.830536 
	C475.519226,403.889008 482.172943,402.592316 487.626495,399.586426 
	C500.785980,392.333405 503.970612,379.495178 503.985291,365.560852 
	C504.025635,327.239746 504.034088,288.918457 503.941925,250.597504 
	C503.929596,245.470474 503.560852,240.303528 502.850983,235.225815 
	C499.102325,208.410645 491.945190,182.707520 478.091370,159.134888 
	C467.902405,141.798080 455.289856,126.512062 439.886871,113.664673 
	C423.730408,100.188789 405.866333,89.399567 386.444244,81.175850 
	C367.242554,73.045502 347.270569,67.795815 326.822632,63.964367 
	C318.197174,62.348160 310.725677,63.340919 304.409302,69.773972 
	C304.072876,70.116600 303.534149,70.250626 303.126190,70.534409 
	C280.256042,86.444206 257.395325,102.367538 234.518204,118.267319 
	C230.278534,121.213913 228.628845,124.890816 230.231720,129.986771 
z"/>
<path fill="#FEC269" opacity="1.000000" stroke="none" 
	d="
M421.954193,402.846222 
	C417.256866,403.563446 412.559509,404.280670 407.344910,404.641968 
	C406.056244,400.405243 403.915955,398.101776 399.745239,398.124359 
	C396.073730,398.144226 393.410309,399.688751 392.102875,403.223846 
	C391.653931,404.437653 391.315186,405.692200 390.926086,406.928131 
	C387.239075,407.285767 383.552063,407.643402 379.320435,407.664185 
	C377.544495,403.126343 375.006622,401.026459 370.365326,401.241882 
	C363.714630,401.550598 358.784271,398.348022 354.518402,393.310577 
	C337.319427,373.000671 306.375610,376.023132 293.556519,399.344635 
	C289.302399,407.084076 283.299011,411.069458 274.583252,411.910156 
	C254.534149,413.844086 234.511017,416.051453 214.483917,418.208710 
	C159.038376,424.181030 103.597397,430.195770 48.151890,436.168488 
	C32.900200,437.811462 24.699533,430.508698 24.691269,415.282166 
	C24.668938,374.134857 24.680016,332.987579 24.692648,291.840271 
	C24.693193,290.065216 24.841042,288.290192 24.932848,286.233368 
	C35.946022,285.475311 46.546005,284.725983 57.148876,284.020081 
	C79.414902,282.537689 101.680984,281.055603 123.950455,279.626373 
	C128.946030,279.305756 132.805786,277.813843 133.609741,271.992859 
	C143.494370,271.630127 152.924438,271.263245 162.546417,271.178436 
	C164.946030,276.368988 167.840591,277.842896 173.805252,276.955994 
	C178.337845,276.282013 180.008881,273.195648 180.710114,268.998810 
	C189.348862,268.656708 197.537216,268.316895 205.837921,268.337219 
	C207.107834,273.020844 210.215286,274.315948 214.309952,274.085663 
	C222.951920,273.599609 231.596283,273.152802 240.235764,272.626099 
	C281.770813,270.093994 323.304596,267.541107 364.838776,264.994659 
	C395.739380,263.100189 426.639038,261.188904 457.541046,259.317535 
	C467.938141,258.687927 478.341339,258.158173 489.029785,257.566833 
	C489.153381,259.307831 489.303192,260.436676 489.303528,261.565582 
	C489.313965,297.862305 489.367126,334.159210 489.273987,370.455688 
	C489.245361,381.610443 482.024292,388.941254 470.784515,390.044678 
	C457.372498,391.361450 443.971100,392.794128 430.577759,394.290070 
	C423.908112,395.035004 422.234802,396.827759 421.954193,402.846222 
M105.245201,317.152191 
	C104.643486,310.605713 101.644745,308.282990 94.919586,309.154358 
	C81.240585,310.926636 71.487328,322.561676 71.916344,336.595673 
	C72.320786,349.825897 83.348763,360.962097 96.899521,361.823975 
	C110.022789,362.658691 122.218719,352.543182 124.223068,339.161469 
	C125.323860,331.812134 123.408043,329.428589 115.888901,328.259796 
	C112.353081,324.827393 108.817261,321.394989 105.245201,317.152191 
M238.536423,365.964569 
	C246.751251,352.703827 246.589172,338.264069 238.094910,326.629852 
	C229.955673,315.481903 215.919601,310.291382 202.738953,313.555328 
	C188.290375,317.133240 177.765289,329.342255 176.837006,343.601379 
	C175.800537,359.522400 184.104828,372.785980 198.506866,378.212280 
	C213.233124,383.760803 227.928741,379.427216 238.536423,365.964569 
M446.541138,292.983521 
	C434.806030,281.267822 418.797089,279.669098 406.262695,288.961182 
	C394.437103,297.727844 390.773865,313.947937 397.678009,326.972351 
	C405.899750,342.482361 425.350403,347.698547 440.180511,338.370392 
	C455.634369,328.649902 458.647369,308.881653 446.541138,292.983521 
M302.134369,303.450317 
	C300.527069,299.881409 297.426300,298.254822 294.065033,299.548309 
	C291.866791,300.394226 289.107544,303.143280 288.996887,305.170776 
	C288.869080,307.512299 290.786469,310.959778 292.856689,312.228271 
	C297.776917,315.243011 302.765045,310.774750 302.134369,303.450317 
M106.839317,385.725952 
	C107.227455,391.784576 110.998810,395.540283 115.326912,393.408264 
	C117.677910,392.250153 120.395111,388.879639 120.321831,386.591125 
	C120.249229,384.323944 117.279396,381.150543 114.859749,380.190277 
	C111.175270,378.728027 108.216660,380.997070 106.839317,385.725952 
M387.718994,359.290314 
	C383.521515,358.083771 379.892242,358.775909 378.286316,363.216919 
	C377.023590,366.708862 378.091156,369.989655 381.611877,371.659882 
	C384.935608,373.236603 388.336945,372.753967 390.507782,369.569794 
	C393.097961,365.770538 392.214722,362.333008 387.718994,359.290314 
z"/>
<path fill="#FEE07D" opacity="1.000000" stroke="none" 
	d="
M162.354492,270.896362 
	C152.924438,271.263245 143.494370,271.630127 133.509857,271.642365 
	C131.655090,266.278931 128.197861,265.164917 123.439606,265.475677 
	C98.200722,267.124084 72.951492,268.614502 47.704117,270.130859 
	C46.525856,270.201630 45.331043,269.996887 43.175377,269.858032 
	C45.333641,268.250336 46.611313,267.247253 47.939831,266.316711 
	C64.697350,254.579376 81.610901,243.056961 98.155266,231.026764 
	C105.219482,225.890030 112.132530,224.477737 120.560959,226.990112 
	C135.567688,231.463333 149.885513,228.894257 163.180252,220.816513 
	C175.730042,213.191437 181.279022,202.270264 178.446503,187.484131 
	C177.381393,181.924118 178.556625,176.422012 182.778076,172.793747 
	C187.280060,168.924332 189.433380,164.867630 188.109055,159.081223 
	C191.843262,156.437790 195.577484,153.794357 200.005997,150.976532 
	C204.227264,153.402084 207.398712,154.966492 212.079590,152.160858 
	C217.852219,148.700851 217.478729,144.276184 216.101196,139.098328 
	C220.811371,136.061142 225.521545,133.023956 230.913269,130.056885 
	C235.240341,133.903183 238.749695,133.031799 242.667053,130.273193 
	C266.077240,113.787704 289.660400,97.546249 312.966034,80.915337 
	C317.060455,77.993546 320.918945,77.492424 325.500397,78.260025 
	C343.443634,81.266342 360.917084,85.928078 377.723694,92.942352 
	C422.433563,111.602074 456.565552,141.329315 475.513153,186.806396 
	C482.980530,204.729218 487.127777,223.466339 488.916016,243.214966 
	C486.326447,243.462753 484.061188,243.749908 481.786865,243.886673 
	C441.063049,246.335815 400.336853,248.745972 359.613739,251.206940 
	C311.245087,254.129944 262.879272,257.100006 214.511108,260.030731 
	C208.487625,260.395691 206.745193,261.913300 205.725555,267.977051 
	C197.537216,268.316895 189.348862,268.656708 180.591644,268.647949 
	C178.206299,262.722900 173.630707,262.757111 169.062454,263.052185 
	C164.255585,263.362640 162.963608,266.886719 162.354492,270.896362 
M324.144135,108.127426 
	C318.047150,109.851730 312.867157,112.798538 309.130829,118.800453 
	C302.572144,119.103317 300.360596,121.458008 300.817322,127.751694 
	C301.279816,134.125275 304.463989,139.063812 309.198212,143.089890 
	C321.534821,153.581192 342.668152,153.718491 355.013397,143.243057 
	C361.992676,137.320877 365.387726,129.899902 363.065277,120.595146 
	C360.291809,109.483467 348.235565,101.217888 334.243713,100.759705 
	C328.152710,100.560242 326.441376,101.876045 324.144135,108.127426 
M376.701416,219.932983 
	C391.615417,225.147705 405.947174,224.207550 419.019440,214.964127 
	C434.503052,204.015717 435.026611,184.985291 420.526337,172.921646 
	C405.362427,160.305862 379.238586,160.910309 364.749573,174.212204 
	C353.043823,184.958893 352.724335,201.216980 364.392212,212.034042 
	C367.737030,215.134949 372.087128,217.151535 376.701416,219.932983 
M297.034454,202.554520 
	C309.332916,190.103394 307.144928,173.414032 291.727570,165.212570 
	C279.432373,158.671982 266.695312,158.674225 254.541901,165.639496 
	C237.556229,175.374176 237.607285,195.909500 254.387009,205.953461 
	C267.294281,213.679459 284.010345,212.517624 297.034454,202.554520 
M208.223770,229.100113 
	C211.941315,229.928482 215.248016,228.943939 216.132263,225.171661 
	C216.685394,222.812012 216.235214,219.164307 214.700699,217.662170 
	C213.144104,216.138458 209.429581,215.673828 207.169998,216.378998 
	C205.389099,216.934799 203.118652,220.127838 203.334091,221.868820 
	C203.641586,224.353577 206.022232,226.581772 208.223770,229.100113 
z"/>
<path fill="#402D2E" opacity="1.000000" stroke="none" 
	d="
M205.837921,268.337219 
	C206.745193,261.913300 208.487625,260.395691 214.511108,260.030731 
	C262.879272,257.100006 311.245087,254.129944 359.613739,251.206940 
	C400.336853,248.745972 441.063049,246.335815 481.786865,243.886673 
	C484.061188,243.749908 486.326447,243.462753 488.916016,243.214966 
	C487.127777,223.466339 482.980530,204.729218 475.513153,186.806396 
	C456.565552,141.329315 422.433563,111.602074 377.723694,92.942352 
	C360.917084,85.928078 343.443634,81.266342 325.500397,78.260025 
	C320.918945,77.492424 317.060455,77.993546 312.966034,80.915337 
	C289.660400,97.546249 266.077240,113.787704 242.667053,130.273193 
	C238.749695,133.031799 235.240341,133.903183 231.267517,129.978271 
	C228.628845,124.890816 230.278534,121.213913 234.518204,118.267319 
	C257.395325,102.367538 280.256042,86.444206 303.126190,70.534409 
	C303.534149,70.250626 304.072876,70.116600 304.409302,69.773972 
	C310.725677,63.340919 318.197174,62.348160 326.822632,63.964367 
	C347.270569,67.795815 367.242554,73.045502 386.444244,81.175850 
	C405.866333,89.399567 423.730408,100.188789 439.886871,113.664673 
	C455.289856,126.512062 467.902405,141.798080 478.091370,159.134888 
	C491.945190,182.707520 499.102325,208.410645 502.850983,235.225815 
	C503.560852,240.303528 503.929596,245.470474 503.941925,250.597504 
	C504.034088,288.918457 504.025635,327.239746 503.985291,365.560852 
	C503.970612,379.495178 500.785980,392.333405 487.626495,399.586426 
	C482.172943,402.592316 475.519226,403.889008 469.241425,404.830536 
	C457.302643,406.621124 445.236206,407.549896 433.233521,408.929749 
	C426.720459,409.678528 423.786957,408.376404 421.981812,403.231384 
	C422.234802,396.827759 423.908112,395.035004 430.577759,394.290070 
	C443.971100,392.794128 457.372498,391.361450 470.784515,390.044678 
	C482.024292,388.941254 489.245361,381.610443 489.273987,370.455688 
	C489.367126,334.159210 489.313965,297.862305 489.303528,261.565582 
	C489.303192,260.436676 489.153381,259.307831 489.029785,257.566833 
	C478.341339,258.158173 467.938141,258.687927 457.541046,259.317535 
	C426.639038,261.188904 395.739380,263.100189 364.838776,264.994659 
	C323.304596,267.541107 281.770813,270.093994 240.235764,272.626099 
	C231.596283,273.152802 222.951920,273.599609 214.309952,274.085663 
	C210.215286,274.315948 207.107834,273.020844 205.837921,268.337219 
z"/>
<path fill="#3F2D2E" opacity="1.000000" stroke="none" 
	d="
M187.759308,158.922318 
	C189.433380,164.867630 187.280060,168.924332 182.778076,172.793747 
	C178.556625,176.422012 177.381393,181.924118 178.446503,187.484131 
	C181.279022,202.270264 175.730042,213.191437 163.180252,220.816513 
	C149.885513,228.894257 135.567688,231.463333 120.560959,226.990112 
	C112.132530,224.477737 105.219482,225.890030 98.155266,231.026764 
	C81.610901,243.056961 64.697350,254.579376 47.939831,266.316711 
	C46.611313,267.247253 45.333641,268.250336 43.175377,269.858032 
	C45.331043,269.996887 46.525856,270.201630 47.704117,270.130859 
	C72.951492,268.614502 98.200722,267.124084 123.439606,265.475677 
	C128.197861,265.164917 131.655090,266.278931 133.055283,271.638245 
	C132.805786,277.813843 128.946030,279.305756 123.950455,279.626373 
	C101.680984,281.055603 79.414902,282.537689 57.148876,284.020081 
	C46.546005,284.725983 35.946022,285.475311 24.932848,286.233368 
	C24.841042,288.290192 24.693193,290.065216 24.692648,291.840271 
	C24.680016,332.987579 24.668938,374.134857 24.691269,415.282166 
	C24.699533,430.508698 32.900200,437.811462 48.151890,436.168488 
	C103.597397,430.195770 159.038376,424.181030 214.483917,418.208710 
	C234.511017,416.051453 254.534149,413.844086 274.583252,411.910156 
	C283.299011,411.069458 289.302399,407.084076 293.556519,399.344635 
	C306.375610,376.023132 337.319427,373.000671 354.518402,393.310577 
	C358.784271,398.348022 363.714630,401.550598 370.365326,401.241882 
	C375.006622,401.026459 377.544495,403.126343 378.892212,407.664337 
	C378.647797,412.386536 376.844025,414.744293 371.890198,415.122559 
	C360.388763,416.000885 351.219910,412.006470 343.851166,403.378723 
	C332.251984,389.797668 317.070557,392.118164 308.053589,402.611664 
	C304.631317,406.594330 302.173462,411.392181 298.890259,415.510986 
	C293.071899,422.810181 284.665924,424.931580 275.947968,425.944550 
	C258.188110,428.008179 240.413010,429.945526 222.633499,431.834229 
	C208.799454,433.303833 194.937241,434.512115 181.109222,436.033600 
	C164.332794,437.879547 147.591125,440.043396 130.811935,441.862152 
	C116.658302,443.396301 102.461693,444.531677 88.304054,446.031830 
	C74.478882,447.496735 60.679470,449.204407 46.867828,450.797546 
	C28.753147,452.887024 9.969563,439.296417 9.992026,419.914185 
	C10.045142,374.081177 10.090469,328.247711 9.902287,282.415405 
	C9.879744,276.925018 11.810316,273.767639 16.317368,270.684570 
	C42.622093,252.690643 68.656219,234.301605 94.832405,216.118958 
	C102.202347,210.999619 110.447388,209.604614 119.065575,211.906067 
	C128.996933,214.558182 138.851028,216.353226 148.699753,211.929626 
	C161.432495,206.210648 166.197235,200.488327 163.276031,187.008011 
	C161.237610,177.601318 169.740417,160.909561 178.403397,157.553146 
	C180.877716,156.594498 184.379120,158.286728 187.759308,158.922318 
z"/>
<path fill="#3F2E2F" opacity="1.000000" stroke="none" 
	d="
M215.764862,138.924835 
	C217.478729,144.276184 217.852219,148.700851 212.079590,152.160858 
	C207.398712,154.966492 204.227264,153.402084 200.308228,150.801056 
	C199.562881,145.726303 200.589706,141.487457 205.645813,138.810547 
	C209.077850,136.993500 212.162231,137.437454 215.764862,138.924835 
z"/>
<path fill="#402D2E" opacity="1.000000" stroke="none" 
	d="
M391.200928,407.140137 
	C391.315186,405.692200 391.653931,404.437653 392.102875,403.223846 
	C393.410309,399.688751 396.073730,398.144226 399.745239,398.124359 
	C403.915955,398.101776 406.056244,400.405243 406.919037,404.637451 
	C406.855194,409.199371 404.727234,412.082520 400.636475,412.770569 
	C396.335175,413.494049 393.406708,411.066223 391.200928,407.140137 
z"/>
<path fill="#402D2E" opacity="1.000000" stroke="none" 
	d="
M238.316620,366.251129 
	C227.928741,379.427216 213.233124,383.760803 198.506866,378.212280 
	C184.104828,372.785980 175.800537,359.522400 176.837006,343.601379 
	C177.765289,329.342255 188.290375,317.133240 202.738953,313.555328 
	C215.919601,310.291382 229.955673,315.481903 238.094910,326.629852 
	C246.589172,338.264069 246.751251,352.703827 238.316620,366.251129 
M194.828140,334.428467 
	C189.289612,342.830719 189.340240,351.810883 194.966537,358.969666 
	C200.366562,365.840576 209.656036,368.362152 217.887970,365.191589 
	C225.615921,362.215088 230.609970,354.916382 230.608368,346.600861 
	C230.606812,338.508545 225.764587,331.201630 218.379852,328.148163 
	C210.301636,324.807892 202.159515,326.814911 194.828140,334.428467 
z"/>
<path fill="#402D2E" opacity="1.000000" stroke="none" 
	d="
M446.779114,293.249756 
	C458.647369,308.881653 455.634369,328.649902 440.180511,338.370392 
	C425.350403,347.698547 405.899750,342.482361 397.678009,326.972351 
	C390.773865,313.947937 394.437103,297.727844 406.262695,288.961182 
	C418.797089,279.669098 434.806030,281.267822 446.779114,293.249756 
M412.572296,323.896088 
	C419.425079,329.787628 426.622345,330.622498 433.009979,326.266815 
	C439.103333,322.111725 441.712708,314.627380 439.257141,307.880280 
	C436.941254,301.516846 432.280518,297.774811 425.586304,297.127045 
	C419.095612,296.498962 413.816711,299.060730 410.505707,304.795166 
	C406.775452,311.255707 407.511780,317.503357 412.572296,323.896088 
z"/>
<path fill="#412E2E" opacity="1.000000" stroke="none" 
	d="
M116.014542,328.949036 
	C123.408043,329.428589 125.323860,331.812134 124.223068,339.161469 
	C122.218719,352.543182 110.022789,362.658691 96.899521,361.823975 
	C83.348763,360.962097 72.320786,349.825897 71.916344,336.595673 
	C71.487328,322.561676 81.240585,310.926636 94.919586,309.154358 
	C101.644745,308.282990 104.643486,310.605713 105.109756,317.890320 
	C103.539856,322.265717 100.443176,323.024628 96.990837,323.595306 
	C89.670471,324.805328 85.545601,329.841309 85.952400,336.647430 
	C86.312981,342.680359 91.174019,347.606110 97.190788,348.035461 
	C103.993416,348.520874 108.532906,344.403381 110.591751,337.207245 
	C111.456505,334.184723 114.151558,331.685913 116.014542,328.949036 
z"/>
<path fill="#FCA85E" opacity="1.000000" stroke="none" 
	d="
M115.951721,328.604431 
	C114.151558,331.685913 111.456505,334.184723 110.591751,337.207245 
	C108.532906,344.403381 103.993416,348.520874 97.190788,348.035461 
	C91.174019,347.606110 86.312981,342.680359 85.952400,336.647430 
	C85.545601,329.841309 89.670471,324.805328 96.990837,323.595306 
	C100.443176,323.024628 103.539856,322.265717 105.127884,318.295532 
	C108.817261,321.394989 112.353081,324.827393 115.951721,328.604431 
z"/>
<path fill="#422F2F" opacity="1.000000" stroke="none" 
	d="
M162.546417,271.178436 
	C162.963608,266.886719 164.255585,263.362640 169.062454,263.052185 
	C173.630707,262.757111 178.206299,262.722900 180.141220,268.650269 
	C180.008881,273.195648 178.337845,276.282013 173.805252,276.955994 
	C167.840591,277.842896 164.946030,276.368988 162.546417,271.178436 
z"/>
<path fill="#463230" opacity="1.000000" stroke="none" 
	d="
M302.254150,303.805603 
	C302.765045,310.774750 297.776917,315.243011 292.856689,312.228271 
	C290.786469,310.959778 288.869080,307.512299 288.996887,305.170776 
	C289.107544,303.143280 291.866791,300.394226 294.065033,299.548309 
	C297.426300,298.254822 300.527069,299.881409 302.254150,303.805603 
z"/>
<path fill="#453130" opacity="1.000000" stroke="none" 
	d="
M106.901703,385.323730 
	C108.216660,380.997070 111.175270,378.728027 114.859749,380.190277 
	C117.279396,381.150543 120.249229,384.323944 120.321831,386.591125 
	C120.395111,388.879639 117.677910,392.250153 115.326912,393.408264 
	C110.998810,395.540283 107.227455,391.784576 106.901703,385.323730 
z"/>
<path fill="#43302F" opacity="1.000000" stroke="none" 
	d="
M388.061249,359.498688 
	C392.214722,362.333008 393.097961,365.770538 390.507782,369.569794 
	C388.336945,372.753967 384.935608,373.236603 381.611877,371.659882 
	C378.091156,369.989655 377.023590,366.708862 378.286316,363.216919 
	C379.892242,358.775909 383.521515,358.083771 388.061249,359.498688 
z"/>
<path fill="#402E2E" opacity="1.000000" stroke="none" 
	d="
M376.338867,219.799133 
	C372.087128,217.151535 367.737030,215.134949 364.392212,212.034042 
	C352.724335,201.216980 353.043823,184.958893 364.749573,174.212204 
	C379.238586,160.910309 405.362427,160.305862 420.526337,172.921646 
	C435.026611,184.985291 434.503052,204.015717 419.019440,214.964127 
	C405.947174,224.207550 391.615417,225.147705 376.338867,219.799133 
M372.207581,200.063873 
	C381.788696,210.552887 400.238098,212.113327 411.281525,203.368729 
	C418.892609,197.341980 418.849426,189.230667 411.174744,183.317703 
	C401.575897,175.922287 384.582825,176.072723 375.215454,183.636063 
	C369.575287,188.190018 368.555695,192.898163 372.207581,200.063873 
z"/>
<path fill="#402E2E" opacity="1.000000" stroke="none" 
	d="
M296.766052,202.790558 
	C284.010345,212.517624 267.294281,213.679459 254.387009,205.953461 
	C237.607285,195.909500 237.556229,175.374176 254.541901,165.639496 
	C266.695312,158.674225 279.432373,158.671982 291.727570,165.212570 
	C307.144928,173.414032 309.332916,190.103394 296.766052,202.790558 
M259.300842,192.182022 
	C267.775238,198.199387 278.680725,198.593033 286.270142,193.155518 
	C292.455231,188.724167 292.528137,183.021317 286.456512,178.581207 
	C279.369659,173.398697 267.281982,173.435364 260.222290,178.660782 
	C255.056854,182.484116 254.608658,186.421097 259.300842,192.182022 
z"/>
<path fill="#402E2E" opacity="1.000000" stroke="none" 
	d="
M324.848419,107.983467 
	C326.441376,101.876045 328.152710,100.560242 334.243713,100.759705 
	C348.235565,101.217888 360.291809,109.483467 363.065277,120.595146 
	C365.387726,129.899902 361.992676,137.320877 355.013397,143.243057 
	C342.668152,153.718491 321.534821,153.581192 309.198212,143.089890 
	C304.463989,139.063812 301.279816,134.125275 300.817322,127.751694 
	C300.360596,121.458008 302.572144,119.103317 309.856689,118.959885 
	C312.058716,121.357803 313.592957,123.560654 314.994354,125.845001 
	C316.339142,128.036957 317.080048,130.834030 318.896454,132.460480 
	C325.875397,138.709641 339.567902,138.359711 346.582367,132.114029 
	C350.836975,128.325714 351.308380,123.551994 346.631012,120.308548 
	C342.867218,117.698586 338.078674,116.020775 333.521576,115.251022 
	C328.782410,114.450516 325.753448,112.799767 324.848419,107.983467 
z"/>
<path fill="#FCC168" opacity="1.000000" stroke="none" 
	d="
M324.496277,108.055450 
	C325.753448,112.799767 328.782410,114.450516 333.521576,115.251022 
	C338.078674,116.020775 342.867218,117.698586 346.631012,120.308548 
	C351.308380,123.551994 350.836975,128.325714 346.582367,132.114029 
	C339.567902,138.359711 325.875397,138.709641 318.896454,132.460480 
	C317.080048,130.834030 316.339142,128.036957 314.994354,125.845001 
	C313.592957,123.560654 312.058716,121.357803 310.269287,118.944664 
	C312.867157,112.798538 318.047150,109.851730 324.496277,108.055450 
z"/>
<path fill="#443230" opacity="1.000000" stroke="none" 
	d="
M207.870590,229.009827 
	C206.022232,226.581772 203.641586,224.353577 203.334091,221.868820 
	C203.118652,220.127838 205.389099,216.934799 207.169998,216.378998 
	C209.429581,215.673828 213.144104,216.138458 214.700699,217.662170 
	C216.235214,219.164307 216.685394,222.812012 216.132263,225.171661 
	C215.248016,228.943939 211.941315,229.928482 207.870590,229.009827 
z"/>
<path fill="#FDA95E" opacity="1.000000" stroke="none" 
	d="
M195.048767,334.136658 
	C202.159515,326.814911 210.301636,324.807892 218.379852,328.148163 
	C225.764587,331.201630 230.606812,338.508545 230.608368,346.600861 
	C230.609970,354.916382 225.615921,362.215088 217.887970,365.191589 
	C209.656036,368.362152 200.366562,365.840576 194.966537,358.969666 
	C189.340240,351.810883 189.289612,342.830719 195.048767,334.136658 
z"/>
<path fill="#FCA85E" opacity="1.000000" stroke="none" 
	d="
M412.329865,323.618164 
	C407.511780,317.503357 406.775452,311.255707 410.505707,304.795166 
	C413.816711,299.060730 419.095612,296.498962 425.586304,297.127045 
	C432.280518,297.774811 436.941254,301.516846 439.257141,307.880280 
	C441.712708,314.627380 439.103333,322.111725 433.009979,326.266815 
	C426.622345,330.622498 419.425079,329.787628 412.329865,323.618164 
z"/>
<path fill="#FDC168" opacity="1.000000" stroke="none" 
	d="
M372.002747,199.740524 
	C368.555695,192.898163 369.575287,188.190018 375.215454,183.636063 
	C384.582825,176.072723 401.575897,175.922287 411.174744,183.317703 
	C418.849426,189.230667 418.892609,197.341980 411.281525,203.368729 
	C400.238098,212.113327 381.788696,210.552887 372.002747,199.740524 
z"/>
<path fill="#FCC168" opacity="1.000000" stroke="none" 
	d="
M259.020538,191.930328 
	C254.608658,186.421097 255.056854,182.484116 260.222290,178.660782 
	C267.281982,173.435364 279.369659,173.398697 286.456512,178.581207 
	C292.528137,183.021317 292.455231,188.724167 286.270142,193.155518 
	C278.680725,198.593033 267.775238,198.199387 259.020538,191.930328 
z"/>
</svg>