<svg version="1.1" id="Layer_1" xmlns="http://www.w3.org/2000/svg" xmlns:xlink="http://www.w3.org/1999/xlink" x="0px" y="0px"
	 width="100%" viewBox="0 0 512 512" enable-background="new 0 0 512 512" xml:space="preserve">
<path fill="#FFFFFF" opacity="1.000000" stroke="none" 
	d="
M1.000000,330.000000 
	C1.000000,220.381088 1.000000,110.762177 1.000000,1.071635 
	C171.544571,1.071635 342.089172,1.071635 513.000000,1.071635 
	C513.000000,52.688103 513.000000,104.377075 512.660889,156.447723 
	C505.292786,149.226242 498.933380,140.822189 491.054871,134.235092 
	C482.399170,126.998161 476.606445,128.889313 468.403259,136.270325 
	C462.897156,141.224518 458.220825,147.091171 453.048096,152.428299 
	C447.590332,158.059479 447.220734,167.477615 452.648926,173.105759 
	C459.005463,179.696381 465.614838,186.042511 472.016144,192.590881 
	C475.565521,196.221771 485.548767,196.624374 489.004791,193.315796 
	C497.227051,185.444366 505.028503,177.133377 513.000000,169.000000 
	C513.000000,283.618195 513.000000,398.236420 513.000000,512.927307 
	C342.453949,512.927307 171.907883,512.927307 1.000000,512.927307 
	C1.000000,456.311829 1.000000,399.622894 1.358911,342.573608 
	C3.200881,345.030182 4.126744,348.387695 6.253641,350.579926 
	C26.399895,371.345184 46.675232,391.986908 67.061806,412.516846 
	C90.782227,436.404083 114.679131,460.115997 138.441986,483.961243 
	C147.227921,492.777679 160.803970,492.805786 169.561310,483.947357 
	C201.500885,451.638916 233.476669,419.366272 265.437286,387.078674 
	C269.896118,382.574249 270.114441,380.766541 267.062164,374.771545 
	C270.839661,370.945923 274.471161,367.427216 278.440857,364.070068 
	C283.360077,366.672272 287.109253,365.575653 290.639709,361.919891 
	C297.234558,355.091064 303.991364,348.416229 310.766876,341.765045 
	C316.386078,336.248993 318.077789,329.366272 316.738617,322.041199 
	C316.241028,319.319641 316.478516,317.964508 318.253143,316.174316 
	C346.706360,287.471649 375.106628,258.716492 403.527496,229.981735 
	C407.510468,225.954773 411.539856,221.973785 415.545288,217.969040 
	C422.707703,210.807907 423.701813,204.824326 419.242981,195.652390 
	C412.534790,181.853638 409.136902,167.862747 414.886047,152.648758 
	C418.277679,143.673447 416.209503,135.573425 409.148529,128.563828 
	C380.301178,99.926384 351.471436,71.267181 323.010803,42.247627 
	C317.184509,36.306915 306.781006,36.406597 301.124359,42.129883 
	C262.011230,81.703598 222.544479,120.927696 183.234055,160.306747 
	C179.750610,163.796265 176.652954,167.670029 173.188019,171.179596 
	C172.436340,171.940948 170.785889,172.366776 169.700104,172.159119 
	C160.994217,170.494293 153.724487,172.559326 147.366013,179.042725 
	C119.182953,207.779510 90.863091,236.382523 62.520340,264.962158 
	C45.510944,282.113739 28.258877,299.026093 11.366302,316.291016 
	C7.391962,320.352966 4.428509,325.403992 1.000000,330.000000 
M443.447968,28.965977 
	C436.127197,21.415363 427.090363,21.851490 420.768921,27.854889 
	C411.845337,36.329575 403.197540,45.102768 394.621368,53.932457 
	C388.572754,60.159851 387.852417,68.506897 393.529999,74.861488 
	C402.236176,84.605721 411.447998,93.916695 420.750336,103.102600 
	C426.154266,108.438911 435.400787,109.202660 441.138397,103.875183 
	C450.737518,94.962173 460.344513,85.919624 468.804840,75.960342 
	C475.978424,67.515831 474.572662,60.066074 466.559174,52.049419 
	C459.031281,44.518600 451.502106,36.989059 443.447968,28.965977 
M467.000702,246.499985 
	C463.237732,242.737045 459.501892,238.946472 455.705170,235.217880 
	C450.527466,230.133133 442.700256,228.926056 437.173309,233.514008 
	C430.084625,239.398300 423.135193,245.679657 417.253632,252.730743 
	C409.902557,261.543549 412.060577,269.298004 419.222992,275.871094 
	C424.552551,280.762115 428.866486,286.781189 434.306793,291.524811 
	C441.146118,297.488281 449.119415,298.228424 455.688263,291.784119 
	C461.860626,285.728912 468.008209,279.643311 473.998474,273.409454 
	C477.712616,269.544250 478.653168,265.082092 477.309906,259.609436 
	C475.859161,253.698685 470.799927,251.154968 467.000702,246.499985 
z"/>
<path fill="#010101" opacity="1.000000" stroke="none" 
	d="
M266.916168,375.078430 
	C270.114441,380.766541 269.896118,382.574249 265.437286,387.078674 
	C233.476669,419.366272 201.500885,451.638916 169.561310,483.947357 
	C160.803970,492.805786 147.227921,492.777679 138.441986,483.961243 
	C114.679131,460.115997 90.782227,436.404083 67.061806,412.516846 
	C46.675232,391.986908 26.399895,371.345184 6.253641,350.579926 
	C4.126744,348.387695 3.200881,345.030182 1.358911,342.106628 
	C1.000000,338.307098 1.000000,334.614166 1.000000,330.460632 
	C4.428509,325.403992 7.391962,320.352966 11.366302,316.291016 
	C28.258877,299.026093 45.510944,282.113739 62.520340,264.962158 
	C90.863091,236.382523 119.182953,207.779510 147.366013,179.042725 
	C153.724487,172.559326 160.994217,170.494293 169.700104,172.159119 
	C170.785889,172.366776 172.436340,171.940948 173.188019,171.179596 
	C176.652954,167.670029 179.750610,163.796265 183.234055,160.306747 
	C222.544479,120.927696 262.011230,81.703598 301.124359,42.129883 
	C306.781006,36.406597 317.184509,36.306915 323.010803,42.247627 
	C351.471436,71.267181 380.301178,99.926384 409.148529,128.563828 
	C416.209503,135.573425 418.277679,143.673447 414.886047,152.648758 
	C409.136902,167.862747 412.534790,181.853638 419.242981,195.652390 
	C423.701813,204.824326 422.707703,210.807907 415.545288,217.969040 
	C411.539856,221.973785 407.510468,225.954773 403.527496,229.981735 
	C375.106628,258.716492 346.706360,287.471649 318.253143,316.174316 
	C316.478516,317.964508 316.241028,319.319641 316.738617,322.041199 
	C318.077789,329.366272 316.386078,336.248993 310.766876,341.765045 
	C303.991364,348.416229 297.234558,355.091064 290.639709,361.919891 
	C287.109253,365.575653 283.360077,366.672272 278.338196,363.704895 
	C274.530365,357.397949 274.827393,354.792847 279.561615,349.979797 
	C285.282257,344.163910 291.054321,338.398621 296.803314,332.610626 
	C302.685822,326.688263 302.698883,325.482513 296.889740,319.628998 
	C267.100891,289.612610 237.305481,259.602722 207.521332,229.581696 
	C201.924072,223.939911 201.647629,222.182358 205.466675,215.111328 
	C210.021011,215.187454 214.180481,215.331268 219.666122,215.520935 
	C229.463913,205.792664 240.613922,194.812576 251.574173,183.646240 
	C252.349869,182.855957 252.400040,180.045898 251.652130,179.271194 
	C244.602432,171.968918 237.305756,164.905075 229.924332,157.490219 
	C227.204575,154.608887 224.804291,151.808258 221.986435,149.522385 
	C221.028259,148.745087 218.325531,148.567734 217.592010,149.296280 
	C206.316330,160.495850 195.234421,171.890518 184.226547,183.118393 
	C187.612610,186.626816 190.708206,189.834290 193.914276,193.427841 
	C193.929535,197.200974 193.834305,200.588043 193.356445,204.131378 
	C188.558167,207.349930 184.639771,206.573669 181.010406,202.844482 
	C179.057220,200.837540 176.966263,198.964676 174.809616,196.724091 
	C173.271698,195.001816 171.860672,193.587708 170.451752,192.171494 
	C164.368149,186.056473 163.343201,186.053116 157.188522,192.255981 
	C111.665047,238.136032 66.144676,284.019165 20.626371,329.904327 
	C15.371478,335.201569 15.386825,336.837036 20.711641,342.205200 
	C42.414047,364.084290 64.118042,385.961792 85.824303,407.837067 
	C106.474594,428.648163 127.125191,449.458954 147.782852,470.262695 
	C153.307602,475.826508 154.705109,475.812592 160.335983,470.122314 
	C161.963715,468.477386 163.493744,466.735779 165.372345,464.902588 
	C194.633530,435.576965 223.586853,406.383118 252.552017,377.200989 
	C258.065308,371.646393 260.206848,371.355164 266.916168,375.078430 
M274.823883,113.312584 
	C271.488007,109.660835 268.152100,106.009087 264.656372,102.182365 
	C256.157806,110.590286 248.464783,118.142677 240.837784,125.761169 
	C230.390549,136.196701 230.412033,136.218216 242.059952,146.699799 
	C250.116272,154.065353 258.172577,161.430893 265.154297,167.813980 
	C275.457825,157.891663 286.559540,147.200699 297.446411,136.716614 
	C290.034393,129.121780 282.600342,121.504364 274.823883,113.312584 
M321.765594,64.226410 
	C318.561798,60.994228 315.358002,57.762047 312.071838,54.446735 
	C302.897278,63.581825 294.315430,72.097404 285.766632,80.646034 
	C274.364990,92.047455 274.375763,92.058800 286.580109,102.724083 
	C286.699036,102.828003 286.880035,102.860870 287.331329,103.522530 
	C294.650055,110.681442 301.968750,117.840355 308.805878,124.528191 
	C321.139771,112.338203 333.288147,100.331589 345.195618,88.563042 
	C337.572510,80.727287 329.822968,72.761536 321.765594,64.226410 
M265.567169,255.076126 
	C275.845398,244.934448 286.123657,234.792770 296.467804,224.586044 
	C292.479919,219.280228 284.957794,215.125198 290.716400,208.439209 
	C297.569855,200.482056 302.452637,209.005646 306.744507,211.916183 
	C318.064850,200.689026 328.895569,189.947449 339.013428,179.912872 
	C329.005432,169.964005 318.714050,159.733414 309.122803,150.198822 
	C298.874146,160.321548 288.030090,171.032349 277.130310,181.798187 
	C280.874695,187.688583 281.226471,191.378693 278.162842,194.451950 
	C274.712402,197.913254 271.648010,197.626129 266.239532,194.069199 
	C254.144135,206.028809 242.276352,217.763336 229.612366,230.285141 
	C239.709534,239.571396 250.322159,249.331726 261.641357,259.741882 
	C262.341461,258.890930 263.703766,257.235168 265.567169,255.076126 
M273.492432,273.884521 
	C284.068359,284.413605 294.644287,294.942657 304.662354,304.916351 
	C316.909027,292.840759 328.818268,281.097870 340.357391,269.719910 
	C329.322845,258.801788 318.057068,247.654861 306.694946,236.412613 
	C295.868317,247.123199 284.505737,258.302032 273.283783,269.620239 
	C272.613495,270.296295 273.068665,272.088257 273.492432,273.884521 
M386.927765,129.575500 
	C377.031952,119.618568 367.136108,109.661629 358.785797,101.259758 
	C345.592041,113.364746 333.028168,124.891869 321.084930,135.849533 
	C332.064636,146.753281 342.365448,156.982803 351.483398,166.037674 
	C362.979370,155.232437 374.976715,143.983032 386.900421,132.656113 
	C387.411224,132.170883 387.241882,130.969711 386.927765,129.575500 
M381.605896,220.928192 
	C371.332794,211.290756 361.059692,201.653320 351.714447,192.886353 
	C341.395691,202.903107 330.338562,213.636658 319.865753,223.802948 
	C331.052429,234.893768 342.324707,246.069458 352.105774,255.766678 
	C362.821259,245.858322 374.014709,235.507980 385.369049,225.008881 
	C384.091797,223.608871 383.099213,222.520920 381.605896,220.928192 
M398.013336,152.625214 
	C398.752319,149.626968 399.491302,146.628738 400.483124,142.604736 
	C387.360382,155.543823 375.316864,167.418793 363.641541,178.930710 
	C375.046051,190.168472 386.344116,201.301361 397.698090,212.489288 
	C405.937683,206.046555 405.907288,206.059509 401.652191,196.077042 
	C395.772034,182.282150 393.299713,168.169418 398.013336,152.625214 
z"/>
<path fill="#010100" opacity="1.000000" stroke="none" 
	d="
M513.000000,168.539352 
	C505.028503,177.133377 497.227051,185.444366 489.004791,193.315796 
	C485.548767,196.624374 475.565521,196.221771 472.016144,192.590881 
	C465.614838,186.042511 459.005463,179.696381 452.648926,173.105759 
	C447.220734,167.477615 447.590332,158.059479 453.048096,152.428299 
	C458.220825,147.091171 462.897156,141.224518 468.403259,136.270325 
	C476.606445,128.889313 482.399170,126.998161 491.054871,134.235092 
	C498.933380,140.822189 505.292786,149.226242 512.660889,156.914703 
	C513.000000,160.692902 513.000000,164.385818 513.000000,168.539352 
M483.046204,176.613861 
	C487.654510,172.363846 492.262848,168.113831 496.464935,164.238480 
	C490.582581,158.252380 485.649597,153.232376 481.321838,148.828278 
	C476.430206,153.578552 471.380341,158.482513 465.663849,164.033859 
	C470.028778,168.158264 474.544861,172.539536 479.233276,176.727936 
	C479.907288,177.330124 481.411530,177.003006 483.046204,176.613861 
z"/>
<path fill="#A9DCBF" opacity="1.000000" stroke="none" 
	d="
M205.071808,215.179001 
	C201.647629,222.182358 201.924072,223.939911 207.521332,229.581696 
	C237.305481,259.602722 267.100891,289.612610 296.889740,319.628998 
	C302.698883,325.482513 302.685822,326.688263 296.803314,332.610626 
	C291.054321,338.398621 285.282257,344.163910 279.561615,349.979797 
	C274.827393,354.792847 274.530365,357.397949 278.000031,363.543335 
	C274.471161,367.427216 270.839661,370.945923 267.062164,374.771545 
	C260.206848,371.355164 258.065308,371.646393 252.552017,377.200989 
	C223.586853,406.383118 194.633530,435.576965 165.067169,464.757141 
	C161.008728,461.373779 157.513519,458.045258 154.116623,454.619293 
	C118.025017,418.217743 81.945625,381.804077 45.872311,345.384430 
	C40.331650,339.790527 40.293728,332.394012 45.637100,326.829254 
	C51.850185,320.358704 57.874752,313.702301 64.207008,307.351776 
	C99.594940,271.861816 135.048340,236.437103 170.494400,201.005112 
	C171.897491,199.602570 173.452972,198.352432 174.937469,197.031311 
	C176.966263,198.964676 179.057220,200.837540 181.010406,202.844482 
	C184.639771,206.573669 188.558167,207.349930 193.545532,204.480194 
	C197.768784,208.174805 201.420288,211.676910 205.071808,215.179001 
M106.680244,381.713684 
	C110.603821,383.599182 114.469193,386.972443 118.460419,387.128571 
	C144.247086,388.137329 170.063904,388.940247 195.865372,388.800293 
	C212.123703,388.712097 225.119034,380.901428 233.089447,366.619781 
	C249.523193,337.173279 232.647522,301.629395 199.413544,294.910553 
	C196.896790,294.401733 195.685791,293.448273 194.841324,290.683044 
	C192.920731,284.393921 190.944153,277.884583 187.581482,272.315399 
	C174.910507,251.330063 146.918396,243.706802 125.470116,255.224518 
	C108.145493,264.527832 100.977585,279.895844 101.260231,298.973450 
	C101.615456,322.950378 102.236313,346.925690 103.065506,370.890564 
	C103.184898,374.341156 105.109001,377.729340 106.680244,381.713684 
z"/>
<path fill="#000000" opacity="1.000000" stroke="none" 
	d="
M443.710754,29.212460 
	C451.502106,36.989059 459.031281,44.518600 466.559174,52.049419 
	C474.572662,60.066074 475.978424,67.515831 468.804840,75.960342 
	C460.344513,85.919624 450.737518,94.962173 441.138397,103.875183 
	C435.400787,109.202660 426.154266,108.438911 420.750336,103.102600 
	C411.447998,93.916695 402.236176,84.605721 393.529999,74.861488 
	C387.852417,68.506897 388.572754,60.159851 394.621368,53.932457 
	C403.197540,45.102768 411.845337,36.329575 420.768921,27.854889 
	C427.090363,21.851490 436.127197,21.415363 443.710754,29.212460 
M407.200348,65.396973 
	C414.522736,73.106247 421.787933,80.871956 429.254089,88.439369 
	C430.018280,89.213898 432.647888,89.472847 433.295197,88.836029 
	C441.076538,81.180450 448.647095,73.310616 456.641235,65.119041 
	C448.601440,57.118393 441.135223,49.553799 433.429626,42.241497 
	C432.706665,41.555450 429.900452,41.872559 429.031982,42.719318 
	C421.649078,49.917652 414.491150,57.346718 407.200348,65.396973 
z"/>
<path fill="#010000" opacity="1.000000" stroke="none" 
	d="
M467.250946,246.750061 
	C470.799927,251.154968 475.859161,253.698685 477.309906,259.609436 
	C478.653168,265.082092 477.712616,269.544250 473.998474,273.409454 
	C468.008209,279.643311 461.860626,285.728912 455.688263,291.784119 
	C449.119415,298.228424 441.146118,297.488281 434.306793,291.524811 
	C428.866486,286.781189 424.552551,280.762115 419.222992,275.871094 
	C412.060577,269.298004 409.902557,261.543549 417.253632,252.730743 
	C423.135193,245.679657 430.084625,239.398300 437.173309,233.514008 
	C442.700256,228.926056 450.527466,230.133133 455.705170,235.217880 
	C459.501892,238.946472 463.237732,242.737045 467.250946,246.750061 
M446.555695,248.951843 
	C445.554260,249.004684 444.182007,248.651566 443.609802,249.174286 
	C438.849365,253.523010 434.236481,258.033234 429.888733,262.198059 
	C435.640167,268.028229 440.720947,273.178528 445.468475,277.991058 
	C450.290161,273.248199 455.353027,268.268127 461.030579,262.683411 
	C456.452057,258.340912 451.756287,253.887238 446.555695,248.951843 
z"/>
<path fill="#98C5AB" opacity="1.000000" stroke="none" 
	d="
M174.809601,196.724091 
	C173.452972,198.352432 171.897491,199.602570 170.494400,201.005112 
	C135.048340,236.437103 99.594940,271.861816 64.207008,307.351776 
	C57.874752,313.702301 51.850185,320.358704 45.637100,326.829254 
	C40.293728,332.394012 40.331650,339.790527 45.872311,345.384430 
	C81.945625,381.804077 118.025017,418.217743 154.116623,454.619293 
	C157.513519,458.045258 161.008728,461.373779 164.763443,464.893005 
	C163.493744,466.735779 161.963715,468.477386 160.335983,470.122314 
	C154.705109,475.812592 153.307602,475.826508 147.782852,470.262695 
	C127.125191,449.458954 106.474594,428.648163 85.824303,407.837067 
	C64.118042,385.961792 42.414047,364.084290 20.711641,342.205200 
	C15.386825,336.837036 15.371478,335.201569 20.626371,329.904327 
	C66.144676,284.019165 111.665047,238.136032 157.188522,192.255981 
	C163.343201,186.053116 164.368149,186.056473 170.451752,192.171494 
	C171.860672,193.587708 173.271698,195.001816 174.809601,196.724091 
z"/>
<path fill="#744B24" opacity="1.000000" stroke="none" 
	d="
M265.316620,255.327759 
	C263.703766,257.235168 262.341461,258.890930 261.641357,259.741882 
	C250.322159,249.331726 239.709534,239.571396 229.612366,230.285141 
	C242.276352,217.763336 254.144135,206.028809 266.239532,194.069199 
	C271.648010,197.626129 274.712402,197.913254 278.162842,194.451950 
	C281.226471,191.378693 280.874695,187.688583 277.130310,181.798187 
	C288.030090,171.032349 298.874146,160.321548 309.122803,150.198822 
	C318.714050,159.733414 329.005432,169.964005 339.013428,179.912872 
	C328.895569,189.947449 318.064850,200.689026 306.744507,211.916183 
	C302.452637,209.005646 297.569855,200.482056 290.716400,208.439209 
	C284.957794,215.125198 292.479919,219.280228 296.467804,224.586044 
	C286.123657,234.792770 275.845398,244.934448 265.316620,255.327759 
z"/>
<path fill="#734B23" opacity="1.000000" stroke="none" 
	d="
M273.246277,273.622742 
	C273.068665,272.088257 272.613495,270.296295 273.283783,269.620239 
	C284.505737,258.302032 295.868317,247.123199 306.694946,236.412613 
	C318.057068,247.654861 329.322845,258.801788 340.357391,269.719910 
	C328.818268,281.097870 316.909027,292.840759 304.662354,304.916351 
	C294.644287,294.942657 284.068359,284.413605 273.246277,273.622742 
z"/>
<path fill="#744B24" opacity="1.000000" stroke="none" 
	d="
M387.158569,129.838776 
	C387.241882,130.969711 387.411224,132.170883 386.900421,132.656113 
	C374.976715,143.983032 362.979370,155.232437 351.483398,166.037674 
	C342.365448,156.982803 332.064636,146.753281 321.084930,135.849533 
	C333.028168,124.891869 345.592041,113.364746 358.785797,101.259758 
	C367.136108,109.661629 377.031952,119.618568 387.158569,129.838776 
z"/>
<path fill="#744C24" opacity="1.000000" stroke="none" 
	d="
M381.856262,221.180573 
	C383.099213,222.520920 384.091797,223.608871 385.369049,225.008881 
	C374.014709,235.507980 362.821259,245.858322 352.105774,255.766678 
	C342.324707,246.069458 331.052429,234.893768 319.865753,223.802948 
	C330.338562,213.636658 341.395691,202.903107 351.714447,192.886353 
	C361.059692,201.653320 371.332794,211.290756 381.856262,221.180573 
z"/>
<path fill="#744C24" opacity="1.000000" stroke="none" 
	d="
M205.466675,215.111328 
	C201.420288,211.676910 197.768784,208.174805 193.928162,204.323914 
	C193.834305,200.588043 193.929535,197.200974 194.278091,193.390198 
	C195.952805,191.878906 197.526169,190.941422 198.771683,189.680191 
	C209.241913,179.077866 219.652100,168.416245 230.080338,157.772446 
	C237.305756,164.905075 244.602432,171.968918 251.652130,179.271194 
	C252.400040,180.045898 252.349869,182.855957 251.574173,183.646240 
	C240.613922,194.812576 229.463913,205.792664 219.666122,215.520935 
	C214.180481,215.331268 210.021011,215.187454 205.466675,215.111328 
z"/>
<path fill="#744C24" opacity="1.000000" stroke="none" 
	d="
M322.073425,64.795769 
	C329.822968,72.761536 337.572510,80.727287 345.195618,88.563042 
	C333.288147,100.331589 321.139771,112.338203 308.805878,124.528191 
	C301.968750,117.840355 294.650055,110.681442 287.210327,102.884766 
	C290.625122,98.100082 293.987976,93.789207 297.732300,89.840050 
	C305.741394,81.392754 313.947845,73.132584 322.073425,64.795769 
z"/>
<path fill="#734B23" opacity="1.000000" stroke="none" 
	d="
M275.166260,113.886963 
	C282.600342,121.504364 290.034393,129.121780 297.446411,136.716614 
	C286.559540,147.200699 275.457825,157.891663 265.154297,167.813980 
	C258.172577,161.430893 250.116272,154.065353 242.221710,146.261688 
	C244.189331,144.114883 246.019623,142.431183 247.796951,140.693344 
	C256.927551,131.765549 266.044525,122.823822 275.166260,113.886963 
z"/>
<path fill="#744B24" opacity="1.000000" stroke="none" 
	d="
M397.949402,153.033508 
	C393.299713,168.169418 395.772034,182.282150 401.652191,196.077042 
	C405.907288,206.059509 405.937683,206.046555 397.698090,212.489288 
	C386.344116,201.301361 375.046051,190.168472 363.641541,178.930710 
	C375.316864,167.418793 387.360382,155.543823 400.483124,142.604736 
	C399.491302,146.628738 398.752319,149.626968 397.949402,153.033508 
z"/>
<path fill="#684420" opacity="1.000000" stroke="none" 
	d="
M321.919495,64.511086 
	C313.947845,73.132584 305.741394,81.392754 297.732300,89.840050 
	C293.987976,93.789207 290.625122,98.100082 287.060730,102.586960 
	C286.880035,102.860870 286.699036,102.828003 286.580109,102.724083 
	C274.375763,92.058800 274.364990,92.047455 285.766632,80.646034 
	C294.315430,72.097404 302.897278,63.581825 312.071838,54.446735 
	C315.358002,57.762047 318.561798,60.994228 321.919495,64.511086 
z"/>
<path fill="#684320" opacity="1.000000" stroke="none" 
	d="
M229.924332,157.490219 
	C219.652100,168.416245 209.241913,179.077866 198.771683,189.680191 
	C197.526169,190.941422 195.952805,191.878906 194.167603,193.004120 
	C190.708206,189.834290 187.612610,186.626816 184.226547,183.118393 
	C195.234421,171.890518 206.316330,160.495850 217.592010,149.296280 
	C218.325531,148.567734 221.028259,148.745087 221.986435,149.522385 
	C224.804291,151.808258 227.204575,154.608887 229.924332,157.490219 
z"/>
<path fill="#684320" opacity="1.000000" stroke="none" 
	d="
M274.995056,113.599777 
	C266.044525,122.823822 256.927551,131.765549 247.796951,140.693344 
	C246.019623,142.431183 244.189331,144.114883 242.051605,145.964981 
	C230.412033,136.218216 230.390549,136.196701 240.837784,125.761169 
	C248.464783,118.142677 256.157806,110.590286 264.656372,102.182365 
	C268.152100,106.009087 271.488007,109.660835 274.995056,113.599777 
z"/>
<path fill="#754C24" opacity="1.000000" stroke="none" 
	d="
M482.788879,176.859894 
	C481.411530,177.003006 479.907288,177.330124 479.233276,176.727936 
	C474.544861,172.539536 470.028778,168.158264 465.663849,164.033859 
	C471.380341,158.482513 476.430206,153.578552 481.321838,148.828278 
	C485.649597,153.232376 490.582581,158.252380 496.464935,164.238480 
	C492.262848,168.113831 487.654510,172.363846 482.788879,176.859894 
z"/>
<path fill="#030202" opacity="1.000000" stroke="none" 
	d="
M106.439087,381.430054 
	C105.109001,377.729340 103.184898,374.341156 103.065506,370.890564 
	C102.236313,346.925690 101.615456,322.950378 101.260231,298.973450 
	C100.977585,279.895844 108.145493,264.527832 125.470116,255.224518 
	C146.918396,243.706802 174.910507,251.330063 187.581482,272.315399 
	C190.944153,277.884583 192.920731,284.393921 194.841324,290.683044 
	C195.685791,293.448273 196.896790,294.401733 199.413544,294.910553 
	C232.647522,301.629395 249.523193,337.173279 233.089447,366.619781 
	C225.119034,380.901428 212.123703,388.712097 195.865372,388.800293 
	C170.063904,388.940247 144.247086,388.137329 118.460419,387.128571 
	C114.469193,386.972443 110.603821,383.599182 106.439087,381.430054 
M143.903702,372.175385 
	C161.365616,372.490143 178.826721,372.962402 196.289780,373.049622 
	C204.364716,373.089966 211.090729,369.439484 216.304962,363.362030 
	C224.698044,353.579498 226.141174,342.402405 221.320267,330.726715 
	C216.470871,318.982086 207.542496,311.600922 194.738083,310.040802 
	C181.254745,308.397949 181.439072,308.646759 179.859970,295.419373 
	C178.593231,284.808563 173.519470,276.337036 163.632080,270.301208 
	C143.496292,258.120605 117.846169,270.311127 117.304764,293.546875 
	C116.735298,317.987152 117.988525,342.470276 118.476807,366.934021 
	C118.506256,368.409393 118.813866,369.879181 119.068314,371.981842 
	C127.101723,371.981842 135.052292,371.981842 143.903702,372.175385 
z"/>
<path fill="#5E3713" opacity="1.000000" stroke="none" 
	d="
M407.233032,65.051804 
	C414.491150,57.346718 421.649078,49.917652 429.031982,42.719318 
	C429.900452,41.872559 432.706665,41.555450 433.429626,42.241497 
	C441.135223,49.553799 448.601440,57.118393 456.641235,65.119041 
	C448.647095,73.310616 441.076538,81.180450 433.295197,88.836029 
	C432.647888,89.472847 430.018280,89.213898 429.254089,88.439369 
	C421.787933,80.871956 414.522736,73.106247 407.233032,65.051804 
z"/>
<path fill="#5E3713" opacity="1.000000" stroke="none" 
	d="
M446.808105,249.192688 
	C451.756287,253.887238 456.452057,258.340912 461.030579,262.683411 
	C455.353027,268.268127 450.290161,273.248199 445.468475,277.991058 
	C440.720947,273.178528 435.640167,268.028229 429.888733,262.198059 
	C434.236481,258.033234 438.849365,253.523010 443.609802,249.174286 
	C444.182007,248.651566 445.554260,249.004684 446.808105,249.192688 
z"/>
<path fill="#E74731" opacity="1.000000" stroke="none" 
	d="
M164.047318,270.853119 
	C173.519470,276.337036 178.593231,284.808563 179.859970,295.419373 
	C181.439072,308.646759 181.254745,308.397949 194.738083,310.040802 
	C207.542496,311.600922 216.470871,318.982086 221.320267,330.726715 
	C226.141174,342.402405 224.698044,353.579498 216.304962,363.362030 
	C211.090729,369.439484 204.364716,373.089966 196.289780,373.049622 
	C178.826721,372.962402 161.365616,372.490143 143.451996,371.611328 
	C142.668472,360.107635 142.198090,349.170013 142.042404,338.227875 
	C141.874374,326.417053 141.673538,314.588348 142.166656,302.795837 
	C142.352493,298.351379 144.098755,293.853790 145.736084,289.613007 
	C149.128586,280.826202 156.365509,275.571991 164.047318,270.853119 
z"/>
<path fill="#CF402C" opacity="1.000000" stroke="none" 
	d="
M163.839691,270.577148 
	C156.365509,275.571991 149.128586,280.826202 145.736084,289.613007 
	C144.098755,293.853790 142.352493,298.351379 142.166656,302.795837 
	C141.673538,314.588348 141.874374,326.417053 142.042404,338.227875 
	C142.198090,349.170013 142.668472,360.107635 143.001556,371.514526 
	C135.052292,371.981842 127.101723,371.981842 119.068314,371.981842 
	C118.813866,369.879181 118.506256,368.409393 118.476807,366.934021 
	C117.988525,342.470276 116.735298,317.987152 117.304764,293.546875 
	C117.846169,270.311127 143.496292,258.120605 163.839691,270.577148 
z"/>
</svg>