<svg version="1.1" id="Layer_1" xmlns="http://www.w3.org/2000/svg" xmlns:xlink="http://www.w3.org/1999/xlink" x="0px" y="0px"
	 width="100%" viewBox="0 0 608 608" enable-background="new 0 0 608 608" xml:space="preserve">
<path fill="#000000" opacity="1.000000" stroke="none" 
	d="
M366.539978,530.890869 
	C357.183136,531.849792 348.442169,530.934143 339.920898,528.303772 
	C324.117096,523.425476 317.945282,510.821014 325.031555,495.853790 
	C332.083496,480.959106 341.507263,467.792542 356.449097,459.335205 
	C373.543884,449.659180 387.957153,437.386841 396.581268,418.900726 
	C401.394104,408.584229 410.380341,401.137817 420.405457,396.048767 
	C431.805664,390.261688 441.259125,382.473907 449.611328,373.053619 
	C449.721771,372.929047 449.841003,372.812073 449.959839,372.695282 
	C454.819733,367.920990 459.806213,363.516296 467.468384,365.765350 
	C476.119690,368.304749 480.364990,374.534027 482.316162,382.926453 
	C486.450226,400.708069 483.068787,417.600830 476.636505,434.202759 
	C467.364227,458.134674 453.966003,479.416138 435.685577,497.469940 
	C416.596344,516.322632 393.922058,528.001831 366.539978,530.890869 
z"/>
<path fill="#000000" opacity="1.000000" stroke="none" 
	d="
M444.467651,253.467575 
	C424.334045,273.614838 401.010529,287.055359 372.818298,290.753448 
	C358.797516,292.592621 344.874237,291.561432 331.649933,285.871307 
	C317.115601,279.617432 312.126404,266.318542 320.217773,252.689331 
	C328.833679,238.176620 340.135590,226.129272 356.139282,219.192459 
	C374.347687,211.300018 390.053009,200.453903 400.727051,182.922623 
	C406.790009,172.964676 417.047302,167.249481 427.617645,162.942673 
	C438.400238,158.549362 448.456024,153.310486 456.598907,144.833282 
	C457.287537,144.116364 458.086639,143.494812 458.884033,142.894867 
	C464.580933,138.608398 470.588318,135.596756 477.817383,139.036118 
	C485.390045,142.638947 488.334778,149.251221 489.327148,157.111618 
	C491.944855,177.845566 484.877991,196.144821 474.924927,213.625427 
	C466.649719,228.159195 456.875793,241.613998 444.467651,253.467575 
z"/>
<path fill="#000000" opacity="1.000000" stroke="none" 
	d="
M226.233139,241.742462 
	C245.059448,259.151184 260.517914,278.658051 269.804779,302.365417 
	C280.615326,329.962372 283.090149,357.844452 270.319122,385.704163 
	C268.641632,389.363495 266.559448,392.756378 263.889191,395.773193 
	C254.505508,406.374725 241.705841,407.596283 231.244064,398.047791 
	C218.881317,386.764252 209.550552,373.405762 205.434082,356.748444 
	C203.164856,347.566132 200.886444,338.337219 196.732483,329.710022 
	C193.660919,323.330750 189.946014,317.340942 184.788574,312.587982 
	C172.215210,301.000671 165.477570,286.561249 162.788849,269.966949 
	C161.272064,260.605682 157.734070,252.087173 152.468323,244.227386 
	C151.273087,242.443359 150.273483,240.492859 149.430634,238.513870 
	C143.829102,225.361679 151.473862,213.887726 165.859283,213.633545 
	C183.159714,213.327866 197.973007,219.972321 211.556259,229.941513 
	C216.516891,233.582275 221.171677,237.639755 226.233139,241.742462 
z"/>
<path fill="#000000" opacity="1.000000" stroke="none" 
	d="
M433.275574,336.517029 
	C438.316925,337.970276 442.858215,339.567963 447.060486,342.021729 
	C455.171112,346.757660 457.744110,353.795074 453.862671,362.392059 
	C449.806244,371.376770 443.976410,379.002472 434.749176,383.344940 
	C420.473236,390.063354 407.291168,398.315582 396.471802,409.997437 
	C393.057007,413.684448 389.827057,417.555786 387.751556,422.112244 
	C382.702393,433.196808 374.471954,441.382690 364.033600,447.009247 
	C345.376923,457.065704 331.584991,471.629089 321.390411,489.975128 
	C318.555054,495.077637 315.476501,500.522766 308.473419,500.211914 
	C301.627380,499.908020 298.731232,494.373077 295.983917,489.250214 
	C285.490570,469.683441 285.974396,449.216125 292.073181,428.653351 
	C303.464600,390.245728 329.399719,364.563263 364.678558,347.475433 
	C382.270996,338.954254 400.800598,334.057831 420.549011,334.700562 
	C424.726807,334.836517 428.862762,335.159607 433.275574,336.517029 
z"/>
<path fill="#000000" opacity="1.000000" stroke="none" 
	d="
M289.016174,202.394104 
	C297.855927,160.999176 323.470612,133.833588 360.017700,115.813675 
	C380.815277,105.559212 402.822418,100.275322 426.135101,101.741196 
	C436.856628,102.415344 447.166534,104.864349 456.401337,110.768364 
	C467.148132,117.639053 468.730591,125.717804 461.738007,136.366318 
	C455.757629,145.473358 447.106750,150.631989 437.174042,154.207626 
	C421.318909,159.915237 406.841888,167.866089 395.258087,180.418182 
	C394.356842,181.394745 393.356537,182.345917 392.713501,183.484650 
	C385.295258,196.621170 373.605743,204.502151 360.072937,210.114944 
	C342.247772,217.507980 328.891357,230.184265 317.982513,245.726288 
	C316.240601,248.208054 314.415588,250.551712 311.901642,252.255737 
	C305.807404,256.386627 300.629547,255.552002 296.426971,249.504547 
	C290.222290,240.576019 288.472015,230.274094 287.710724,219.717972 
	C287.300323,214.027466 288.324341,208.436569 289.016174,202.394104 
z"/>
<path fill="#000000" opacity="1.000000" stroke="none" 
	d="
M151.089508,404.981934 
	C124.213539,384.217560 109.452957,356.578888 102.735626,324.205078 
	C98.235680,302.517914 98.101242,280.901001 104.924965,259.591400 
	C107.919670,250.239334 112.849693,241.966934 120.131905,235.284012 
	C128.126450,227.947357 134.911713,228.190811 142.971161,235.397842 
	C152.125824,243.584259 155.335464,254.345108 157.293411,265.906921 
	C160.626740,285.590271 166.931488,303.862549 181.924057,318.212921 
	C191.374649,327.258759 194.510193,339.607056 197.204758,351.831360 
	C201.054169,369.294983 209.969284,383.844666 221.807709,396.855438 
	C224.499893,399.814209 227.331818,402.609100 228.965912,406.385559 
	C231.766479,412.857788 229.955231,417.918945 223.452484,420.571381 
	C209.482803,426.269470 195.445877,424.857941 181.394348,420.754181 
	C170.358734,417.531250 160.679718,411.738434 151.089508,404.981934 
z"/>
</svg>