<svg width="67" height="24" viewBox="0 0 67 24" fill="none" xmlns="http://www.w3.org/2000/svg">
<path fill-rule="evenodd" clip-rule="evenodd" d="M3 10.25C3 6.246 6.246 3 10.25 3H13.75C17.754 3 21 6.246 21 10.25C21 14.254 17.754 17.5 13.75 17.5H13.4V21C13.4 21 3 19.25 3 10.25ZM13.8455 6.241C14.3605 6.583 14.749 7.1375 14.749 7.881C14.749 8.67 14.4305 9.25 13.915 9.605C13.7116 9.74297 13.4869 9.84667 13.25 9.912V10.678C13.25 10.7765 13.2306 10.874 13.1929 10.965C13.1552 11.056 13.1 11.1387 13.0303 11.2083C12.9607 11.278 12.878 11.3332 12.787 11.3709C12.696 11.4086 12.5985 11.428 12.5 11.428C12.4015 11.428 12.304 11.4086 12.213 11.3709C12.122 11.3332 12.0393 11.278 11.9697 11.2083C11.9 11.1387 11.8448 11.056 11.8071 10.965C11.7694 10.874 11.75 10.7765 11.75 10.678V9.2795C11.75 9.08921 11.8222 8.90602 11.9522 8.76705C12.0822 8.62807 12.2601 8.54369 12.45 8.531C12.727 8.5125 12.937 8.4575 13.064 8.37C13.1153 8.336 13.1566 8.28909 13.184 8.234C13.214 8.174 13.249 8.067 13.249 7.8805C13.249 7.7245 13.1875 7.6045 13.015 7.4895C12.819 7.3595 12.504 7.2635 12.1255 7.2515C11.7515 7.2395 11.388 7.3125 11.1205 7.442C10.8525 7.572 10.7545 7.718 10.7265 7.8255C10.7038 7.92279 10.6619 8.01456 10.6033 8.09543C10.5446 8.17631 10.4704 8.24465 10.385 8.29645C10.2996 8.34825 10.2047 8.38247 10.1059 8.39709C10.0071 8.41171 9.90631 8.40645 9.80955 8.3816C9.71279 8.35675 9.62198 8.31283 9.54243 8.2524C9.46288 8.19197 9.3962 8.11626 9.34632 8.02972C9.29643 7.94317 9.26433 7.84753 9.25192 7.7484C9.2395 7.64928 9.24701 7.54868 9.274 7.4525C9.446 6.782 9.948 6.344 10.4665 6.0925C10.9865 5.84 11.598 5.7335 12.1735 5.752C12.7445 5.77 13.3545 5.914 13.8455 6.241ZM12.5 14.5C12.7652 14.5 13.0196 14.3946 13.2071 14.2071C13.3946 14.0196 13.5 13.7652 13.5 13.5C13.5 13.2348 13.3946 12.9804 13.2071 12.7929C13.0196 12.6054 12.7652 12.5 12.5 12.5C12.2348 12.5 11.9804 12.6054 11.7929 12.7929C11.6054 12.9804 11.5 13.2348 11.5 13.5C11.5 13.7652 11.6054 14.0196 11.7929 14.2071C11.9804 14.3946 12.2348 14.5 12.5 14.5Z" fill="white"/>
<path d="M40.0227 10C39.929 9.71307 39.8054 9.45597 39.652 9.22869C39.5014 8.99858 39.321 8.80256 39.1108 8.64062C38.9034 8.47869 38.6676 8.35511 38.4034 8.26989C38.1392 8.18466 37.8494 8.14205 37.5341 8.14205C37.017 8.14205 36.5469 8.27557 36.1236 8.54261C35.7003 8.80966 35.3636 9.20312 35.1136 9.72301C34.8636 10.2429 34.7386 10.8807 34.7386 11.6364C34.7386 12.392 34.8651 13.0298 35.1179 13.5497C35.3707 14.0696 35.7131 14.4631 36.1449 14.7301C36.5767 14.9972 37.0625 15.1307 37.6023 15.1307C38.1023 15.1307 38.5426 15.0241 38.9233 14.8111C39.3068 14.5952 39.6051 14.2912 39.8182 13.8991C40.0341 13.5043 40.142 13.0398 40.142 12.5057L40.4659 12.5739H37.8409V11.6364H41.1648V12.5739C41.1648 13.2926 41.0114 13.9176 40.7045 14.4489C40.4006 14.9801 39.9801 15.392 39.4432 15.6847C38.9091 15.9744 38.2955 16.1193 37.6023 16.1193C36.8295 16.1193 36.1506 15.9375 35.5653 15.5739C34.983 15.2102 34.5284 14.6932 34.2017 14.0227C33.8778 13.3523 33.7159 12.5568 33.7159 11.6364C33.7159 10.946 33.8082 10.3253 33.9929 9.77415C34.1804 9.22017 34.4446 8.74858 34.7855 8.35938C35.1264 7.97017 35.5298 7.67188 35.9957 7.46449C36.4616 7.2571 36.9744 7.15341 37.5341 7.15341C37.9943 7.15341 38.4233 7.22301 38.821 7.36222C39.2216 7.49858 39.5781 7.69318 39.8906 7.94602C40.206 8.19602 40.4688 8.49574 40.679 8.84517C40.8892 9.19176 41.0341 9.5767 41.1136 10H40.0227ZM46.9634 13.3239V9.45455H47.9691V16H46.9634V14.892H46.8952C46.7418 15.2244 46.5032 15.5071 46.1793 15.7401C45.8555 15.9702 45.4464 16.0852 44.9521 16.0852C44.543 16.0852 44.1793 15.9957 43.8612 15.8168C43.543 15.6349 43.293 15.3622 43.1112 14.9986C42.9293 14.6321 42.8384 14.1705 42.8384 13.6136V9.45455H43.8441V13.5455C43.8441 14.0227 43.9776 14.4034 44.2447 14.6875C44.5146 14.9716 44.8583 15.1136 45.2759 15.1136C45.5259 15.1136 45.7802 15.0497 46.0387 14.9219C46.3001 14.794 46.5188 14.598 46.695 14.3338C46.8739 14.0696 46.9634 13.733 46.9634 13.3239ZM49.8111 16V9.45455H50.8168V16H49.8111ZM50.3224 8.36364C50.1264 8.36364 49.9574 8.29688 49.8153 8.16335C49.6761 8.02983 49.6065 7.86932 49.6065 7.68182C49.6065 7.49432 49.6761 7.33381 49.8153 7.20028C49.9574 7.06676 50.1264 7 50.3224 7C50.5185 7 50.6861 7.06676 50.8253 7.20028C50.9673 7.33381 51.0384 7.49432 51.0384 7.68182C51.0384 7.86932 50.9673 8.02983 50.8253 8.16335C50.6861 8.29688 50.5185 8.36364 50.3224 8.36364ZM55.1303 16.1364C54.5849 16.1364 54.1033 15.9986 53.6857 15.723C53.2681 15.4446 52.9414 15.0526 52.7056 14.5469C52.4698 14.0384 52.3519 13.4375 52.3519 12.7443C52.3519 12.0568 52.4698 11.4602 52.7056 10.9545C52.9414 10.4489 53.2695 10.0582 53.69 9.78267C54.1104 9.5071 54.5962 9.36932 55.1474 9.36932C55.5735 9.36932 55.9102 9.44034 56.1573 9.58239C56.4073 9.72159 56.5977 9.88068 56.7283 10.0597C56.8619 10.2358 56.9656 10.3807 57.0394 10.4943H57.1246V7.27273H58.1303V16H57.1587V14.9943H57.0394C56.9656 15.1136 56.8604 15.2642 56.7241 15.446C56.5877 15.625 56.3931 15.7855 56.1403 15.9276C55.8874 16.0668 55.5508 16.1364 55.1303 16.1364ZM55.2667 15.233C55.6701 15.233 56.011 15.1278 56.2894 14.9176C56.5678 14.7045 56.7795 14.4105 56.9244 14.0355C57.0692 13.6577 57.1417 13.2216 57.1417 12.7273C57.1417 12.2386 57.0707 11.8111 56.9286 11.4446C56.7866 11.0753 56.5763 10.7884 56.2979 10.5838C56.0195 10.3764 55.6758 10.2727 55.2667 10.2727C54.8406 10.2727 54.4854 10.3821 54.2013 10.6009C53.9201 10.8168 53.7085 11.1108 53.5664 11.483C53.4272 11.8523 53.3576 12.267 53.3576 12.7273C53.3576 13.1932 53.4286 13.6165 53.5707 13.9972C53.7156 14.375 53.9286 14.6761 54.2099 14.9006C54.494 15.1222 54.8462 15.233 55.2667 15.233ZM62.8562 16.1364C62.2255 16.1364 61.6815 15.9972 61.2241 15.7188C60.7695 15.4375 60.4187 15.0455 60.1715 14.5426C59.9272 14.0369 59.805 13.4489 59.805 12.7784C59.805 12.108 59.9272 11.517 60.1715 11.0057C60.4187 10.4915 60.7624 10.0909 61.2028 9.80398C61.646 9.5142 62.163 9.36932 62.7539 9.36932C63.0948 9.36932 63.4315 9.42614 63.7638 9.53977C64.0962 9.65341 64.3988 9.83807 64.6715 10.0938C64.9442 10.3466 65.1616 10.6818 65.3235 11.0994C65.4854 11.517 65.5664 12.0312 65.5664 12.642V13.0682H60.521V12.1989H64.5437C64.5437 11.8295 64.4698 11.5 64.3221 11.2102C64.1772 10.9205 63.9698 10.6918 63.6999 10.5241C63.4329 10.3565 63.1175 10.2727 62.7539 10.2727C62.3533 10.2727 62.0067 10.3722 61.7141 10.571C61.4244 10.767 61.2013 11.0227 61.0451 11.3381C60.8888 11.6534 60.8107 11.9915 60.8107 12.3523V12.9318C60.8107 13.4261 60.896 13.8452 61.0664 14.1889C61.2397 14.5298 61.4798 14.7898 61.7866 14.9688C62.0934 15.1449 62.4499 15.233 62.8562 15.233C63.1204 15.233 63.359 15.196 63.5721 15.1222C63.788 15.0455 63.9741 14.9318 64.1303 14.7812C64.2866 14.6278 64.4073 14.4375 64.4925 14.2102L65.4641 14.483C65.3619 14.8125 65.19 15.1023 64.9485 15.3523C64.707 15.5994 64.4087 15.7926 64.0536 15.9318C63.6985 16.0682 63.2994 16.1364 62.8562 16.1364Z" fill="white"/>
</svg>
