<svg version="1.1" id="Layer_1" xmlns="http://www.w3.org/2000/svg" xmlns:xlink="http://www.w3.org/1999/xlink" x="0px" y="0px"
	 width="100%" viewBox="0 0 225 225" enable-background="new 0 0 225 225" xml:space="preserve">
<path fill="#FEFEFE" opacity="1.000000" stroke="none" 
	d="
M226.000000,65.000000 
	C226.000000,118.619202 226.000000,172.238403 226.000000,225.928802 
	C151.113861,225.928802 76.227631,225.928802 1.000000,225.928802 
	C1.000000,189.979828 1.000000,153.958572 1.363101,117.608170 
	C3.286166,122.682175 4.954624,128.057480 6.351264,133.502533 
	C6.889715,135.601761 7.284321,137.938126 6.936516,140.032272 
	C4.516641,154.602356 14.491880,168.392059 28.819422,167.602753 
	C36.635929,167.172150 43.317837,169.024384 50.353088,171.032257 
	C52.098194,171.530319 53.904194,171.877258 55.706089,172.103043 
	C62.590397,172.965668 69.802864,172.624207 74.622856,179.316925 
	C75.715729,180.834427 78.440308,181.111633 80.299782,182.161682 
	C81.951096,183.094208 83.789093,184.022873 84.955170,185.438751 
	C101.355209,205.352173 122.224251,214.863235 148.044128,212.057083 
	C155.046677,211.296036 161.860321,208.816925 168.767639,207.155334 
	C183.721054,203.558197 195.152710,195.000778 203.336594,182.150925 
	C204.272171,180.681961 203.470840,178.106750 203.637497,175.700653 
	C204.994675,172.273941 206.189240,169.191055 207.754150,166.090240 
	C209.418701,164.836441 211.710953,163.699371 211.844604,162.348694 
	C212.691162,153.792984 213.900055,145.140167 213.393997,136.614059 
	C212.591400,123.091103 207.091904,110.957336 199.700104,100.464294 
	C204.941956,94.888969 210.456558,89.997826 214.739517,84.197250 
	C219.121674,78.262344 222.296631,71.436089 226.000000,65.000000 
z"/>
<path fill="#FEFEFE" opacity="1.000000" stroke="none" 
	d="
M1.000000,96.000000 
	C1.000000,64.369720 1.000000,32.739449 1.000000,1.054586 
	C75.877388,1.054586 150.754822,1.054586 226.000000,1.054586 
	C226.000000,21.019394 226.000000,41.041039 225.663269,61.445526 
	C220.725708,59.459244 216.205566,56.903427 211.466003,54.855362 
	C210.314972,54.357979 208.441467,55.532482 206.530579,55.927578 
	C204.476196,55.561142 202.791443,55.205357 201.037659,54.486198 
	C199.293274,52.809204 197.796768,50.856728 195.902115,50.326214 
	C192.773514,49.450176 189.387848,49.492157 186.863480,49.226490 
	C184.506042,39.741405 182.266922,30.770754 180.049606,21.794716 
	C178.943130,17.315460 176.474838,15.784192 172.010315,17.682976 
	C164.438599,20.903267 156.799911,23.966087 148.927841,27.202635 
	C142.719772,20.820074 134.790741,18.251213 125.337135,20.605610 
	C124.204849,20.887608 122.757309,20.471336 121.602272,20.011240 
	C94.277359,9.126707 68.852097,14.218963 44.730148,29.320827 
	C43.251957,30.246267 42.922394,33.006386 41.784367,35.113899 
	C38.928135,37.567413 36.345932,39.819893 33.434433,41.970245 
	C30.306326,39.739429 28.840590,42.127354 27.323435,43.719837 
	C16.990196,54.566113 9.408925,67.076042 4.996168,81.422768 
	C3.515660,86.236183 2.323797,91.138382 1.000000,96.000000 
z"/>
<path fill="#060603" opacity="1.000000" stroke="none" 
	d="
M42.058399,34.912865 
	C42.922394,33.006386 43.251957,30.246267 44.730148,29.320827 
	C68.852097,14.218963 94.277359,9.126707 121.602272,20.011240 
	C122.757309,20.471336 124.204849,20.887608 125.337135,20.605610 
	C134.790741,18.251213 142.719772,20.820074 148.927841,27.202635 
	C156.799911,23.966087 164.438599,20.903267 172.010315,17.682976 
	C176.474838,15.784192 178.943130,17.315460 180.049606,21.794716 
	C182.266922,30.770754 184.506042,39.741405 186.863480,49.226490 
	C189.387848,49.492157 192.773514,49.450176 195.902115,50.326214 
	C197.796768,50.856728 199.293274,52.809204 200.703522,54.663391 
	C198.806442,55.696598 197.184998,56.549286 195.540131,56.597115 
	C193.100235,56.668072 190.617264,55.852283 188.206116,56.053818 
	C187.099930,56.146275 185.613510,57.564163 185.168411,58.716579 
	C182.698257,65.112045 180.495193,71.610664 177.968353,78.323898 
	C177.721527,79.274414 177.408081,80.366081 177.736984,80.617516 
	C183.616547,85.112373 189.573944,89.505386 195.921127,94.222397 
	C205.839050,86.669434 213.914261,77.385956 217.809906,64.708817 
	C215.059265,63.247211 212.265457,62.401764 210.018188,60.792923 
	C208.565094,59.752640 207.911850,57.595100 206.900177,55.938225 
	C208.441467,55.532482 210.314972,54.357979 211.466003,54.855362 
	C216.205566,56.903427 220.725708,59.459244 225.663269,61.914185 
	C226.000000,62.750000 226.000000,63.500000 226.000000,64.625000 
	C222.296631,71.436089 219.121674,78.262344 214.739517,84.197250 
	C210.456558,89.997826 204.941956,94.888969 199.700104,100.464294 
	C207.091904,110.957336 212.591400,123.091103 213.393997,136.614059 
	C213.900055,145.140167 212.691162,153.792984 211.844604,162.348694 
	C211.710953,163.699371 209.418701,164.836441 207.453369,165.765976 
	C206.581955,163.423569 205.887878,161.293106 206.256134,159.365631 
	C211.070160,134.169464 204.352692,112.456093 186.014496,94.734680 
	C156.103378,65.829559 110.358093,77.479195 98.177086,117.189430 
	C91.006660,140.565094 95.985893,162.159378 111.493866,180.805130 
	C136.874222,211.320724 179.020935,209.246048 198.616531,178.339874 
	C199.426895,177.061768 201.819427,176.786789 203.474854,176.044464 
	C203.470840,178.106750 204.272171,180.681961 203.336594,182.150925 
	C195.152710,195.000778 183.721054,203.558197 168.767639,207.155334 
	C161.860321,208.816925 155.046677,211.296036 148.044128,212.057083 
	C122.224251,214.863235 101.355209,205.352173 84.955170,185.438751 
	C83.789093,184.022873 81.951096,183.094208 80.299782,182.161682 
	C78.440308,181.111633 75.715729,180.834427 74.622856,179.316925 
	C69.802864,172.624207 62.590397,172.965668 55.706089,172.103043 
	C53.904194,171.877258 52.098194,171.530319 50.353088,171.032257 
	C43.317837,169.024384 36.635929,167.172150 28.819422,167.602753 
	C14.491880,168.392059 4.516641,154.602356 6.936516,140.032272 
	C7.284321,137.938126 6.889715,135.601761 6.351264,133.502533 
	C4.954624,128.057480 3.286166,122.682175 1.363101,117.139511 
	C1.000000,110.312355 1.000000,103.624710 1.000000,96.468536 
	C2.323797,91.138382 3.515660,86.236183 4.996168,81.422768 
	C9.408925,67.076042 16.990196,54.566113 27.323435,43.719837 
	C28.840590,42.127354 30.306326,39.739429 33.515553,42.353577 
	C33.348518,44.449276 33.108746,46.311405 32.130562,47.622711 
	C29.150150,51.618099 25.521542,55.161636 22.790909,59.306427 
	C7.434409,82.615883 1.927019,107.217819 13.418782,133.985275 
	C14.170039,135.735153 13.891592,138.194672 13.415997,140.160522 
	C10.215454,153.389893 21.263443,164.278412 34.411877,160.937073 
	C36.582310,160.385529 39.324585,160.551758 41.390709,161.395218 
	C49.135597,164.556885 57.017315,166.694763 65.315125,166.812973 
	C65.573830,163.303894 64.756012,159.545303 66.219414,157.226257 
	C71.394424,149.025421 70.401810,139.792160 71.845886,130.959244 
	C72.432007,127.374138 73.391739,123.816422 74.530205,120.361137 
	C79.565262,105.079605 89.596352,93.589684 102.656799,84.098465 
	C111.126015,80.436058 119.270584,76.878105 128.007111,73.061562 
	C123.814873,56.391479 131.108154,42.866795 144.175354,31.546640 
	C138.816574,26.332581 133.007416,24.816566 126.103371,26.913336 
	C124.415634,27.425903 122.154732,27.215519 120.505531,26.516302 
	C95.217865,15.795037 71.579697,19.779238 48.709667,34.300865 
	C46.266151,34.539146 44.162273,34.726006 42.058399,34.912865 
M172.739777,24.657280 
	C172.739777,24.657280 172.657288,24.698061 171.895279,24.720528 
	C164.259247,28.649254 156.013214,31.733265 149.129654,36.704010 
	C138.715363,44.224323 131.927124,54.286030 133.876251,68.245422 
	C134.335342,71.533318 135.197342,73.469894 139.100937,73.067932 
	C143.058609,72.660385 147.078827,72.860184 151.931198,72.906822 
	C156.337784,73.666222 161.083511,73.645538 165.067276,75.377518 
	C170.345978,77.672485 172.585464,75.595139 174.585052,71.313492 
	C181.852905,55.751148 179.678085,40.300663 173.968567,24.445673 
	C173.588943,24.509716 173.209335,24.573761 172.739777,24.657280 
M89.947472,147.374725 
	C86.740273,126.923576 91.576103,108.450424 104.091347,91.823669 
	C103.000824,91.978668 102.394844,92.257683 101.889580,92.662430 
	C85.073143,106.133339 76.809799,123.613503 76.888191,145.194336 
	C76.898598,148.058594 75.858757,151.291260 74.318039,153.729462 
	C69.327583,161.626938 71.897362,172.685196 80.643608,175.365799 
	C85.916870,176.981995 89.099800,179.903397 92.072922,183.980377 
	C93.724770,186.245529 95.822113,188.236343 97.935211,190.106064 
	C108.357079,199.327713 120.398087,204.824295 134.488693,205.711304 
	C109.385666,194.420654 95.118614,174.890793 89.947472,147.374725 
z"/>
<path fill="#EEC831" opacity="1.000000" stroke="none" 
	d="
M203.637482,175.700638 
	C201.819427,176.786789 199.426895,177.061768 198.616531,178.339874 
	C179.020935,209.246048 136.874222,211.320724 111.493866,180.805130 
	C95.985893,162.159378 91.006660,140.565094 98.177086,117.189430 
	C110.358093,77.479195 156.103378,65.829559 186.014496,94.734680 
	C204.352692,112.456093 211.070160,134.169464 206.256134,159.365631 
	C205.887878,161.293106 206.581955,163.423569 207.083008,165.783936 
	C206.189240,169.191055 204.994675,172.273941 203.637482,175.700638 
M105.901497,165.520554 
	C111.510788,172.452972 116.226479,180.429504 122.888885,186.131409 
	C147.624756,207.301285 183.415543,199.611649 198.112946,170.608353 
	C212.771378,141.681946 199.676788,102.747246 170.468079,88.410690 
	C145.880936,76.342552 118.235596,85.284111 105.689445,109.581139 
	C96.224648,127.910751 97.134819,146.408890 105.901497,165.520554 
z"/>
<path fill="#CEAD2A" opacity="1.000000" stroke="none" 
	d="
M102.332146,84.202919 
	C89.596352,93.589684 79.565262,105.079605 74.530205,120.361137 
	C73.391739,123.816422 72.432007,127.374138 71.845886,130.959244 
	C70.401810,139.792160 71.394424,149.025421 66.219414,157.226257 
	C64.756012,159.545303 65.573830,163.303894 65.315125,166.812973 
	C57.017315,166.694763 49.135597,164.556885 41.390709,161.395218 
	C39.324585,160.551758 36.582310,160.385529 34.411877,160.937073 
	C21.263443,164.278412 10.215454,153.389893 13.415997,140.160522 
	C13.891592,138.194672 14.170039,135.735153 13.418782,133.985275 
	C1.927019,107.217819 7.434409,82.615883 22.790909,59.306427 
	C25.521542,55.161636 29.150150,51.618099 32.130562,47.622711 
	C33.108746,46.311405 33.348518,44.449276 33.844849,42.455704 
	C36.345932,39.819893 38.928135,37.567413 41.784367,35.113899 
	C44.162273,34.726006 46.266151,34.539146 48.708374,34.650192 
	C48.751785,35.708847 48.570442,36.540878 48.144642,37.219524 
	C42.885017,45.602428 36.294746,53.425419 32.555450,62.433781 
	C22.787298,85.966293 21.924341,109.478065 36.839832,131.797852 
	C42.810856,140.732986 50.936592,146.849854 61.027683,151.898956 
	C60.617115,148.826996 60.121777,146.579208 60.044727,144.317169 
	C59.325817,123.210564 67.651779,106.097351 83.845825,92.985474 
	C89.116287,88.718124 94.717705,84.042099 102.332146,84.202919 
z"/>
<path fill="#3F7825" opacity="1.000000" stroke="none" 
	d="
M206.530579,55.927574 
	C207.911850,57.595100 208.565094,59.752640 210.018188,60.792923 
	C212.265457,62.401764 215.059265,63.247211 217.481415,64.855957 
	C210.940140,67.556503 204.578537,69.939476 198.126282,72.044525 
	C191.530746,74.196320 184.846252,76.075470 178.200699,78.073975 
	C180.495193,71.610664 182.698257,65.112045 185.168411,58.716579 
	C185.613510,57.564163 187.099930,56.146275 188.206116,56.053818 
	C190.617264,55.852283 193.100235,56.668072 195.540131,56.597115 
	C197.184998,56.549286 198.806442,55.696598 200.772522,55.026764 
	C202.791443,55.205357 204.476196,55.561142 206.530579,55.927574 
z"/>
<path fill="#F4CD31" opacity="1.000000" stroke="none" 
	d="
M102.656799,84.098465 
	C94.717705,84.042099 89.116287,88.718124 83.845825,92.985474 
	C67.651779,106.097351 59.325817,123.210564 60.044727,144.317169 
	C60.121777,146.579208 60.617115,148.826996 61.027683,151.898956 
	C50.936592,146.849854 42.810856,140.732986 36.839832,131.797852 
	C21.924341,109.478065 22.787298,85.966293 32.555450,62.433781 
	C36.294746,53.425419 42.885017,45.602428 48.144642,37.219524 
	C48.570442,36.540878 48.751785,35.708847 49.048019,34.598770 
	C71.579697,19.779238 95.217865,15.795037 120.505531,26.516302 
	C122.154732,27.215519 124.415634,27.425903 126.103371,26.913336 
	C133.007416,24.816566 138.816574,26.332581 144.175354,31.546640 
	C131.108154,42.866795 123.814873,56.391479 128.007111,73.061562 
	C119.270584,76.878105 111.126015,80.436058 102.656799,84.098465 
M72.226448,39.961800 
	C70.394821,39.125923 68.563187,38.290047 66.731560,37.454170 
	C66.030670,38.991276 64.680847,40.599110 64.838188,42.042667 
	C64.959831,43.158657 67.613091,45.134113 68.027252,44.883934 
	C69.713722,43.865211 70.971428,42.136677 72.226448,39.961800 
M92.784157,42.507301 
	C94.313248,43.797680 95.693916,45.477352 97.458488,46.150146 
	C98.015137,46.362389 100.257454,43.993000 100.502121,42.591129 
	C100.691475,41.506256 98.722366,38.912231 98.142578,39.034081 
	C96.269394,39.427761 94.594643,40.765610 92.784157,42.507301 
M76.775337,49.258705 
	C76.737648,51.279301 76.321899,53.418392 76.895187,55.247490 
	C77.064728,55.788441 80.356026,56.039978 81.597931,55.334583 
	C82.565811,54.784843 83.330833,51.600613 82.870300,51.232296 
	C81.376015,50.037239 79.276375,49.599098 76.775337,49.258705 
M87.872711,36.467056 
	C90.608147,34.521137 91.206078,31.955303 88.450523,30.010664 
	C87.301842,29.200026 84.126335,29.639639 83.028969,30.703606 
	C80.461601,33.192814 82.611687,36.210560 87.872711,36.467056 
z"/>
<path fill="#EFC930" opacity="1.000000" stroke="none" 
	d="
M90.002136,147.809692 
	C95.118614,174.890793 109.385666,194.420654 134.488693,205.711304 
	C120.398087,204.824295 108.357079,199.327713 97.935211,190.106064 
	C95.822113,188.236343 93.724770,186.245529 92.072922,183.980377 
	C89.099800,179.903397 85.916870,176.981995 80.643608,175.365799 
	C71.897362,172.685196 69.327583,161.626938 74.318039,153.729462 
	C75.858757,151.291260 76.898598,148.058594 76.888191,145.194336 
	C76.809799,123.613503 85.073143,106.133339 101.889580,92.662430 
	C102.394844,92.257683 103.000824,91.978668 104.091347,91.823669 
	C91.576103,108.450424 86.740273,126.923576 90.002136,147.809692 
z"/>
<path fill="#3F7926" opacity="1.000000" stroke="none" 
	d="
M151.071640,72.793976 
	C147.078827,72.860184 143.058609,72.660385 139.100937,73.067932 
	C135.197342,73.469894 134.335342,71.533318 133.876251,68.245422 
	C131.927124,54.286030 138.715363,44.224323 149.129654,36.704010 
	C156.013214,31.733265 164.259247,28.649254 172.357697,25.087067 
	C167.158890,37.092823 161.411285,48.691242 155.884109,60.393784 
	C153.995377,64.392776 152.659897,68.653069 151.071640,72.793976 
z"/>
<path fill="#56A433" opacity="1.000000" stroke="none" 
	d="
M151.501419,72.850403 
	C152.659897,68.653069 153.995377,64.392776 155.884109,60.393784 
	C161.411285,48.691242 167.158890,37.092823 172.738708,25.075832 
	C172.657288,24.698061 172.739777,24.657280 173.116089,24.749512 
	C173.722305,24.849545 173.952194,24.857346 174.182098,24.865149 
	C179.678085,40.300663 181.852905,55.751148 174.585052,71.313492 
	C172.585464,75.595139 170.345978,77.672485 165.067276,75.377518 
	C161.083511,73.645538 156.337784,73.666222 151.501419,72.850403 
z"/>
<path fill="#56A432" opacity="1.000000" stroke="none" 
	d="
M177.968353,78.323898 
	C184.846252,76.075470 191.530746,74.196320 198.126282,72.044525 
	C204.578537,69.939476 210.940140,67.556503 217.670013,65.148392 
	C213.914261,77.385956 205.839050,86.669434 195.921127,94.222397 
	C189.573944,89.505386 183.616547,85.112373 177.736984,80.617516 
	C177.408081,80.366081 177.721527,79.274414 177.968353,78.323898 
z"/>
<path fill="#3F7926" opacity="1.000000" stroke="none" 
	d="
M174.075333,24.655411 
	C173.952194,24.857346 173.722305,24.849545 173.161072,24.739773 
	C173.209335,24.573761 173.588943,24.509716 174.075333,24.655411 
z"/>
<path fill="#F9F1D0" opacity="1.000000" stroke="none" 
	d="
M105.727036,165.187805 
	C97.134819,146.408890 96.224648,127.910751 105.689445,109.581139 
	C118.235596,85.284111 145.880936,76.342552 170.468079,88.410690 
	C199.676788,102.747246 212.771378,141.681946 198.112946,170.608353 
	C183.415543,199.611649 147.624756,207.301285 122.888885,186.131409 
	C116.226479,180.429504 111.510788,172.452972 105.727036,165.187805 
M124.685829,100.508453 
	C123.235870,101.782303 121.785912,103.056160 119.582207,104.020203 
	C117.747566,105.132706 115.083778,105.810478 114.230682,107.437607 
	C111.450577,112.740128 108.733368,118.216354 107.078773,123.939926 
	C103.231766,137.247513 106.225677,150.160217 111.462112,162.424149 
	C115.276749,171.358215 121.604980,178.394623 129.861465,184.086838 
	C136.851608,188.906006 144.149673,191.479767 152.355347,192.508469 
	C160.744476,193.560165 168.325592,190.457138 175.336365,187.037094 
	C184.831024,182.405380 190.315567,174.039658 194.518356,164.019073 
	C200.873077,148.867706 198.468048,134.578751 192.956924,120.474335 
	C189.022156,110.404182 181.920746,103.036568 172.321869,96.744904 
	C162.940475,90.595802 153.798645,88.100708 143.447357,89.225044 
	C138.102280,89.805618 132.858597,92.274750 127.865326,94.542717 
	C126.414032,95.201904 125.986038,98.114006 124.685829,100.508453 
z"/>
<path fill="#110E03" opacity="1.000000" stroke="none" 
	d="
M72.306808,40.315777 
	C70.971428,42.136677 69.713722,43.865211 68.027252,44.883934 
	C67.613091,45.134113 64.959831,43.158657 64.838188,42.042667 
	C64.680847,40.599110 66.030670,38.991276 66.731560,37.454170 
	C68.563187,38.290047 70.394821,39.125923 72.306808,40.315777 
z"/>
<path fill="#0D0B03" opacity="1.000000" stroke="none" 
	d="
M92.813789,42.123459 
	C94.594643,40.765610 96.269394,39.427761 98.142578,39.034081 
	C98.722366,38.912231 100.691475,41.506256 100.502121,42.591129 
	C100.257454,43.993000 98.015137,46.362389 97.458488,46.150146 
	C95.693916,45.477352 94.313248,43.797680 92.813789,42.123459 
z"/>
<path fill="#100D03" opacity="1.000000" stroke="none" 
	d="
M77.092590,49.064095 
	C79.276375,49.599098 81.376015,50.037239 82.870300,51.232296 
	C83.330833,51.600613 82.565811,54.784843 81.597931,55.334583 
	C80.356026,56.039978 77.064728,55.788441 76.895187,55.247490 
	C76.321899,53.418392 76.737648,51.279301 77.092590,49.064095 
z"/>
<path fill="#0D0B02" opacity="1.000000" stroke="none" 
	d="
M87.528442,36.647095 
	C82.611687,36.210560 80.461601,33.192814 83.028969,30.703606 
	C84.126335,29.639639 87.301842,29.200026 88.450523,30.010664 
	C91.206078,31.955303 90.608147,34.521137 87.528442,36.647095 
z"/>
<path fill="#070603" opacity="1.000000" stroke="none" 
	d="
M125.088974,99.993378 
	C125.986038,98.114006 126.414032,95.201904 127.865326,94.542717 
	C132.858597,92.274750 138.102280,89.805618 143.447357,89.225044 
	C153.798645,88.100708 162.940475,90.595802 172.321869,96.744904 
	C181.920746,103.036568 189.022156,110.404182 192.956924,120.474335 
	C198.468048,134.578751 200.873077,148.867706 194.518356,164.019073 
	C190.315567,174.039658 184.831024,182.405380 175.336365,187.037094 
	C168.325592,190.457138 160.744476,193.560165 152.355347,192.508469 
	C144.149673,191.479767 136.851608,188.906006 129.861465,184.086838 
	C121.604980,178.394623 115.276749,171.358215 111.462112,162.424149 
	C106.225677,150.160217 103.231766,137.247513 107.078773,123.939926 
	C108.733368,118.216354 111.450577,112.740128 114.230682,107.437607 
	C115.083778,105.810478 117.747566,105.132706 120.111862,104.475525 
	C119.784622,108.227829 118.927719,111.524811 117.894455,115.500351 
	C126.326782,120.780060 135.272324,126.381119 144.217880,131.982178 
	C144.679565,131.599731 145.141266,131.217285 145.602951,130.834839 
	C142.254105,119.820580 138.905243,108.806313 135.909653,98.953949 
	C131.461853,99.381203 128.275421,99.687286 125.088974,99.993378 
M159.765457,134.621460 
	C169.356567,131.888977 178.947662,129.156494 188.804947,126.348190 
	C185.073288,116.705589 179.989761,109.460373 172.031250,103.381523 
	C168.816391,110.575081 165.838333,117.019058 163.058868,123.547569 
	C161.594528,126.987091 160.476898,130.574219 159.765457,134.621460 
M112.443756,128.203384 
	C111.554100,135.106262 111.246582,141.966599 113.484863,149.145386 
	C123.517029,146.043350 132.977402,143.118118 142.437775,140.192886 
	C142.468277,139.606155 142.498764,139.019409 142.529266,138.432678 
	C133.383163,132.697006 124.237045,126.961334 114.411110,120.799332 
	C113.665161,123.625641 113.172722,125.491425 112.443756,128.203384 
M182.357117,156.123825 
	C184.545670,157.476425 186.734222,158.829025 189.321548,160.428085 
	C192.734253,150.906906 192.772980,142.062912 190.565552,132.251221 
	C180.508926,135.338303 170.930847,138.278473 161.352753,141.218658 
	C161.354019,141.742050 161.355301,142.265457 161.356567,142.788864 
	C168.141632,147.122833 174.926712,151.456802 182.357117,156.123825 
M133.278076,174.822159 
	C137.299026,165.775162 141.319962,156.728149 145.340897,147.681152 
	C145.038116,147.244980 144.735352,146.808807 144.432571,146.372635 
	C134.800171,149.270035 125.167763,152.167419 115.255348,155.149033 
	C118.318840,163.841080 122.914444,170.440475 129.210388,175.807755 
	C129.885086,176.382935 131.683990,175.639420 133.278076,174.822159 
M157.001465,121.500687 
	C159.760864,115.298286 162.598557,109.128441 165.203964,102.862030 
	C165.647522,101.795212 165.537598,99.468033 164.936234,99.154037 
	C157.757706,95.405792 150.214813,93.832962 141.606781,95.960617 
	C145.120926,107.383804 148.468155,118.264359 151.815384,129.144913 
	C152.325897,129.135590 152.836411,129.126251 153.346939,129.116913 
	C154.491455,126.818626 155.635986,124.520340 157.001465,121.500687 
M167.965775,154.531525 
	C165.211212,152.846771 162.456650,151.162033 159.702087,149.477280 
	C159.226425,149.818359 158.750748,150.159454 158.275085,150.500534 
	C161.570679,161.419464 164.866272,172.338379 168.315872,183.767532 
	C176.224304,180.391251 181.599777,175.393692 185.417542,168.793167 
	C185.900391,167.958389 184.786194,165.360046 183.698532,164.600952 
	C178.796494,161.179764 173.637405,158.126862 167.965775,154.531525 
M142.750412,169.217133 
	C140.944473,173.252533 139.138535,177.287918 137.274643,181.452820 
	C145.294067,185.947327 153.198898,187.153931 162.298080,185.544296 
	C158.774094,174.112274 155.423019,163.241150 152.071945,152.370041 
	C151.478668,152.370422 150.885406,152.370819 150.292145,152.371201 
	C147.868210,157.749908 145.444290,163.128616 142.750412,169.217133 
M151.382675,134.380157 
	C147.313644,134.850403 145.052628,137.352493 146.147888,141.134506 
	C146.798538,143.381210 149.178604,145.869492 151.354004,146.647751 
	C152.615570,147.099091 155.976196,144.766663 156.691559,142.998795 
	C158.046555,139.650223 156.767868,136.464249 153.052292,134.866745 
	C152.747223,134.735565 152.425995,134.641998 151.382675,134.380157 
z"/>
<path fill="#EFC930" opacity="1.000000" stroke="none" 
	d="
M124.887405,100.250916 
	C128.275421,99.687286 131.461853,99.381203 135.909653,98.953949 
	C138.905243,108.806313 142.254105,119.820580 145.602951,130.834839 
	C145.141266,131.217285 144.679565,131.599731 144.217880,131.982178 
	C135.272324,126.381119 126.326782,120.780060 117.894455,115.500351 
	C118.927719,111.524811 119.784622,108.227829 120.488739,104.630432 
	C121.785912,103.056160 123.235870,101.782303 124.887405,100.250916 
z"/>
<path fill="#EFC930" opacity="1.000000" stroke="none" 
	d="
M159.484085,134.358078 
	C160.476898,130.574219 161.594528,126.987091 163.058868,123.547569 
	C165.838333,117.019058 168.816391,110.575081 172.031250,103.381523 
	C179.989761,109.460373 185.073288,116.705589 188.804947,126.348190 
	C178.947662,129.156494 169.356567,131.888977 159.484085,134.358078 
z"/>
<path fill="#EFC930" opacity="1.000000" stroke="none" 
	d="
M112.562027,127.780289 
	C113.172722,125.491425 113.665161,123.625641 114.411110,120.799332 
	C124.237045,126.961334 133.383163,132.697006 142.529266,138.432678 
	C142.498764,139.019409 142.468277,139.606155 142.437775,140.192886 
	C132.977402,143.118118 123.517029,146.043350 113.484863,149.145386 
	C111.246582,141.966599 111.554100,135.106262 112.562027,127.780289 
z"/>
<path fill="#EFC930" opacity="1.000000" stroke="none" 
	d="
M182.034454,155.957306 
	C174.926712,151.456802 168.141632,147.122833 161.356567,142.788864 
	C161.355301,142.265457 161.354019,141.742050 161.352753,141.218658 
	C170.930847,138.278473 180.508926,135.338303 190.565552,132.251221 
	C192.772980,142.062912 192.734253,150.906906 189.321548,160.428085 
	C186.734222,158.829025 184.545670,157.476425 182.034454,155.957306 
z"/>
<path fill="#EFC930" opacity="1.000000" stroke="none" 
	d="
M133.119720,175.164902 
	C131.683990,175.639420 129.885086,176.382935 129.210388,175.807755 
	C122.914444,170.440475 118.318840,163.841080 115.255348,155.149033 
	C125.167763,152.167419 134.800171,149.270035 144.432571,146.372635 
	C144.735352,146.808807 145.038116,147.244980 145.340897,147.681152 
	C141.319962,156.728149 137.299026,165.775162 133.119720,175.164902 
z"/>
<path fill="#EFC930" opacity="1.000000" stroke="none" 
	d="
M156.890991,121.861374 
	C155.635986,124.520340 154.491455,126.818626 153.346939,129.116913 
	C152.836411,129.126251 152.325897,129.135590 151.815384,129.144913 
	C148.468155,118.264359 145.120926,107.383804 141.606781,95.960617 
	C150.214813,93.832962 157.757706,95.405792 164.936234,99.154037 
	C165.537598,99.468033 165.647522,101.795212 165.203964,102.862030 
	C162.598557,109.128441 159.760864,115.298286 156.890991,121.861374 
z"/>
<path fill="#EFC930" opacity="1.000000" stroke="none" 
	d="
M168.268372,154.736359 
	C173.637405,158.126862 178.796494,161.179764 183.698532,164.600952 
	C184.786194,165.360046 185.900391,167.958389 185.417542,168.793167 
	C181.599777,175.393692 176.224304,180.391251 168.315872,183.767532 
	C164.866272,172.338379 161.570679,161.419464 158.275085,150.500534 
	C158.750748,150.159454 159.226425,149.818359 159.702087,149.477280 
	C162.456650,151.162033 165.211212,152.846771 168.268372,154.736359 
z"/>
<path fill="#EFC930" opacity="1.000000" stroke="none" 
	d="
M142.885391,168.862244 
	C145.444290,163.128616 147.868210,157.749908 150.292145,152.371201 
	C150.885406,152.370819 151.478668,152.370422 152.071945,152.370041 
	C155.423019,163.241150 158.774094,174.112274 162.298080,185.544296 
	C153.198898,187.153931 145.294067,185.947327 137.274643,181.452820 
	C139.138535,177.287918 140.944473,173.252533 142.885391,168.862244 
z"/>
<path fill="#ECC732" opacity="1.000000" stroke="none" 
	d="
M151.747467,134.455566 
	C152.425995,134.641998 152.747223,134.735565 153.052292,134.866745 
	C156.767868,136.464249 158.046555,139.650223 156.691559,142.998795 
	C155.976196,144.766663 152.615570,147.099091 151.354004,146.647751 
	C149.178604,145.869492 146.798538,143.381210 146.147888,141.134506 
	C145.052628,137.352493 147.313644,134.850403 151.747467,134.455566 
z"/>
</svg>