<svg version="1.1" id="Layer_1" xmlns="http://www.w3.org/2000/svg" xmlns:xlink="http://www.w3.org/1999/xlink" x="0px" y="0px"
	 width="100%" viewBox="0 0 512 512" enable-background="new 0 0 512 512" xml:space="preserve">
<path fill="#000000" opacity="1.000000" stroke="none" 
	d="
M287.000000,513.000000 
	C191.356552,513.000000 96.213104,513.000000 1.034826,513.000000 
	C1.034826,342.398193 1.034826,171.796371 1.034826,1.097280 
	C171.560135,1.097280 342.120331,1.097280 512.840271,1.097280 
	C512.840271,171.666550 512.840271,342.333252 512.840271,513.000000 
	C437.796356,513.000000 362.648163,513.000000 287.000000,513.000000 
M97.714149,118.136604 
	C83.921127,125.075745 70.748932,133.120911 59.269325,143.408493 
	C43.740967,157.324432 30.627419,173.223892 21.755772,192.431061 
	C10.646535,216.482620 7.802798,241.380722 13.627536,267.075989 
	C20.031641,295.327118 37.209209,316.322815 60.654556,332.227661 
	C84.757668,348.578766 111.892403,356.406403 140.871628,357.923218 
	C143.816925,358.077362 145.188522,358.956055 146.184433,361.826996 
	C149.685043,371.918335 154.699493,381.284332 161.850708,389.262970 
	C180.305252,409.852753 204.699097,415.035431 230.819427,414.800079 
	C239.024918,414.726135 247.263504,413.258148 255.402451,411.915955 
	C272.581390,409.082855 289.334778,404.526733 305.370148,397.707062 
	C309.015106,396.156860 311.616089,396.055725 314.961609,398.274994 
	C326.815674,406.138306 340.120514,410.131439 354.197113,410.906738 
	C381.706879,412.421906 407.380066,405.425812 431.557556,392.682800 
	C447.495728,384.282349 458.311005,371.162964 464.287018,354.292664 
	C470.069183,337.969482 470.298401,321.215179 466.631500,304.363953 
	C464.633484,295.181976 462.069672,286.086426 454.336365,280.018677 
	C447.659668,274.779968 440.336487,270.365265 433.178802,265.504578 
	C437.335785,259.886627 448.871552,256.785370 442.803711,245.139359 
	C445.802734,243.008163 449.021362,240.734604 452.225677,238.441162 
	C460.147980,232.770905 461.089935,229.111542 456.570557,220.778259 
	C467.690460,212.749695 476.319885,202.671616 482.197327,190.032715 
	C484.862671,184.301132 490.628174,181.517609 496.888489,179.860123 
	C499.161682,179.258270 501.818695,177.154037 502.730194,175.053726 
	C504.093628,171.912140 502.434937,168.864609 499.258606,167.159332 
	C496.040894,165.431824 492.827179,163.646332 489.457306,162.262222 
	C478.811646,157.889725 467.895996,154.995422 456.190674,156.727661 
	C455.219910,156.871323 453.634827,156.129837 453.081726,155.301270 
	C449.400818,149.786926 445.432098,147.885574 439.092407,149.539444 
	C431.775238,151.448273 424.552094,153.717697 417.079071,155.891342 
	C410.145325,149.889313 402.390839,153.731140 394.479309,155.558228 
	C394.320099,154.757996 394.016541,153.982925 394.036255,153.216156 
	C394.248840,144.947647 398.767334,139.510330 405.369202,135.079559 
	C407.415680,133.706085 409.546112,130.802246 409.573486,128.573685 
	C409.597534,126.617119 406.989929,123.243729 405.098419,122.891342 
	C397.508728,121.477371 389.665009,119.899307 382.067871,120.457970 
	C373.490997,121.088699 365.078186,123.950203 356.216125,125.925766 
	C352.288239,120.835762 348.977936,120.590080 341.978302,124.245186 
	C335.024506,127.876350 328.897095,133.090042 322.067444,137.846405 
	C309.415741,132.337021 305.299896,146.297897 296.831146,150.823700 
	C293.852386,147.331085 291.277924,143.843048 288.234924,140.827911 
	C276.630005,129.329453 263.344543,120.327637 248.373001,113.635872 
	C230.183990,105.505997 211.332535,100.505928 191.379456,100.036240 
	C183.636856,99.853981 175.868622,99.682106 168.144547,100.102295 
	C160.734894,100.505371 153.301224,101.306252 145.994629,102.593651 
	C129.464661,105.506172 113.648552,110.812431 97.714149,118.136604 
z"/>
<path fill="#2A4469" opacity="1.000000" stroke="none" 
	d="
M98.071732,118.013115 
	C113.648552,110.812431 129.464661,105.506172 145.994629,102.593651 
	C153.301224,101.306252 160.734894,100.505371 168.144547,100.102295 
	C175.868622,99.682106 183.636856,99.853981 191.379456,100.036240 
	C211.332535,100.505928 230.183990,105.505997 248.373001,113.635872 
	C263.344543,120.327637 276.630005,129.329453 288.234924,140.827911 
	C291.277924,143.843048 293.852386,147.331085 296.831146,150.823700 
	C305.299896,146.297897 309.415741,132.337021 322.067444,137.846405 
	C328.897095,133.090042 335.024506,127.876350 341.978302,124.245186 
	C348.977936,120.590080 352.288239,120.835762 356.216125,125.925766 
	C365.078186,123.950203 373.490997,121.088699 382.067871,120.457970 
	C389.665009,119.899307 397.508728,121.477371 405.098419,122.891342 
	C406.989929,123.243729 409.597534,126.617119 409.573486,128.573685 
	C409.546112,130.802246 407.415680,133.706085 405.369202,135.079559 
	C398.767334,139.510330 394.248840,144.947647 394.036255,153.216156 
	C394.016541,153.982925 394.320099,154.757996 394.479309,155.558228 
	C402.390839,153.731140 410.145325,149.889313 417.079071,155.891342 
	C424.552094,153.717697 431.775238,151.448273 439.092407,149.539444 
	C445.432098,147.885574 449.400818,149.786926 453.081726,155.301270 
	C453.634827,156.129837 455.219910,156.871323 456.190674,156.727661 
	C467.895996,154.995422 478.811646,157.889725 489.457306,162.262222 
	C492.827179,163.646332 496.040894,165.431824 499.258606,167.159332 
	C502.434937,168.864609 504.093628,171.912140 502.730194,175.053726 
	C501.818695,177.154037 499.161682,179.258270 496.888489,179.860123 
	C490.628174,181.517609 484.862671,184.301132 482.197327,190.032715 
	C476.319885,202.671616 467.690460,212.749695 456.570557,220.778259 
	C461.089935,229.111542 460.147980,232.770905 452.225677,238.441162 
	C449.021362,240.734604 445.802734,243.008163 442.803711,245.139359 
	C448.871552,256.785370 437.335785,259.886627 433.178802,265.504578 
	C440.336487,270.365265 447.659668,274.779968 454.336365,280.018677 
	C462.069672,286.086426 464.633484,295.181976 466.631500,304.363953 
	C470.298401,321.215179 470.069183,337.969482 464.287018,354.292664 
	C458.311005,371.162964 447.495728,384.282349 431.557556,392.682800 
	C407.380066,405.425812 381.706879,412.421906 354.197113,410.906738 
	C340.120514,410.131439 326.815674,406.138306 314.961609,398.274994 
	C311.616089,396.055725 309.015106,396.156860 305.370148,397.707062 
	C289.334778,404.526733 272.581390,409.082855 255.402451,411.915955 
	C247.263504,413.258148 239.024918,414.726135 230.819427,414.800079 
	C204.699097,415.035431 180.305252,409.852753 161.850708,389.262970 
	C154.699493,381.284332 149.685043,371.918335 146.184433,361.826996 
	C145.188522,358.956055 143.816925,358.077362 140.871628,357.923218 
	C111.892403,356.406403 84.757668,348.578766 60.654556,332.227661 
	C37.209209,316.322815 20.031641,295.327118 13.627536,267.075989 
	C7.802798,241.380722 10.646535,216.482620 21.755772,192.431061 
	C30.627419,173.223892 43.740967,157.324432 59.269325,143.408493 
	C70.748932,133.120911 83.921127,125.075745 98.071732,118.013115 
M433.213623,163.940933 
	C425.851685,167.769974 418.572662,171.774490 411.075592,175.317612 
	C408.919159,176.336761 405.697998,176.947449 403.772675,176.037140 
	C402.185181,175.286575 401.742096,172.031418 400.897034,169.845490 
	C400.641296,169.184021 400.736542,168.386887 400.664948,167.583527 
	C391.306274,170.265305 384.429291,176.881653 379.597931,187.604553 
	C385.548889,190.531494 386.915985,193.107437 384.085510,199.065048 
	C381.480835,204.547287 377.851959,209.542923 374.647125,214.797485 
	C379.645233,218.635559 380.316986,220.209320 377.296295,226.327164 
	C375.188049,230.597061 372.123322,234.396133 369.466766,238.392807 
	C368.825378,239.357788 368.108490,240.272598 367.426331,241.210480 
	C367.790710,241.542374 368.155090,241.874268 368.519440,242.206146 
	C369.590363,241.209610 370.754913,240.295425 371.716034,239.202332 
	C376.006073,234.323471 380.054810,229.219635 384.522278,224.511703 
	C405.390778,202.519958 428.986511,184.345215 457.400757,172.999969 
	C461.171143,171.494522 464.671631,171.087936 466.822845,175.346878 
	C468.523987,178.714767 466.808960,182.105438 462.360199,183.900818 
	C430.811005,196.632980 405.787903,217.901215 383.795197,243.304977 
	C380.007111,247.680618 377.757416,251.451416 382.226624,256.377991 
	C383.533844,257.819031 385.019440,260.006744 386.581909,260.152588 
	C393.867126,260.832611 401.208344,261.159210 408.528656,261.145142 
	C415.465576,261.131805 421.499268,258.472473 427.438660,253.631775 
	C424.736206,252.612930 423.059906,251.875931 421.320251,251.347412 
	C417.916565,250.313324 414.937500,248.803055 415.092834,244.666992 
	C415.248871,240.510864 418.379120,239.473358 421.819214,238.529678 
	C427.356995,237.010483 432.783234,235.084686 438.256622,233.330704 
	C438.185394,232.866760 438.114166,232.402817 438.042938,231.938873 
	C436.311493,231.565018 434.529022,231.344238 432.858643,230.787262 
	C428.661194,229.387650 427.257965,224.078278 430.398499,221.102203 
	C431.675995,219.891617 433.490845,219.192215 435.143951,218.442688 
	C447.684113,212.756882 458.465454,204.892853 466.132782,193.254333 
	C470.722260,186.287811 475.119171,179.194427 479.727142,171.962646 
	C468.651855,167.901321 456.700867,167.506165 444.654816,171.929016 
	C436.809326,174.809601 433.704803,172.523819 434.424164,164.061050 
	C434.270538,164.026031 434.116882,163.991028 433.213623,163.940933 
M151.280151,114.298279 
	C144.320297,115.912910 137.236176,117.121788 130.421158,119.209282 
	C91.689026,131.073242 59.664520,152.269226 38.586441,187.647720 
	C21.730421,215.939682 17.172720,246.037369 30.165058,277.041260 
	C44.054482,310.185944 71.121056,328.364716 104.220322,338.923615 
	C104.635124,339.055939 105.176239,338.792328 106.121262,338.637939 
	C101.098190,333.244781 96.281967,328.073730 91.117584,322.285950 
	C71.479401,296.970001 64.740128,268.415619 72.787422,237.562622 
	C89.315712,174.193787 130.723740,136.368912 194.592316,123.175629 
	C205.539795,120.914223 216.895737,120.630203 227.608719,119.481445 
	C214.284058,112.354797 178.416382,109.817650 151.280151,114.298279 
M201.954651,372.924866 
	C219.517868,374.832794 236.869003,372.747070 254.151810,369.957489 
	C292.321533,363.796509 325.511658,347.969116 351.616699,318.843964 
	C361.499207,307.818146 369.296173,295.477478 372.593140,280.782227 
	C375.950714,265.816589 371.048950,254.955963 358.794922,251.080734 
	C340.779572,245.383575 322.445465,245.346619 303.187592,248.919250 
	C302.035278,249.071564 300.871155,249.163101 299.732422,249.385071 
	C269.426788,255.292084 241.235764,266.983582 214.220688,281.512146 
	C199.164017,289.609589 184.481232,298.477844 170.095932,307.723755 
	C158.945419,314.890564 153.497467,325.874329 154.366821,339.189697 
	C155.274918,353.098175 163.347855,362.406708 176.038422,366.985382 
	C184.041107,369.872711 192.714020,370.902435 201.954651,372.924866 
M283.356628,240.860046 
	C288.877808,239.643524 294.355743,238.125259 299.936615,237.325195 
	C303.214050,236.855362 304.406586,235.496796 304.856140,232.400528 
	C310.305328,194.867905 298.149689,164.259888 268.743042,140.473816 
	C266.758118,138.868286 264.174103,137.707657 261.682037,137.072876 
	C245.430222,132.933289 228.933731,131.162766 212.182968,132.867233 
	C158.026871,138.377823 117.478256,164.049713 93.545349,213.746887 
	C83.663116,234.267548 78.647728,255.933334 83.526566,278.693146 
	C90.069183,309.214508 109.992630,329.403900 136.201141,344.303101 
	C137.911621,345.275513 140.204483,345.223511 142.670792,345.741302 
	C142.670792,344.207581 142.738800,343.410614 142.660843,342.628204 
	C140.750351,323.451172 147.858322,308.084381 163.653656,297.557129 
	C200.514481,272.990204 239.480072,252.629730 283.356628,240.860046 
M437.668945,282.768982 
	C421.895111,273.909607 404.735535,272.164307 386.458984,272.407410 
	C389.078278,288.284088 388.148041,303.439819 383.661774,318.309357 
	C379.142426,333.288544 371.351807,346.493134 360.694855,358.932159 
	C362.469391,359.010193 363.394501,359.133636 364.308990,359.079010 
	C388.706635,357.621735 411.431366,350.958557 431.765778,337.093109 
	C439.412506,331.878998 446.012604,325.566132 450.304871,317.197845 
	C455.631958,306.811890 453.921967,296.570984 445.435822,288.559387 
	C443.273071,286.517609 440.704285,284.905853 437.668945,282.768982 
M366.474304,204.015503 
	C366.226074,203.703201 365.981720,203.130280 365.728973,203.126556 
	C364.908905,203.114487 364.068451,203.240982 363.266846,203.439392 
	C359.934540,204.264099 357.281036,203.377289 355.702911,200.249252 
	C354.037354,196.947891 355.683868,194.533112 358.097137,192.383148 
	C368.914124,182.746262 376.958130,171.295731 380.657745,157.135559 
	C382.724976,149.223190 384.474335,141.227753 386.434448,132.985779 
	C374.376923,132.474228 362.719635,136.225739 352.677124,144.752884 
	C349.465240,147.480103 346.289520,148.655182 343.044556,145.371185 
	C341.767365,144.078629 341.346588,141.939880 340.055389,139.147507 
	C334.582855,145.084564 329.544922,150.770432 324.240479,156.195709 
	C322.137421,158.346680 319.541168,161.178207 316.987701,161.378159 
	C314.723206,161.555435 312.206879,158.516357 309.645477,156.791916 
	C303.874939,161.944931 304.382904,161.741425 307.338135,169.117752 
	C310.971771,178.187546 313.695435,187.625458 316.700012,196.940536 
	C317.265198,198.692886 317.302765,200.615433 317.667206,203.006805 
	C324.066803,192.834320 329.220184,182.807251 336.101349,174.154114 
	C345.390869,162.472473 355.854462,151.700867 366.140930,140.848358 
	C369.750092,137.040573 374.248352,137.619217 376.256622,141.318619 
	C378.381378,145.232727 376.230988,147.873337 373.380280,150.341751 
	C348.060608,172.265747 331.463562,200.062759 319.314484,230.836517 
	C318.842041,232.033203 318.617401,233.327728 318.374603,234.219360 
	C328.695129,234.911316 338.801239,235.867950 348.926605,236.163162 
	C355.004730,236.340378 359.211243,232.530502 363.495300,226.995804 
	C360.329926,226.995804 358.060364,227.516129 356.195557,226.869385 
	C353.633636,225.980911 350.408142,224.763916 349.218140,222.685181 
	C347.416473,219.538040 349.749481,216.953735 352.667511,214.917664 
	C357.289825,211.692413 361.632599,208.066559 366.474304,204.015503 
M455.163422,331.966248 
	C447.662201,338.247650 440.778595,345.527466 432.543243,350.622223 
	C408.424347,365.543213 381.739685,371.727264 353.452545,371.314270 
	C351.359406,371.283661 348.801422,371.121826 347.237946,372.175751 
	C339.395691,377.462280 331.812653,383.133392 323.546417,389.096527 
	C328.084656,391.076508 332.286835,393.639496 336.845123,394.783173 
	C373.176453,403.898621 406.274017,395.521027 435.921478,374.010651 
	C449.479675,364.173615 455.233856,348.968567 455.163422,331.966248 
M340.476440,361.991547 
	C358.078461,345.813080 372.569733,323.055206 371.341095,313.067383 
	C348.650787,345.367126 317.793213,366.058838 280.410400,376.211121 
	C243.840881,386.142517 206.711212,391.189819 168.948181,377.904999 
	C177.606049,388.722961 188.269058,395.360657 200.888199,398.904053 
	C217.275620,403.505554 233.827133,402.741333 250.397888,400.010162 
	C283.224091,394.599854 313.911774,384.082947 340.476440,361.991547 
z"/>
<path fill="#DFD6D5" opacity="1.000000" stroke="none" 
	d="
M282.953918,240.939163 
	C239.480072,252.629730 200.514481,272.990204 163.653656,297.557129 
	C147.858322,308.084381 140.750351,323.451172 142.660843,342.628204 
	C142.738800,343.410614 142.670792,344.207581 142.670792,345.741302 
	C140.204483,345.223511 137.911621,345.275513 136.201141,344.303101 
	C109.992630,329.403900 90.069183,309.214508 83.526566,278.693146 
	C78.647728,255.933334 83.663116,234.267548 93.545349,213.746887 
	C117.478256,164.049713 158.026871,138.377823 212.182968,132.867233 
	C228.933731,131.162766 245.430222,132.933289 261.682037,137.072876 
	C264.174103,137.707657 266.758118,138.868286 268.743042,140.473816 
	C298.149689,164.259888 310.305328,194.867905 304.856140,232.400528 
	C304.406586,235.496796 303.214050,236.855362 299.936615,237.325195 
	C294.355743,238.125259 288.877808,239.643524 282.953918,240.939163 
M171.160797,173.509705 
	C173.948578,170.270111 174.119537,166.820007 171.437805,163.568573 
	C169.199387,160.854630 166.168228,160.198608 162.879639,161.704422 
	C159.011353,163.475739 157.485321,168.095062 159.468323,171.832916 
	C161.531860,175.722565 165.644730,176.538696 171.160797,173.509705 
M177.954788,231.624634 
	C181.147659,236.567322 185.793411,237.791443 189.327667,234.505356 
	C191.894287,232.119019 193.095612,228.769684 190.797867,226.128479 
	C189.041733,224.109833 185.593109,222.213333 183.122391,222.465668 
	C178.826584,222.904434 176.955673,226.417236 177.954788,231.624634 
M289.142548,208.284271 
	C286.601379,205.413193 283.183441,204.550781 280.290436,206.672089 
	C278.379608,208.073212 276.594299,211.328918 276.842010,213.517853 
	C277.090637,215.715027 279.581573,218.582260 281.738770,219.363159 
	C283.650696,220.055267 286.945404,218.900192 288.748566,217.458511 
	C291.466431,215.285431 291.435913,211.980118 289.142548,208.284271 
M134.528107,304.117889 
	C140.135468,303.078491 143.000702,299.436615 141.508499,295.047302 
	C140.306366,291.511261 137.771179,289.616852 133.952423,289.971710 
	C130.379227,290.303741 128.110153,292.401001 127.689392,295.928925 
	C127.159248,300.373993 129.248062,303.188934 134.528107,304.117889 
M121.730965,234.142426 
	C116.030609,236.467468 113.791954,241.569229 117.425148,245.034882 
	C119.111992,246.643951 122.835274,247.888123 124.684692,247.091278 
	C126.810349,246.175385 128.964005,242.909088 129.168854,240.499084 
	C129.502029,236.579239 126.565544,234.346664 121.730965,234.142426 
M235.703323,168.988647 
	C236.693283,172.811249 239.429489,175.100296 243.007202,173.921570 
	C245.332779,173.155380 248.119553,170.333389 248.472839,168.082855 
	C248.779190,166.131226 246.450470,162.837906 244.406235,161.641495 
	C240.345673,159.265060 236.471603,162.447403 235.703323,168.988647 
z"/>
<path fill="#EAECE3" opacity="1.000000" stroke="none" 
	d="
M304.026031,249.050964 
	C322.445465,245.346619 340.779572,245.383575 358.794922,251.080734 
	C371.048950,254.955963 375.950714,265.816589 372.593140,280.782227 
	C369.296173,295.477478 361.499207,307.818146 351.616699,318.843964 
	C325.511658,347.969116 292.321533,363.796509 254.151810,369.957489 
	C236.869003,372.747070 219.517868,374.832794 201.391251,372.542114 
	C196.302139,368.563812 190.990631,365.617950 187.387299,361.259766 
	C172.137009,342.814636 176.478195,315.945648 196.837326,302.528748 
	C223.683960,284.836578 251.642883,269.149841 281.726807,257.523865 
	C289.143707,254.657608 296.592102,251.873062 304.026031,249.050964 
M295.571289,278.409027 
	C294.496826,272.032806 291.837585,269.092957 286.772827,268.784760 
	C282.074371,268.498810 278.721924,270.560242 277.055725,274.940094 
	C275.090912,280.104919 277.876343,285.521210 283.175781,287.248444 
	C288.901489,289.114594 293.615662,286.015228 295.571289,278.409027 
M256.968964,353.682434 
	C260.638947,351.301910 262.303223,347.686981 260.689606,343.827759 
	C259.686523,341.428650 257.039307,339.078979 254.574020,338.082520 
	C251.096832,336.676941 247.661377,338.150360 245.484940,341.435333 
	C243.340256,344.672363 243.292542,348.105194 245.659409,351.206268 
	C248.386353,354.779114 251.977310,355.902771 256.968964,353.682434 
M341.279449,267.104584 
	C338.079498,264.368408 334.283783,263.770477 331.349640,266.616791 
	C329.506775,268.404510 327.903442,272.131165 328.528992,274.320343 
	C329.227692,276.765594 332.299286,279.475739 334.847443,280.152191 
	C336.898468,280.696655 340.308563,278.973053 342.043335,277.204193 
	C344.802765,274.390503 344.183685,270.794739 341.279449,267.104584 
M246.511230,288.548767 
	C240.889191,287.240631 237.268845,288.633789 235.976532,292.822174 
	C234.751068,296.793976 235.903137,300.083221 239.637466,302.063324 
	C243.410034,304.063782 246.751282,303.052185 249.275421,299.762451 
	C251.957397,296.267059 251.224136,292.893005 246.511230,288.548767 
M294.723114,322.093384 
	C301.190002,321.534119 305.047760,316.739349 302.183960,312.040436 
	C300.824768,309.810272 297.432495,307.856110 294.789062,307.607452 
	C291.213623,307.271057 288.642151,310.139099 288.213684,313.842407 
	C287.729950,318.023438 289.878815,320.780914 294.723114,322.093384 
M196.296219,333.059692 
	C198.700287,335.918121 201.671066,337.065582 205.052429,335.159302 
	C208.457443,333.239685 209.980865,330.198914 208.186798,326.395569 
	C206.494720,322.808533 203.578827,321.287262 199.647919,322.688568 
	C195.636688,324.118469 194.442535,327.368011 196.296219,333.059692 
z"/>
<path fill="#EEE5E3" opacity="1.000000" stroke="none" 
	d="
M152.069138,114.365898 
	C178.416382,109.817650 214.284058,112.354797 227.608719,119.481445 
	C216.895737,120.630203 205.539795,120.914223 194.592316,123.175629 
	C130.723740,136.368912 89.315712,174.193787 72.787422,237.562622 
	C64.740128,268.415619 71.479401,296.970001 90.901611,322.598206 
	C89.226234,322.214752 87.570206,321.766754 86.335892,320.787323 
	C45.404987,288.307953 35.764652,236.664520 59.944382,190.492844 
	C76.908607,158.099319 103.658409,136.044296 136.863617,121.441910 
	C141.979935,119.191940 147.002960,116.729874 152.069138,114.365898 
z"/>
<path fill="#D7CCCA" opacity="1.000000" stroke="none" 
	d="
M151.674652,114.332092 
	C147.002960,116.729874 141.979935,119.191940 136.863617,121.441910 
	C103.658409,136.044296 76.908607,158.099319 59.944382,190.492844 
	C35.764652,236.664520 45.404987,288.307953 86.335892,320.787323 
	C87.570206,321.766754 89.226234,322.214752 91.075699,322.906555 
	C96.281967,328.073730 101.098190,333.244781 106.121262,338.637939 
	C105.176239,338.792328 104.635124,339.055939 104.220322,338.923615 
	C71.121056,328.364716 44.054482,310.185944 30.165058,277.041260 
	C17.172720,246.037369 21.730421,215.939682 38.586441,187.647720 
	C59.664520,152.269226 91.689026,131.073242 130.421158,119.209282 
	C137.236176,117.121788 144.320297,115.912910 151.674652,114.332092 
z"/>
<path fill="#7FC63E" opacity="1.000000" stroke="none" 
	d="
M434.191040,164.187378 
	C433.704803,172.523819 436.809326,174.809601 444.654816,171.929016 
	C456.700867,167.506165 468.651855,167.901321 479.727142,171.962646 
	C475.119171,179.194427 470.722260,186.287811 466.132782,193.254333 
	C458.465454,204.892853 447.684113,212.756882 435.143951,218.442688 
	C433.490845,219.192215 431.675995,219.891617 430.398499,221.102203 
	C427.257965,224.078278 428.661194,229.387650 432.858643,230.787262 
	C434.529022,231.344238 436.311493,231.565018 438.042938,231.938873 
	C438.114166,232.402817 438.185394,232.866760 438.256622,233.330704 
	C432.783234,235.084686 427.356995,237.010483 421.819214,238.529678 
	C418.379120,239.473358 415.248871,240.510864 415.092834,244.666992 
	C414.937500,248.803055 417.916565,250.313324 421.320251,251.347412 
	C423.059906,251.875931 424.736206,252.612930 427.438660,253.631775 
	C421.499268,258.472473 415.465576,261.131805 408.528656,261.145142 
	C401.208344,261.159210 393.867126,260.832611 386.581909,260.152588 
	C385.019440,260.006744 383.533844,257.819031 382.226624,256.377991 
	C377.757416,251.451416 380.007111,247.680618 383.795197,243.304977 
	C405.787903,217.901215 430.811005,196.632980 462.360199,183.900818 
	C466.808960,182.105438 468.523987,178.714767 466.822845,175.346878 
	C464.671631,171.087936 461.171143,171.494522 457.400757,172.999969 
	C428.986511,184.345215 405.390778,202.519958 384.522278,224.511703 
	C380.054810,229.219635 376.006073,234.323471 371.716034,239.202332 
	C370.754913,240.295425 369.590363,241.209610 368.519440,242.206146 
	C368.155090,241.874268 367.790710,241.542374 367.426331,241.210480 
	C368.108490,240.272598 368.825378,239.357788 369.466766,238.392807 
	C372.123322,234.396133 375.188049,230.597061 377.296295,226.327164 
	C380.316986,220.209320 379.645233,218.635559 374.647125,214.797485 
	C377.851959,209.542923 381.480835,204.547287 384.085510,199.065048 
	C386.915985,193.107437 385.548889,190.531494 379.597931,187.604553 
	C384.429291,176.881653 391.306274,170.265305 400.664948,167.583527 
	C400.736542,168.386887 400.641296,169.184021 400.897034,169.845490 
	C401.742096,172.031418 402.185181,175.286575 403.772675,176.037140 
	C405.697998,176.947449 408.919159,176.336761 411.075592,175.317612 
	C418.572662,171.774490 425.851685,167.769974 433.645172,164.006516 
	C434.076721,164.072098 434.191040,164.187378 434.191040,164.187378 
z"/>
<path fill="#EDE4E3" opacity="1.000000" stroke="none" 
	d="
M437.995514,282.932739 
	C440.704285,284.905853 443.273071,286.517609 445.435822,288.559387 
	C453.921967,296.570984 455.631958,306.811890 450.304871,317.197845 
	C446.012604,325.566132 439.412506,331.878998 431.765778,337.093109 
	C411.431366,350.958557 388.706635,357.621735 364.308990,359.079010 
	C363.394501,359.133636 362.469391,359.010193 360.694855,358.932159 
	C371.351807,346.493134 379.142426,333.288544 383.661774,318.309357 
	C388.148041,303.439819 389.078278,288.284088 386.458984,272.407410 
	C404.735535,272.164307 421.895111,273.909607 437.995514,282.932739 
M427.417206,304.058472 
	C430.219147,306.829254 433.775909,307.904724 436.834808,305.526093 
	C438.875397,303.939331 440.835236,300.619995 440.644928,298.251770 
	C440.455048,295.889160 437.941956,292.624298 435.705902,291.822144 
	C433.482605,291.024689 429.742615,292.040894 427.731079,293.618011 
	C424.492035,296.157623 424.670441,299.975525 427.417206,304.058472 
M391.411713,284.945709 
	C392.639404,288.723541 395.409485,291.221497 399.158997,290.361053 
	C401.615265,289.797394 404.760010,287.377502 405.405975,285.152924 
	C406.046997,282.945374 404.627441,279.223877 402.829956,277.512177 
	C401.379059,276.130493 397.251343,275.656250 395.694366,276.749451 
	C393.527985,278.270569 392.653290,281.631287 391.411713,284.945709 
M402.083801,327.677155 
	C400.173737,324.658844 397.253113,322.988647 394.044312,324.387329 
	C391.927429,325.310028 389.428131,327.783813 389.147461,329.842255 
	C388.835358,332.131531 390.198120,335.710938 392.029846,336.933228 
	C393.874756,338.164368 397.570496,338.010834 399.774872,336.991913 
	C403.165771,335.424622 403.765411,331.949158 402.083801,327.677155 
z"/>
<path fill="#99DE48" opacity="1.000000" stroke="none" 
	d="
M366.283997,204.312836 
	C361.632599,208.066559 357.289825,211.692413 352.667511,214.917664 
	C349.749481,216.953735 347.416473,219.538040 349.218140,222.685181 
	C350.408142,224.763916 353.633636,225.980911 356.195557,226.869385 
	C358.060364,227.516129 360.329926,226.995804 363.495300,226.995804 
	C359.211243,232.530502 355.004730,236.340378 348.926605,236.163162 
	C338.801239,235.867950 328.695129,234.911316 318.374603,234.219360 
	C318.617401,233.327728 318.842041,232.033203 319.314484,230.836517 
	C331.463562,200.062759 348.060608,172.265747 373.380280,150.341751 
	C376.230988,147.873337 378.381378,145.232727 376.256622,141.318619 
	C374.248352,137.619217 369.750092,137.040573 366.140930,140.848358 
	C355.854462,151.700867 345.390869,162.472473 336.101349,174.154114 
	C329.220184,182.807251 324.066803,192.834320 317.667206,203.006805 
	C317.302765,200.615433 317.265198,198.692886 316.700012,196.940536 
	C313.695435,187.625458 310.971771,178.187546 307.338135,169.117752 
	C304.382904,161.741425 303.874939,161.944931 309.645477,156.791916 
	C312.206879,158.516357 314.723206,161.555435 316.987701,161.378159 
	C319.541168,161.178207 322.137421,158.346680 324.240479,156.195709 
	C329.544922,150.770432 334.582855,145.084564 340.055389,139.147507 
	C341.346588,141.939880 341.767365,144.078629 343.044556,145.371185 
	C346.289520,148.655182 349.465240,147.480103 352.677124,144.752884 
	C362.719635,136.225739 374.376923,132.474228 386.434448,132.985779 
	C384.474335,141.227753 382.724976,149.223190 380.657745,157.135559 
	C376.958130,171.295731 368.914124,182.746262 358.097137,192.383148 
	C355.683868,194.533112 354.037354,196.947891 355.702911,200.249252 
	C357.281036,203.377289 359.934540,204.264099 363.266846,203.439392 
	C364.068451,203.240982 364.908905,203.114487 365.728973,203.126556 
	C365.981720,203.130280 366.226074,203.703201 366.283997,204.312836 
z"/>
<path fill="#DED5D4" opacity="1.000000" stroke="none" 
	d="
M455.491028,332.043823 
	C455.233856,348.968567 449.479675,364.173615 435.921478,374.010651 
	C406.274017,395.521027 373.176453,403.898621 336.845123,394.783173 
	C332.286835,393.639496 328.084656,391.076508 323.546417,389.096527 
	C331.812653,383.133392 339.395691,377.462280 347.237946,372.175751 
	C348.801422,371.121826 351.359406,371.283661 353.452545,371.314270 
	C381.739685,371.727264 408.424347,365.543213 432.543243,350.622223 
	C440.778595,345.527466 447.662201,338.247650 455.491028,332.043823 
z"/>
<path fill="#DAD9D2" opacity="1.000000" stroke="none" 
	d="
M340.206482,362.222534 
	C313.911774,384.082947 283.224091,394.599854 250.397888,400.010162 
	C233.827133,402.741333 217.275620,403.505554 200.888199,398.904053 
	C188.269058,395.360657 177.606049,388.722961 168.948181,377.904999 
	C206.711212,391.189819 243.840881,386.142517 280.410400,376.211121 
	C317.793213,366.058838 348.650787,345.367126 371.341095,313.067383 
	C372.569733,323.055206 358.078461,345.813080 340.206482,362.222534 
z"/>
<path fill="#CACCBF" opacity="1.000000" stroke="none" 
	d="
M303.606812,248.985107 
	C296.592102,251.873062 289.143707,254.657608 281.726807,257.523865 
	C251.642883,269.149841 223.683960,284.836578 196.837326,302.528748 
	C176.478195,315.945648 172.137009,342.814636 187.387299,361.259766 
	C190.990631,365.617950 196.302139,368.563812 200.957062,372.462402 
	C192.714020,370.902435 184.041107,369.872711 176.038422,366.985382 
	C163.347855,362.406708 155.274918,353.098175 154.366821,339.189697 
	C153.497467,325.874329 158.945419,314.890564 170.095932,307.723755 
	C184.481232,298.477844 199.164017,289.609589 214.220688,281.512146 
	C241.235764,266.983582 269.426788,255.292084 299.732422,249.385071 
	C300.871155,249.163101 302.035278,249.071564 303.606812,248.985107 
z"/>
<path fill="#7FC63E" opacity="1.000000" stroke="none" 
	d="
M434.019989,164.014053 
	C434.116882,163.991028 434.270538,164.026031 434.307617,164.124207 
	C434.191040,164.187378 434.076721,164.072098 434.019989,164.014053 
z"/>
<path fill="#2E476B" opacity="1.000000" stroke="none" 
	d="
M170.876526,173.775009 
	C165.644730,176.538696 161.531860,175.722565 159.468323,171.832916 
	C157.485321,168.095062 159.011353,163.475739 162.879639,161.704422 
	C166.168228,160.198608 169.199387,160.854630 171.437805,163.568573 
	C174.119537,166.820007 173.948578,170.270111 170.876526,173.775009 
z"/>
<path fill="#2F476C" opacity="1.000000" stroke="none" 
	d="
M177.867401,231.264801 
	C176.955673,226.417236 178.826584,222.904434 183.122391,222.465668 
	C185.593109,222.213333 189.041733,224.109833 190.797867,226.128479 
	C193.095612,228.769684 191.894287,232.119019 189.327667,234.505356 
	C185.793411,237.791443 181.147659,236.567322 177.867401,231.264801 
z"/>
<path fill="#2F476C" opacity="1.000000" stroke="none" 
	d="
M289.382263,208.591553 
	C291.435913,211.980118 291.466431,215.285431 288.748566,217.458511 
	C286.945404,218.900192 283.650696,220.055267 281.738770,219.363159 
	C279.581573,218.582260 277.090637,215.715027 276.842010,213.517853 
	C276.594299,211.328918 278.379608,208.073212 280.290436,206.672089 
	C283.183441,204.550781 286.601379,205.413193 289.382263,208.591553 
z"/>
<path fill="#2E476B" opacity="1.000000" stroke="none" 
	d="
M134.130707,304.092957 
	C129.248062,303.188934 127.159248,300.373993 127.689392,295.928925 
	C128.110153,292.401001 130.379227,290.303741 133.952423,289.971710 
	C137.771179,289.616852 140.306366,291.511261 141.508499,295.047302 
	C143.000702,299.436615 140.135468,303.078491 134.130707,304.092957 
z"/>
<path fill="#2F486C" opacity="1.000000" stroke="none" 
	d="
M122.119331,234.115082 
	C126.565544,234.346664 129.502029,236.579239 129.168854,240.499084 
	C128.964005,242.909088 126.810349,246.175385 124.684692,247.091278 
	C122.835274,247.888123 119.111992,246.643951 117.425148,245.034882 
	C113.791954,241.569229 116.030609,236.467468 122.119331,234.115082 
z"/>
<path fill="#2E476B" opacity="1.000000" stroke="none" 
	d="
M235.630310,168.628387 
	C236.471603,162.447403 240.345673,159.265060 244.406235,161.641495 
	C246.450470,162.837906 248.779190,166.131226 248.472839,168.082855 
	C248.119553,170.333389 245.332779,173.155380 243.007202,173.921570 
	C239.429489,175.100296 236.693283,172.811249 235.630310,168.628387 
z"/>
<path fill="#2E476C" opacity="1.000000" stroke="none" 
	d="
M295.525330,278.784210 
	C293.615662,286.015228 288.901489,289.114594 283.175781,287.248444 
	C277.876343,285.521210 275.090912,280.104919 277.055725,274.940094 
	C278.721924,270.560242 282.074371,268.498810 286.772827,268.784760 
	C291.837585,269.092957 294.496826,272.032806 295.525330,278.784210 
z"/>
<path fill="#2D466B" opacity="1.000000" stroke="none" 
	d="
M256.613373,353.845947 
	C251.977310,355.902771 248.386353,354.779114 245.659409,351.206268 
	C243.292542,348.105194 243.340256,344.672363 245.484940,341.435333 
	C247.661377,338.150360 251.096832,336.676941 254.574020,338.082520 
	C257.039307,339.078979 259.686523,341.428650 260.689606,343.827759 
	C262.303223,347.686981 260.638947,351.301910 256.613373,353.845947 
z"/>
<path fill="#2F486C" opacity="1.000000" stroke="none" 
	d="
M341.548035,267.376892 
	C344.183685,270.794739 344.802765,274.390503 342.043335,277.204193 
	C340.308563,278.973053 336.898468,280.696655 334.847443,280.152191 
	C332.299286,279.475739 329.227692,276.765594 328.528992,274.320343 
	C327.903442,272.131165 329.506775,268.404510 331.349640,266.616791 
	C334.283783,263.770477 338.079498,264.368408 341.548035,267.376892 
z"/>
<path fill="#2F486C" opacity="1.000000" stroke="none" 
	d="
M246.855316,288.751160 
	C251.224136,292.893005 251.957397,296.267059 249.275421,299.762451 
	C246.751282,303.052185 243.410034,304.063782 239.637466,302.063324 
	C235.903137,300.083221 234.751068,296.793976 235.976532,292.822174 
	C237.268845,288.633789 240.889191,287.240631 246.855316,288.751160 
z"/>
<path fill="#30496D" opacity="1.000000" stroke="none" 
	d="
M294.324402,322.048706 
	C289.878815,320.780914 287.729950,318.023438 288.213684,313.842407 
	C288.642151,310.139099 291.213623,307.271057 294.789062,307.607452 
	C297.432495,307.856110 300.824768,309.810272 302.183960,312.040436 
	C305.047760,316.739349 301.190002,321.534119 294.324402,322.048706 
z"/>
<path fill="#2F486C" opacity="1.000000" stroke="none" 
	d="
M196.110565,332.716980 
	C194.442535,327.368011 195.636688,324.118469 199.647919,322.688568 
	C203.578827,321.287262 206.494720,322.808533 208.186798,326.395569 
	C209.980865,330.198914 208.457443,333.239685 205.052429,335.159302 
	C201.671066,337.065582 198.700287,335.918121 196.110565,332.716980 
z"/>
<path fill="#2F486C" opacity="1.000000" stroke="none" 
	d="
M427.182556,303.770264 
	C424.670441,299.975525 424.492035,296.157623 427.731079,293.618011 
	C429.742615,292.040894 433.482605,291.024689 435.705902,291.822144 
	C437.941956,292.624298 440.455048,295.889160 440.644928,298.251770 
	C440.835236,300.619995 438.875397,303.939331 436.834808,305.526093 
	C433.775909,307.904724 430.219147,306.829254 427.182556,303.770264 
z"/>
<path fill="#30486D" opacity="1.000000" stroke="none" 
	d="
M391.318726,284.575165 
	C392.653290,281.631287 393.527985,278.270569 395.694366,276.749451 
	C397.251343,275.656250 401.379059,276.130493 402.829956,277.512177 
	C404.627441,279.223877 406.046997,282.945374 405.405975,285.152924 
	C404.760010,287.377502 401.615265,289.797394 399.158997,290.361053 
	C395.409485,291.221497 392.639404,288.723541 391.318726,284.575165 
z"/>
<path fill="#2E476C" opacity="1.000000" stroke="none" 
	d="
M402.270569,328.024902 
	C403.765411,331.949158 403.165771,335.424622 399.774872,336.991913 
	C397.570496,338.010834 393.874756,338.164368 392.029846,336.933228 
	C390.198120,335.710938 388.835358,332.131531 389.147461,329.842255 
	C389.428131,327.783813 391.927429,325.310028 394.044312,324.387329 
	C397.253113,322.988647 400.173737,324.658844 402.270569,328.024902 
z"/>
</svg>