<svg width="112" height="24" viewBox="0 0 112 24" fill="none" xmlns="http://www.w3.org/2000/svg">
<path d="M19 12V5.749C19.0001 5.67006 18.9845 5.59189 18.9543 5.51896C18.9241 5.44603 18.8798 5.37978 18.824 5.324L15.676 2.176C15.5636 2.06345 15.4111 2.00014 15.252 2H3.6C3.44087 2 3.28826 2.06321 3.17574 2.17574C3.06321 2.28826 3 2.44087 3 2.6V21.4C3 21.5591 3.06321 21.7117 3.17574 21.8243C3.28826 21.9368 3.44087 22 3.6 22H12M7 10H15M7 6H11M7 14H10" stroke="white" stroke-width="1.5" stroke-linecap="round" stroke-linejoin="round"/>
<path d="M15 2V5.4C15 5.55913 15.0632 5.71174 15.1757 5.82426C15.2883 5.93679 15.4409 6 15.6 6H19M18.992 15.125L21.548 15.774C21.814 15.842 22.001 16.084 21.993 16.358C21.821 22.116 18.5 23 18.5 23C18.5 23 15.179 22.116 15.007 16.358C15.0043 16.2247 15.0468 16.0944 15.1276 15.9883C15.2084 15.8823 15.3227 15.8067 15.452 15.774L18.008 15.125C18.331 15.043 18.669 15.043 18.992 15.125Z" stroke="white" stroke-width="1.5" stroke-linecap="round" stroke-linejoin="round"/>
<path d="M34.0568 16V7.27273H37.0057C37.6903 7.27273 38.25 7.39631 38.6847 7.64347C39.1222 7.88778 39.446 8.21875 39.6562 8.63636C39.8665 9.05398 39.9716 9.51989 39.9716 10.0341C39.9716 10.5483 39.8665 11.0156 39.6562 11.4361C39.4489 11.8565 39.1278 12.1918 38.6932 12.4418C38.2585 12.6889 37.7017 12.8125 37.0227 12.8125H34.9091V11.875H36.9886C37.4574 11.875 37.8338 11.794 38.1179 11.6321C38.402 11.4702 38.608 11.2514 38.7358 10.9759C38.8665 10.6974 38.9318 10.3835 38.9318 10.0341C38.9318 9.68466 38.8665 9.37216 38.7358 9.09659C38.608 8.82102 38.4006 8.60511 38.1136 8.44886C37.8267 8.28977 37.446 8.21023 36.9716 8.21023H35.1136V16H34.0568ZM41.5376 16V9.45455H42.5092V10.4432H42.5774C42.6967 10.1193 42.9126 9.85653 43.2251 9.65483C43.5376 9.45312 43.8899 9.35227 44.282 9.35227C44.3558 9.35227 44.4482 9.35369 44.5589 9.35653C44.6697 9.35937 44.7536 9.36364 44.8104 9.36932V10.392C44.7763 10.3835 44.6982 10.3707 44.576 10.3537C44.4567 10.3338 44.3303 10.3239 44.1967 10.3239C43.8786 10.3239 43.5945 10.3906 43.3445 10.5241C43.0973 10.6548 42.9013 10.8366 42.7564 11.0696C42.6143 11.2997 42.5433 11.5625 42.5433 11.858V16H41.5376ZM46.0025 16V9.45455H47.0082V16H46.0025ZM46.5138 8.36364C46.3178 8.36364 46.1488 8.29688 46.0067 8.16335C45.8675 8.02983 45.7979 7.86932 45.7979 7.68182C45.7979 7.49432 45.8675 7.33381 46.0067 7.20028C46.1488 7.06676 46.3178 7 46.5138 7C46.7099 7 46.8775 7.06676 47.0167 7.20028C47.1587 7.33381 47.2298 7.49432 47.2298 7.68182C47.2298 7.86932 47.1587 8.02983 47.0167 8.16335C46.8775 8.29688 46.7099 8.36364 46.5138 8.36364ZM54.2024 9.45455L51.782 16H50.7592L48.3388 9.45455H49.4297L51.2365 14.6705H51.3047L53.1115 9.45455H54.2024ZM57.2567 16.1534C56.842 16.1534 56.4656 16.0753 56.1275 15.919C55.7894 15.7599 55.521 15.5312 55.3221 15.233C55.1232 14.9318 55.0238 14.5682 55.0238 14.142C55.0238 13.767 55.0977 13.4631 55.2454 13.2301C55.3931 12.9943 55.5906 12.8097 55.8377 12.6761C56.0849 12.5426 56.3576 12.4432 56.6559 12.3778C56.957 12.3097 57.2596 12.2557 57.5636 12.2159C57.9613 12.1648 58.2837 12.1264 58.5309 12.1009C58.7809 12.0724 58.9627 12.0256 59.0763 11.9602C59.1928 11.8949 59.2511 11.7812 59.2511 11.6193V11.5852C59.2511 11.1648 59.136 10.8381 58.9059 10.6051C58.6786 10.3722 58.3335 10.2557 57.8704 10.2557C57.3903 10.2557 57.0138 10.3608 56.7411 10.571C56.4684 10.7812 56.2766 11.0057 56.1658 11.2443L55.2113 10.9034C55.3817 10.5057 55.609 10.196 55.8931 9.97443C56.18 9.75 56.4925 9.59375 56.8306 9.50568C57.1715 9.41477 57.5067 9.36932 57.8363 9.36932C58.0465 9.36932 58.288 9.39489 58.5607 9.44602C58.8363 9.49432 59.1019 9.59517 59.3576 9.74858C59.6161 9.90199 59.8306 10.1335 60.0011 10.4432C60.1715 10.7528 60.2567 11.1676 60.2567 11.6875V16H59.2511V15.1136H59.1999C59.1317 15.2557 59.0181 15.4077 58.859 15.5696C58.6999 15.7315 58.4883 15.8693 58.2241 15.983C57.9599 16.0966 57.6374 16.1534 57.2567 16.1534ZM57.4102 15.25C57.8079 15.25 58.1431 15.1719 58.4158 15.0156C58.6914 14.8594 58.8988 14.6577 59.038 14.4105C59.18 14.1634 59.2511 13.9034 59.2511 13.6307V12.7102C59.2085 12.7614 59.1147 12.8082 58.9698 12.8509C58.8278 12.8906 58.663 12.9261 58.4755 12.9574C58.2908 12.9858 58.1104 13.0114 57.9343 13.0341C57.761 13.054 57.6204 13.071 57.5124 13.0852C57.2511 13.1193 57.0067 13.1747 56.7795 13.2514C56.555 13.3253 56.3732 13.4375 56.234 13.5881C56.0977 13.7358 56.0295 13.9375 56.0295 14.1932C56.0295 14.5426 56.1587 14.8068 56.4173 14.9858C56.6786 15.1619 57.0096 15.25 57.4102 15.25ZM64.7514 16.1364C64.1378 16.1364 63.6094 15.9915 63.1662 15.7017C62.723 15.4119 62.3821 15.0128 62.1435 14.5043C61.9048 13.9957 61.7855 13.4148 61.7855 12.7614C61.7855 12.0966 61.9077 11.5099 62.152 11.0014C62.3991 10.4901 62.7429 10.0909 63.1832 9.80398C63.6264 9.5142 64.1435 9.36932 64.7344 9.36932C65.1946 9.36932 65.6094 9.45455 65.9787 9.625C66.348 9.79545 66.6506 10.0341 66.8864 10.3409C67.1222 10.6477 67.2685 11.0057 67.3253 11.4148H66.3196C66.2429 11.1165 66.0724 10.8523 65.8082 10.6222C65.5469 10.3892 65.1946 10.2727 64.7514 10.2727C64.3594 10.2727 64.0156 10.375 63.7202 10.5795C63.4276 10.7812 63.1989 11.0668 63.0341 11.4361C62.8722 11.8026 62.7912 12.233 62.7912 12.7273C62.7912 13.233 62.8707 13.6733 63.0298 14.0483C63.1918 14.4233 63.419 14.7145 63.7116 14.9219C64.0071 15.1293 64.3537 15.233 64.7514 15.233C65.0128 15.233 65.25 15.1875 65.4631 15.0966C65.6761 15.0057 65.8565 14.875 66.0043 14.7045C66.152 14.5341 66.2571 14.3295 66.3196 14.0909H67.3253C67.2685 14.4773 67.1278 14.8253 66.9034 15.1349C66.6818 15.4418 66.3878 15.6861 66.0213 15.8679C65.6577 16.0469 65.2344 16.1364 64.7514 16.1364ZM69.4432 18.4545C69.2727 18.4545 69.1207 18.4403 68.9872 18.4119C68.8537 18.3864 68.7614 18.3608 68.7102 18.3352L68.9659 17.4489C69.2102 17.5114 69.4261 17.5341 69.6136 17.517C69.8011 17.5 69.9673 17.4162 70.1122 17.2656C70.2599 17.1179 70.3949 16.8778 70.517 16.5455L70.7045 16.0341L68.2841 9.45455H69.375L71.1818 14.6705H71.25L73.0568 9.45455H74.1477L71.3693 16.9545C71.2443 17.2926 71.0895 17.5724 70.9048 17.794C70.7202 18.0185 70.5057 18.1847 70.2614 18.2926C70.0199 18.4006 69.7472 18.4545 69.4432 18.4545ZM78.9865 16V7.27273H81.9354C82.62 7.27273 83.1797 7.39631 83.6143 7.64347C84.0518 7.88778 84.3757 8.21875 84.5859 8.63636C84.7962 9.05398 84.9013 9.51989 84.9013 10.0341C84.9013 10.5483 84.7962 11.0156 84.5859 11.4361C84.3786 11.8565 84.0575 12.1918 83.6229 12.4418C83.1882 12.6889 82.6314 12.8125 81.9524 12.8125H79.8388V11.875H81.9183C82.3871 11.875 82.7635 11.794 83.0476 11.6321C83.3317 11.4702 83.5376 11.2514 83.6655 10.9759C83.7962 10.6974 83.8615 10.3835 83.8615 10.0341C83.8615 9.68466 83.7962 9.37216 83.6655 9.09659C83.5376 8.82102 83.3303 8.60511 83.0433 8.44886C82.7564 8.28977 82.3757 8.21023 81.9013 8.21023H80.0433V16H78.9865ZM89.0561 16.1364C88.4652 16.1364 87.9467 15.9957 87.5007 15.7145C87.0575 15.4332 86.7109 15.0398 86.4609 14.5341C86.2138 14.0284 86.0902 13.4375 86.0902 12.7614C86.0902 12.0795 86.2138 11.4844 86.4609 10.9759C86.7109 10.4673 87.0575 10.0724 87.5007 9.79119C87.9467 9.50994 88.4652 9.36932 89.0561 9.36932C89.647 9.36932 90.1641 9.50994 90.6072 9.79119C91.0533 10.0724 91.3999 10.4673 91.647 10.9759C91.897 11.4844 92.022 12.0795 92.022 12.7614C92.022 13.4375 91.897 14.0284 91.647 14.5341C91.3999 15.0398 91.0533 15.4332 90.6072 15.7145C90.1641 15.9957 89.647 16.1364 89.0561 16.1364ZM89.0561 15.233C89.505 15.233 89.8743 15.1179 90.1641 14.8878C90.4538 14.6577 90.6683 14.3551 90.8075 13.9801C90.9467 13.6051 91.0163 13.1989 91.0163 12.7614C91.0163 12.3239 90.9467 11.9162 90.8075 11.5384C90.6683 11.1605 90.4538 10.8551 90.1641 10.6222C89.8743 10.3892 89.505 10.2727 89.0561 10.2727C88.6072 10.2727 88.2379 10.3892 87.9482 10.6222C87.6584 10.8551 87.4439 11.1605 87.3047 11.5384C87.1655 11.9162 87.0959 12.3239 87.0959 12.7614C87.0959 13.1989 87.1655 13.6051 87.3047 13.9801C87.4439 14.3551 87.6584 14.6577 87.9482 14.8878C88.2379 15.1179 88.6072 15.233 89.0561 15.233ZM94.5629 7.27273V16H93.5572V7.27273H94.5629ZM96.4048 16V9.45455H97.4105V16H96.4048ZM96.9162 8.36364C96.7202 8.36364 96.5511 8.29688 96.4091 8.16335C96.2699 8.02983 96.2003 7.86932 96.2003 7.68182C96.2003 7.49432 96.2699 7.33381 96.4091 7.20028C96.5511 7.06676 96.7202 7 96.9162 7C97.1122 7 97.2798 7.06676 97.419 7.20028C97.5611 7.33381 97.6321 7.49432 97.6321 7.68182C97.6321 7.86932 97.5611 8.02983 97.419 8.16335C97.2798 8.29688 97.1122 8.36364 96.9162 8.36364ZM101.912 16.1364C101.298 16.1364 100.77 15.9915 100.326 15.7017C99.8832 15.4119 99.5423 15.0128 99.3036 14.5043C99.065 13.9957 98.9457 13.4148 98.9457 12.7614C98.9457 12.0966 99.0678 11.5099 99.3121 11.0014C99.5593 10.4901 99.9031 10.0909 100.343 9.80398C100.787 9.5142 101.304 9.36932 101.895 9.36932C102.355 9.36932 102.77 9.45455 103.139 9.625C103.508 9.79545 103.811 10.0341 104.047 10.3409C104.282 10.6477 104.429 11.0057 104.485 11.4148H103.48C103.403 11.1165 103.233 10.8523 102.968 10.6222C102.707 10.3892 102.355 10.2727 101.912 10.2727C101.52 10.2727 101.176 10.375 100.88 10.5795C100.588 10.7812 100.359 11.0668 100.194 11.4361C100.032 11.8026 99.9513 12.233 99.9513 12.7273C99.9513 13.233 100.031 13.6733 100.19 14.0483C100.352 14.4233 100.579 14.7145 100.872 14.9219C101.167 15.1293 101.514 15.233 101.912 15.233C102.173 15.233 102.41 15.1875 102.623 15.0966C102.836 15.0057 103.017 14.875 103.164 14.7045C103.312 14.5341 103.417 14.3295 103.48 14.0909H104.485C104.429 14.4773 104.288 14.8253 104.064 15.1349C103.842 15.4418 103.548 15.6861 103.181 15.8679C102.818 16.0469 102.395 16.1364 101.912 16.1364ZM106.603 18.4545C106.433 18.4545 106.281 18.4403 106.147 18.4119C106.014 18.3864 105.922 18.3608 105.87 18.3352L106.126 17.4489C106.37 17.5114 106.586 17.5341 106.774 17.517C106.961 17.5 107.127 17.4162 107.272 17.2656C107.42 17.1179 107.555 16.8778 107.677 16.5455L107.865 16.0341L105.444 9.45455H106.535L108.342 14.6705H108.41L110.217 9.45455H111.308L108.529 16.9545C108.404 17.2926 108.25 17.5724 108.065 17.794C107.88 18.0185 107.666 18.1847 107.422 18.2926C107.18 18.4006 106.907 18.4545 106.603 18.4545Z" fill="white"/>
</svg>
