<svg width="70" height="24" viewBox="0 0 70 24" fill="none" xmlns="http://www.w3.org/2000/svg">
<path d="M34.0568 16V7.27273H37.0057C37.6903 7.27273 38.25 7.39631 38.6847 7.64347C39.1222 7.88778 39.446 8.21875 39.6562 8.63636C39.8665 9.05398 39.9716 9.51989 39.9716 10.0341C39.9716 10.5483 39.8665 11.0156 39.6562 11.4361C39.4489 11.8565 39.1278 12.1918 38.6932 12.4418C38.2585 12.6889 37.7017 12.8125 37.0227 12.8125H34.9091V11.875H36.9886C37.4574 11.875 37.8338 11.794 38.1179 11.6321C38.402 11.4702 38.608 11.2514 38.7358 10.9759C38.8665 10.6974 38.9318 10.3835 38.9318 10.0341C38.9318 9.68466 38.8665 9.37216 38.7358 9.09659C38.608 8.82102 38.4006 8.60511 38.1136 8.44886C37.8267 8.28977 37.446 8.21023 36.9716 8.21023H35.1136V16H34.0568ZM41.5376 16V9.45455H42.5092V10.4432H42.5774C42.6967 10.1193 42.9126 9.85653 43.2251 9.65483C43.5376 9.45312 43.8899 9.35227 44.282 9.35227C44.3558 9.35227 44.4482 9.35369 44.5589 9.35653C44.6697 9.35937 44.7536 9.36364 44.8104 9.36932V10.392C44.7763 10.3835 44.6982 10.3707 44.576 10.3537C44.4567 10.3338 44.3303 10.3239 44.1967 10.3239C43.8786 10.3239 43.5945 10.3906 43.3445 10.5241C43.0973 10.6548 42.9013 10.8366 42.7564 11.0696C42.6143 11.2997 42.5433 11.5625 42.5433 11.858V16H41.5376ZM48.4624 16.1364C47.8714 16.1364 47.353 15.9957 46.907 15.7145C46.4638 15.4332 46.1172 15.0398 45.8672 14.5341C45.62 14.0284 45.4964 13.4375 45.4964 12.7614C45.4964 12.0795 45.62 11.4844 45.8672 10.9759C46.1172 10.4673 46.4638 10.0724 46.907 9.79119C47.353 9.50994 47.8714 9.36932 48.4624 9.36932C49.0533 9.36932 49.5703 9.50994 50.0135 9.79119C50.4595 10.0724 50.8061 10.4673 51.0533 10.9759C51.3033 11.4844 51.4283 12.0795 51.4283 12.7614C51.4283 13.4375 51.3033 14.0284 51.0533 14.5341C50.8061 15.0398 50.4595 15.4332 50.0135 15.7145C49.5703 15.9957 49.0533 16.1364 48.4624 16.1364ZM48.4624 15.233C48.9112 15.233 49.2805 15.1179 49.5703 14.8878C49.8601 14.6577 50.0746 14.3551 50.2138 13.9801C50.353 13.6051 50.4226 13.1989 50.4226 12.7614C50.4226 12.3239 50.353 11.9162 50.2138 11.5384C50.0746 11.1605 49.8601 10.8551 49.5703 10.6222C49.2805 10.3892 48.9112 10.2727 48.4624 10.2727C48.0135 10.2727 47.6442 10.3892 47.3544 10.6222C47.0646 10.8551 46.8501 11.1605 46.7109 11.5384C46.5717 11.9162 46.5021 12.3239 46.5021 12.7614C46.5021 13.1989 46.5717 13.6051 46.7109 13.9801C46.8501 14.3551 47.0646 14.6577 47.3544 14.8878C47.6442 15.1179 48.0135 15.233 48.4624 15.233ZM55.8782 9.45455V10.3068H52.3498V9.45455H55.8782ZM53.4066 16V8.55114C53.4066 8.17614 53.4947 7.86364 53.6708 7.61364C53.8469 7.36364 54.0756 7.17614 54.3569 7.05114C54.6381 6.92614 54.935 6.86364 55.2475 6.86364C55.4947 6.86364 55.6964 6.88352 55.8526 6.9233C56.0089 6.96307 56.1254 7 56.2021 7.03409L55.9123 7.90341C55.8612 7.88636 55.7901 7.86506 55.6992 7.83949C55.6112 7.81392 55.4947 7.80114 55.3498 7.80114C55.0174 7.80114 54.7773 7.88494 54.6296 8.05256C54.4847 8.22017 54.4123 8.46591 54.4123 8.78977V16H53.4066ZM57.2876 16V9.45455H58.2933V16H57.2876ZM57.799 8.36364C57.603 8.36364 57.4339 8.29688 57.2919 8.16335C57.1527 8.02983 57.0831 7.86932 57.0831 7.68182C57.0831 7.49432 57.1527 7.33381 57.2919 7.20028C57.4339 7.06676 57.603 7 57.799 7C57.995 7 58.1626 7.06676 58.3018 7.20028C58.4439 7.33381 58.5149 7.49432 58.5149 7.68182C58.5149 7.86932 58.4439 8.02983 58.3018 8.16335C58.1626 8.29688 57.995 8.36364 57.799 8.36364ZM61.141 7.27273V16H60.1353V7.27273H61.141ZM65.7273 16.1364C65.0966 16.1364 64.5526 15.9972 64.0952 15.7188C63.6406 15.4375 63.2898 15.0455 63.0426 14.5426C62.7983 14.0369 62.6761 13.4489 62.6761 12.7784C62.6761 12.108 62.7983 11.517 63.0426 11.0057C63.2898 10.4915 63.6335 10.0909 64.0739 9.80398C64.517 9.5142 65.0341 9.36932 65.625 9.36932C65.9659 9.36932 66.3026 9.42614 66.6349 9.53977C66.9673 9.65341 67.2699 9.83807 67.5426 10.0938C67.8153 10.3466 68.0327 10.6818 68.1946 11.0994C68.3565 11.517 68.4375 12.0312 68.4375 12.642V13.0682H63.392V12.1989H67.4148C67.4148 11.8295 67.3409 11.5 67.1932 11.2102C67.0483 10.9205 66.8409 10.6918 66.571 10.5241C66.304 10.3565 65.9886 10.2727 65.625 10.2727C65.2244 10.2727 64.8778 10.3722 64.5852 10.571C64.2955 10.767 64.0724 11.0227 63.9162 11.3381C63.7599 11.6534 63.6818 11.9915 63.6818 12.3523V12.9318C63.6818 13.4261 63.767 13.8452 63.9375 14.1889C64.1108 14.5298 64.3509 14.7898 64.6577 14.9688C64.9645 15.1449 65.321 15.233 65.7273 15.233C65.9915 15.233 66.2301 15.196 66.4432 15.1222C66.6591 15.0455 66.8452 14.9318 67.0014 14.7812C67.1577 14.6278 67.2784 14.4375 67.3636 14.2102L68.3352 14.483C68.233 14.8125 68.0611 15.1023 67.8196 15.3523C67.5781 15.5994 67.2798 15.7926 66.9247 15.9318C66.5696 16.0682 66.1705 16.1364 65.7273 16.1364Z" fill="white"/>
<path d="M21 12C21.0028 13.7867 20.4714 15.5335 19.474 17.016C18.6514 18.243 17.5391 19.2484 16.2356 19.9433C14.932 20.6382 13.4772 21.0011 12 21C10.5228 21.0011 9.06804 20.6382 7.76444 19.9433C6.46085 19.2484 5.34858 18.243 4.526 17.016C3.74273 15.8484 3.2439 14.5135 3.06951 13.1184C2.89511 11.7233 3.05 10.3067 3.52175 8.98227C3.9935 7.6578 4.769 6.46228 5.78607 5.49154C6.80314 4.52081 8.0335 3.80186 9.37851 3.39233C10.7235 2.9828 12.1458 2.89408 13.5312 3.13329C14.9167 3.3725 16.2269 3.93299 17.3567 4.76981C18.4865 5.60663 19.4046 6.69651 20.0373 7.95209C20.67 9.20767 20.9997 10.594 21 12Z" stroke="white" stroke-width="2"/>
<path d="M5.98145 18.6201L6.45996 18.7627L6.53418 18.5107C6.99619 18.8991 7.49876 19.2381 8.03418 19.5205L8.44629 19.7236C9.409 20.1666 10.445 20.4232 11.5 20.4844V21.4863C10.4715 21.433 9.45851 21.2131 8.50098 20.834L8.0293 20.6328C6.93531 20.1295 5.94876 19.4223 5.12109 18.5518L5.28418 18.4121L5.98145 18.6201ZM18.8779 18.5527C18.0504 19.4226 17.0643 20.1297 15.9707 20.6328C14.8772 21.1359 13.699 21.4241 12.5 21.4863V20.4844C13.5547 20.4232 14.5903 20.1664 15.5527 19.7236C16.2429 19.4061 16.8854 18.9978 17.4639 18.5117L17.5391 18.7637L18.0186 18.6211L18.7158 18.4131L18.8779 18.5527ZM8.5 15.5371C7.92567 15.6197 7.37785 15.8428 6.9082 16.1924C6.663 16.3749 6.44551 16.5887 6.25781 16.8252L5.97949 16.499L5.59961 16.8252L5.04688 17.2988L4.8584 17.2432C5.12217 16.6216 5.52015 16.0655 6.02832 15.6191L6.30957 15.3916C6.95238 14.9127 7.70925 14.6184 8.5 14.5303V15.5371ZM15.5 14.5312C16.2903 14.6196 17.047 14.9128 17.6895 15.3916C18.3319 15.8704 18.8298 16.5114 19.1406 17.2432L18.9531 17.2988L18.4004 16.8252L18.0195 16.5L17.7402 16.8252C17.1968 16.1416 16.4045 15.6667 15.5 15.5371V14.5312ZM14.5 14.5V15.5H9.5V14.5H14.5ZM10.5879 9.5C10.6618 9.70867 10.7799 9.90103 10.9395 10.0605C11.099 10.2201 11.2913 10.3382 11.5 10.4121V11.4482C11.0233 11.3509 10.5816 11.1167 10.2324 10.7676C9.88326 10.4184 9.64811 9.97668 9.55078 9.5H10.5879ZM14.4482 9.5C14.3509 9.97659 14.1167 10.4185 13.7676 10.7676C13.4185 11.1167 12.9765 11.3509 12.5 11.4482V10.4121C12.7086 10.3382 12.9011 10.22 13.0605 10.0605C13.22 9.90102 13.3382 9.70867 13.4121 9.5H14.4482ZM12.5 6.55078C12.8966 6.63179 13.2689 6.80827 13.584 7.06641L13.7676 7.23242C14.1167 7.58155 14.3509 8.02341 14.4482 8.5H13.4121C13.3382 8.29133 13.22 8.09898 13.0605 7.93945C12.901 7.7799 12.7087 7.66081 12.5 7.58691V6.55078ZM11.5 7.58691C11.2912 7.66078 11.0991 7.77985 10.9395 7.93945C10.7799 8.09897 10.6618 8.29133 10.5879 8.5H9.55078C9.63177 8.10333 9.80824 7.7311 10.0664 7.41602L10.2324 7.23242C10.5816 6.88325 11.0233 6.64807 11.5 6.55078V7.58691Z" fill="white" stroke="white"/>
</svg>
