<svg version="1.1" id="Layer_1" xmlns="http://www.w3.org/2000/svg" xmlns:xlink="http://www.w3.org/1999/xlink" x="0px" y="0px"
	 width="100%" viewBox="0 0 512 512" enable-background="new 0 0 512 512" xml:space="preserve">
<path fill="#000000" opacity="1.000000" stroke="none" 
	d="
M513.000000,196.000000 
	C513.000000,301.974243 513.000000,407.448486 513.000000,512.961365 
	C342.400757,512.961365 171.801483,512.961365 1.101111,512.961365 
	C1.101111,342.442444 1.101111,171.884827 1.101111,1.163595 
	C171.666534,1.163595 342.333252,1.163595 513.000000,1.163595 
	C513.000000,65.865143 513.000000,130.682571 513.000000,196.000000 
M121.862129,66.834213 
	C121.862129,66.834213 121.835007,66.711250 121.332375,66.776299 
	C121.085037,66.993759 120.837708,67.211220 120.454620,67.428406 
	C120.454620,67.428406 120.341850,67.503983 119.740341,67.739914 
	C85.940018,90.746269 62.559334,120.898003 56.670719,162.310852 
	C53.537399,184.346558 59.008476,203.978668 75.455132,220.255463 
	C117.350029,261.717712 158.885544,303.543030 200.570206,345.217743 
	C201.788940,346.436188 203.067520,347.594788 204.797821,349.236298 
	C203.770599,323.936920 204.810928,316.760345 213.106064,292.404785 
	C220.971542,273.219299 232.189362,256.234833 246.758392,241.495560 
	C269.473694,218.514771 296.126709,202.623260 328.406860,197.606491 
	C337.600677,196.177658 347.058197,196.445465 356.353058,195.937500 
	C356.221985,195.769760 355.883209,195.228394 355.443115,194.788361 
	C311.731171,151.084290 268.148682,107.248718 224.115036,63.871151 
	C218.747849,58.583923 211.401962,54.392372 204.205887,52.034542 
	C174.905350,42.434067 148.227859,50.525822 122.439430,66.020332 
	C122.205200,66.287849 121.970963,66.555359 121.862129,66.834213 
M48.213268,54.025768 
	C40.876068,56.901505 32.905884,58.459377 27.793098,65.527206 
	C24.280224,70.383347 23.252985,75.701248 25.869419,80.364929 
	C28.615335,85.259407 34.000736,87.667084 39.892326,86.540634 
	C46.249126,85.325249 52.618359,84.154396 58.932304,82.741310 
	C64.794388,81.429359 70.638931,79.449661 75.236954,85.662697 
	C77.808144,82.716507 79.868767,80.355331 82.528267,77.690422 
	C85.863167,74.021240 89.198067,70.352066 92.752495,66.441360 
	C88.233185,62.926960 88.931175,57.994110 90.814957,52.575401 
	C92.992828,46.310734 94.763031,39.891857 96.445465,33.470558 
	C98.629829,25.133537 93.057831,17.628786 84.466705,17.029034 
	C75.885506,16.429977 68.248604,21.553730 65.532021,30.673197 
	C62.624809,40.432610 58.040943,48.708931 48.213268,54.025768 
M396.478821,317.941345 
	C401.892731,306.203888 405.542542,293.954529 406.586273,281.048981 
	C408.806549,253.597031 397.967194,227.252350 370.131042,216.399734 
	C354.720551,210.391617 338.771545,210.510666 322.963867,214.590622 
	C285.364929,224.294907 257.458801,247.120010 237.257202,279.673553 
	C225.619385,298.427094 219.181030,318.855316 219.982971,341.273163 
	C220.942413,368.094116 237.802658,389.777588 263.363953,396.504852 
	C276.539612,399.972412 289.821655,399.759430 302.899200,396.324097 
	C346.054596,384.987640 376.290283,357.993866 396.478821,317.941345 
M152.901596,427.605011 
	C123.686249,423.010651 94.806885,424.025970 66.509590,433.191467 
	C56.799599,436.336517 47.559914,440.619751 39.983177,447.721710 
	C30.666258,456.454803 30.739510,465.587799 40.083332,474.373230 
	C41.413883,475.624268 42.749722,477.023895 44.351009,477.806854 
	C52.838459,481.957062 61.086945,486.962891 70.015808,489.774567 
	C96.691154,498.174530 124.083809,498.862061 151.570816,494.624329 
	C167.956329,492.098083 183.847000,487.694336 197.615906,477.865417 
	C212.818985,467.012756 212.747269,454.779022 197.390427,443.969788 
	C184.298828,434.754974 169.307755,430.458130 152.901596,427.605011 
M300.302826,469.881226 
	C303.060913,469.259155 305.839172,468.714508 308.573669,468.001862 
	C322.026093,464.496063 335.095734,460.082001 345.678192,450.550079 
	C355.269196,441.911194 355.811798,432.287964 346.029053,424.138763 
	C339.630798,418.808899 331.734497,415.243500 324.393127,411.093048 
	C320.309235,408.784180 316.111084,409.072144 311.474609,410.321075 
	C287.055267,416.898773 263.112640,416.691864 240.274445,404.134552 
	C238.940613,403.401215 236.998871,402.966125 235.577805,403.327423 
	C224.965179,406.025696 214.288757,408.580627 203.891510,411.974457 
	C198.415985,413.761749 193.460861,417.143341 187.748077,420.073059 
	C208.459747,430.750854 227.759125,441.113464 224.473480,468.512451 
	C249.476883,474.090515 274.412354,474.368225 300.302826,469.881226 
M428.300323,428.113007 
	C408.021027,424.682922 387.721039,423.651276 367.166840,427.109467 
	C371.556061,440.687622 367.219696,451.474518 358.090912,460.786957 
	C349.514221,469.536133 338.794159,474.828491 327.472229,479.046875 
	C325.730804,479.695679 323.997498,480.366364 321.398010,481.354889 
	C324.904175,483.066681 327.384979,484.414215 329.970032,485.517456 
	C345.449310,492.123688 361.736023,495.150482 378.430328,496.382690 
	C402.770660,498.179321 426.667419,496.102631 449.812073,487.976105 
	C459.612244,484.535095 468.937653,480.052002 476.035828,472.139221 
	C482.653412,464.762207 482.840454,457.494446 476.250488,450.299042 
	C473.038635,446.792145 469.148590,443.722626 465.101166,441.200287 
	C454.082733,434.333557 441.710297,430.967163 428.300323,428.113007 
z"/>
<path fill="#FD5754" opacity="1.000000" stroke="none" 
	d="
M122.995285,65.948257 
	C148.227859,50.525822 174.905350,42.434067 204.205887,52.034542 
	C211.401962,54.392372 218.747849,58.583923 224.115036,63.871151 
	C268.148682,107.248718 311.731171,151.084290 355.443115,194.788361 
	C355.883209,195.228394 356.221985,195.769760 356.353058,195.937500 
	C347.058197,196.445465 337.600677,196.177658 328.406860,197.606491 
	C296.126709,202.623260 269.473694,218.514771 246.758392,241.495560 
	C232.189362,256.234833 220.971542,273.219299 212.612015,292.660095 
	C210.955994,292.001709 209.686066,291.196106 208.647720,290.158722 
	C175.788544,257.331024 142.947571,224.485092 110.127739,191.618057 
	C108.846329,190.334793 107.708008,188.881927 106.658066,187.398331 
	C92.648750,167.602753 90.826439,145.678497 95.643951,122.710007 
	C99.561050,104.034378 107.867409,87.300041 118.779785,71.760857 
	C119.619110,70.565659 119.835770,68.933197 120.341850,67.503983 
	C120.341850,67.503983 120.454620,67.428406 120.806000,67.498894 
	C121.383247,67.283340 121.609131,66.997292 121.835007,66.711250 
	C121.835007,66.711250 121.862129,66.834213 122.068237,66.782143 
	C122.514656,66.469467 122.754967,66.208862 122.995285,65.948257 
M190.195190,81.006989 
	C195.146652,83.873749 200.458237,86.273567 204.949203,89.737396 
	C209.524323,93.266129 213.236679,97.899101 217.429291,101.942299 
	C221.413025,105.784042 225.995605,105.975464 229.354431,102.623581 
	C232.775665,99.209419 232.640579,94.753738 228.720139,90.678848 
	C223.989670,85.762001 219.549423,80.392342 214.136871,76.353256 
	C208.525925,72.166122 202.267273,68.091331 195.651459,66.150620 
	C177.114273,60.712864 159.487427,65.564980 142.476410,73.237617 
	C137.400574,75.527016 135.585922,79.784401 137.437683,84.144287 
	C139.295425,88.518272 144.051407,89.985367 149.252945,87.768631 
	C150.322510,87.312813 151.338333,86.727882 152.415909,86.294426 
	C164.292831,81.516975 176.408859,78.341026 190.195190,81.006989 
M245.961380,130.518173 
	C250.553421,135.082001 255.018539,139.783936 259.781708,144.161575 
	C263.009979,147.128601 267.728516,146.867233 270.565094,143.868698 
	C273.583374,140.678070 274.245026,136.779800 271.259216,133.542877 
	C265.190125,126.963364 258.859802,120.586761 252.220886,114.587181 
	C248.972778,111.651909 244.960175,112.435692 241.955933,115.641815 
	C239.095917,118.693993 239.058838,122.277130 241.362473,125.677910 
	C242.462631,127.302040 244.073975,128.579910 245.961380,130.518173 
z"/>
<path fill="#B42926" opacity="1.000000" stroke="none" 
	d="
M396.311462,318.279602 
	C376.290283,357.993866 346.054596,384.987640 302.899200,396.324097 
	C289.821655,399.759430 276.539612,399.972412 263.363953,396.504852 
	C237.802658,389.777588 220.942413,368.094116 219.982971,341.273163 
	C219.181030,318.855316 225.619385,298.427094 237.257202,279.673553 
	C257.458801,247.120010 285.364929,224.294907 322.963867,214.590622 
	C338.771545,210.510666 354.720551,210.391617 370.131042,216.399734 
	C397.967194,227.252350 408.806549,253.597031 406.586273,281.048981 
	C405.542542,293.954529 401.892731,306.203888 396.311462,318.279602 
M287.749756,340.326965 
	C298.504822,333.554474 305.776703,324.227509 308.571747,311.689545 
	C313.832397,288.091187 294.836517,268.050476 271.483490,272.518616 
	C252.599625,276.131683 238.758331,290.390564 235.719879,309.361206 
	C232.944077,326.692078 243.619263,342.394104 260.688416,345.594666 
	C270.018311,347.344086 278.858643,345.308258 287.749756,340.326965 
M334.348877,282.557709 
	C335.813263,296.399841 342.059875,303.971191 353.830994,306.171509 
	C368.656677,308.942780 384.152313,298.314667 388.272034,282.549164 
	C393.192017,263.720978 377.336517,247.654236 358.610840,252.815140 
	C344.075104,256.821259 336.101471,266.757172 334.348877,282.557709 
M299.504364,260.626801 
	C300.409271,261.816803 301.205170,263.112335 302.237549,264.178955 
	C307.333405,269.443848 315.233429,270.424957 321.452454,266.644257 
	C327.671204,262.863739 330.477905,255.371689 328.251617,248.494949 
	C325.491760,239.969879 316.943634,235.598160 308.321198,238.302048 
	C299.616211,241.031830 295.798431,250.027679 299.504364,260.626801 
M343.176147,354.786377 
	C350.332001,355.768646 356.087219,353.585266 359.458008,346.957855 
	C362.288391,341.393005 361.552887,335.945374 357.609100,331.106323 
	C353.791351,326.421967 347.366150,324.731354 341.818573,326.720978 
	C335.926727,328.834045 332.169525,333.843323 332.000977,339.810150 
	C331.801666,346.869110 335.008606,351.387115 343.176147,354.786377 
M296.824768,358.009644 
	C287.601135,360.077545 282.653137,366.742126 284.081726,375.173645 
	C285.314819,382.451569 292.624786,387.799469 300.211273,386.973907 
	C307.725739,386.156189 313.274261,379.527832 312.997650,371.699097 
	C312.718170,363.789948 306.450073,358.190277 296.824768,358.009644 
z"/>
<path fill="#F13633" opacity="1.000000" stroke="none" 
	d="
M120.041092,67.621948 
	C119.835770,68.933197 119.619110,70.565659 118.779785,71.760857 
	C107.867409,87.300041 99.561050,104.034378 95.643951,122.710007 
	C90.826439,145.678497 92.648750,167.602753 106.658066,187.398331 
	C107.708008,188.881927 108.846329,190.334793 110.127739,191.618057 
	C142.947571,224.485092 175.788544,257.331024 208.647720,290.158722 
	C209.686066,291.196106 210.955994,292.001709 212.442535,292.986206 
	C204.810928,316.760345 203.770599,323.936920 204.797821,349.236298 
	C203.067520,347.594788 201.788940,346.436188 200.570206,345.217743 
	C158.885544,303.543030 117.350029,261.717712 75.455132,220.255463 
	C59.008476,203.978668 53.537399,184.346558 56.670719,162.310852 
	C62.559334,120.898003 85.940018,90.746269 120.041092,67.621948 
z"/>
<path fill="#B32926" opacity="1.000000" stroke="none" 
	d="
M153.325211,427.698853 
	C169.307755,430.458130 184.298828,434.754974 197.390427,443.969788 
	C212.747269,454.779022 212.818985,467.012756 197.615906,477.865417 
	C183.847000,487.694336 167.956329,492.098083 151.570816,494.624329 
	C124.083809,498.862061 96.691154,498.174530 70.015808,489.774567 
	C61.086945,486.962891 52.838459,481.957062 44.351009,477.806854 
	C42.749722,477.023895 41.413883,475.624268 40.083332,474.373230 
	C30.739510,465.587799 30.666258,456.454803 39.983177,447.721710 
	C47.559914,440.619751 56.799599,436.336517 66.509590,433.191467 
	C94.806885,424.025970 123.686249,423.010651 153.325211,427.698853 
M174.700974,441.557495 
	C168.707245,440.700684 162.666458,438.903717 156.730453,439.200714 
	C147.088730,439.683167 139.313354,447.542145 138.826721,455.678375 
	C138.298584,464.508667 144.079849,472.297180 154.202896,474.251923 
	C159.697250,475.312866 165.859528,474.968506 171.323090,473.632629 
	C178.700516,471.828827 183.904373,466.635925 184.838394,458.672638 
	C185.735748,451.021759 181.665100,445.733337 174.700974,441.557495 
M118.053444,440.374695 
	C109.919846,435.673187 101.498650,435.609222 93.238510,439.605743 
	C87.734711,442.268616 87.632774,446.606140 92.456306,449.963013 
	C98.467422,454.146362 111.860695,454.079834 117.720123,449.837585 
	C121.703102,446.953888 121.907043,444.948578 118.053444,440.374695 
M125.110283,473.409088 
	C117.953972,468.651276 110.412865,468.839508 102.907875,472.174255 
	C101.243050,472.914001 99.327805,475.218719 99.276482,476.857635 
	C99.225975,478.470642 101.037140,480.862671 102.654877,481.682159 
	C109.562912,485.181549 116.771042,485.131470 123.651344,481.587830 
	C126.664955,480.035706 128.633728,477.449219 125.110283,473.409088 
M57.864826,466.967041 
	C63.235630,466.733612 68.677216,466.922302 73.939224,466.040009 
	C75.805191,465.727112 78.470116,462.834961 78.510361,461.068817 
	C78.549637,459.345032 75.915543,456.344299 74.084595,456.024445 
	C68.831558,455.106628 63.312698,454.627563 58.058071,455.274170 
	C55.562935,455.581268 53.431149,458.841003 51.134762,460.763123 
	C53.118488,462.768188 55.102215,464.773285 57.864826,466.967041 
z"/>
<path fill="#EE3532" opacity="1.000000" stroke="none" 
	d="
M299.876160,469.932922 
	C274.412354,474.368225 249.476883,474.090515 224.473480,468.512451 
	C227.759125,441.113464 208.459747,430.750854 187.748077,420.073059 
	C193.460861,417.143341 198.415985,413.761749 203.891510,411.974457 
	C214.288757,408.580627 224.965179,406.025696 235.577805,403.327423 
	C236.998871,402.966125 238.940613,403.401215 240.274445,404.134552 
	C263.112640,416.691864 287.055267,416.898773 311.474609,410.321075 
	C316.111084,409.072144 320.309235,408.784180 324.393127,411.093048 
	C331.734497,415.243500 339.630798,418.808899 346.029053,424.138763 
	C355.811798,432.287964 355.269196,441.911194 345.678192,450.550079 
	C335.095734,460.082001 322.026093,464.496063 308.573669,468.001862 
	C305.839172,468.714508 303.060913,469.259155 299.876160,469.932922 
M262.561035,424.811096 
	C253.854050,429.190521 249.996628,434.794098 250.874786,442.626740 
	C251.831070,451.156097 257.568481,455.661438 265.176636,458.100220 
	C271.544220,460.141327 277.982971,459.907593 284.243744,457.514008 
	C291.990021,454.552582 296.873230,448.219238 296.982758,441.246155 
	C297.095428,434.073395 292.189392,427.477539 284.247375,424.479584 
	C277.296478,421.855774 270.267181,421.955170 262.561035,424.811096 
M341.818054,432.749878 
	C333.927917,428.061249 325.774048,427.818756 317.675110,431.885193 
	C312.346527,434.560608 312.313202,439.275757 317.563599,442.043427 
	C325.087219,446.009369 332.868439,445.959900 340.425690,442.063690 
	C344.698120,439.861053 345.054962,437.596436 341.818054,432.749878 
M245.842896,419.869751 
	C240.903610,413.702881 227.974960,412.401642 222.024338,417.472504 
	C219.070145,419.989929 219.286713,422.947632 222.873962,425.069397 
	C227.995056,428.098450 233.628601,428.191498 239.177155,426.750153 
	C242.273941,425.945709 245.726562,424.887360 245.842896,419.869751 
z"/>
<path fill="#FA5653" opacity="1.000000" stroke="none" 
	d="
M428.719696,428.194397 
	C441.710297,430.967163 454.082733,434.333557 465.101166,441.200287 
	C469.148590,443.722626 473.038635,446.792145 476.250488,450.299042 
	C482.840454,457.494446 482.653412,464.762207 476.035828,472.139221 
	C468.937653,480.052002 459.612244,484.535095 449.812073,487.976105 
	C426.667419,496.102631 402.770660,498.179321 378.430328,496.382690 
	C361.736023,495.150482 345.449310,492.123688 329.970032,485.517456 
	C327.384979,484.414215 324.904175,483.066681 321.398010,481.354889 
	C323.997498,480.366364 325.730804,479.695679 327.472229,479.046875 
	C338.794159,474.828491 349.514221,469.536133 358.090912,460.786957 
	C367.219696,451.474518 371.556061,440.687622 367.166840,427.109467 
	C387.721039,423.651276 408.021027,424.682922 428.719696,428.194397 
M455.444489,463.641846 
	C458.182678,455.879639 456.798950,449.736725 451.166016,444.648315 
	C442.104004,436.462189 425.221313,436.568176 416.251617,444.867432 
	C408.800720,451.761414 408.776031,462.126617 416.194000,469.067535 
	C427.132416,479.302490 446.954773,476.885834 455.444489,463.641846 
M369.745941,483.106659 
	C376.014893,484.768127 382.218658,484.773834 387.995575,481.563019 
	C392.138367,479.260437 392.272491,475.584717 388.650848,472.865356 
	C383.236572,468.800018 370.308868,468.895996 365.119568,473.040070 
	C362.025848,475.510681 361.947449,478.421814 365.058258,480.837463 
	C366.208191,481.730438 367.637878,482.263184 369.745941,483.106659 
M387.234161,452.007294 
	C390.228180,451.156799 393.479034,450.784271 396.156921,449.345337 
	C400.325104,447.105591 400.231750,443.364258 396.399414,440.673401 
	C391.060577,436.924744 378.843384,436.958893 373.552795,440.737244 
	C369.869995,443.367371 369.539368,447.133942 373.551575,448.988068 
	C377.450439,450.789856 382.049255,451.076904 387.234161,452.007294 
z"/>
<path fill="#FC5653" opacity="1.000000" stroke="none" 
	d="
M48.956963,53.928566 
	C58.040943,48.708931 62.624809,40.432610 65.532021,30.673197 
	C68.248604,21.553730 75.885506,16.429977 84.466705,17.029034 
	C93.057831,17.628786 98.629829,25.133537 96.445465,33.470558 
	C94.763031,39.891857 92.992828,46.310734 90.814957,52.575401 
	C88.931175,57.994110 88.233185,62.926960 92.752495,66.441360 
	C89.198067,70.352066 85.863167,74.021240 81.910400,77.690819 
	C75.852501,75.813850 70.540573,73.255386 64.945366,72.203003 
	C53.802662,70.107224 49.162998,65.269646 48.956963,53.928566 
z"/>
<path fill="#EF3532" opacity="1.000000" stroke="none" 
	d="
M48.585114,53.977165 
	C49.162998,65.269646 53.802662,70.107224 64.945366,72.203003 
	C70.540573,73.255386 75.852501,75.813850 81.610970,77.842690 
	C79.868767,80.355331 77.808144,82.716507 75.236954,85.662697 
	C70.638931,79.449661 64.794388,81.429359 58.932304,82.741310 
	C52.618359,84.154396 46.249126,85.325249 39.892326,86.540634 
	C34.000736,87.667084 28.615335,85.259407 25.869419,80.364929 
	C23.252985,75.701248 24.280224,70.383347 27.793098,65.527206 
	C32.905884,58.459377 40.876068,56.901505 48.585114,53.977165 
z"/>
<path fill="#F13633" opacity="1.000000" stroke="none" 
	d="
M121.583694,66.743774 
	C121.609131,66.997292 121.383247,67.283340 120.873871,67.499031 
	C120.837708,67.211220 121.085037,66.993759 121.583694,66.743774 
z"/>
<path fill="#F13633" opacity="1.000000" stroke="none" 
	d="
M122.717354,65.984299 
	C122.754967,66.208862 122.514656,66.469467 122.005539,66.776474 
	C121.970963,66.555359 122.205200,66.287849 122.717354,65.984299 
z"/>
<path fill="#050202" opacity="1.000000" stroke="none" 
	d="
M189.777527,80.942017 
	C176.408859,78.341026 164.292831,81.516975 152.415909,86.294426 
	C151.338333,86.727882 150.322510,87.312813 149.252945,87.768631 
	C144.051407,89.985367 139.295425,88.518272 137.437683,84.144287 
	C135.585922,79.784401 137.400574,75.527016 142.476410,73.237617 
	C159.487427,65.564980 177.114273,60.712864 195.651459,66.150620 
	C202.267273,68.091331 208.525925,72.166122 214.136871,76.353256 
	C219.549423,80.392342 223.989670,85.762001 228.720139,90.678848 
	C232.640579,94.753738 232.775665,99.209419 229.354431,102.623581 
	C225.995605,105.975464 221.413025,105.784042 217.429291,101.942299 
	C213.236679,97.899101 209.524323,93.266129 204.949203,89.737396 
	C200.458237,86.273567 195.146652,83.873749 189.777527,80.942017 
z"/>
<path fill="#060202" opacity="1.000000" stroke="none" 
	d="
M245.707581,130.266388 
	C244.073975,128.579910 242.462631,127.302040 241.362473,125.677910 
	C239.058838,122.277130 239.095917,118.693993 241.955933,115.641815 
	C244.960175,112.435692 248.972778,111.651909 252.220886,114.587181 
	C258.859802,120.586761 265.190125,126.963364 271.259216,133.542877 
	C274.245026,136.779800 273.583374,140.678070 270.565094,143.868698 
	C267.728516,146.867233 263.009979,147.128601 259.781708,144.161575 
	C255.018539,139.783936 250.553421,135.082001 245.707581,130.266388 
z"/>
<path fill="#030201" opacity="1.000000" stroke="none" 
	d="
M287.439880,340.529663 
	C278.858643,345.308258 270.018311,347.344086 260.688416,345.594666 
	C243.619263,342.394104 232.944077,326.692078 235.719879,309.361206 
	C238.758331,290.390564 252.599625,276.131683 271.483490,272.518616 
	C294.836517,268.050476 313.832397,288.091187 308.571747,311.689545 
	C305.776703,324.227509 298.504822,333.554474 287.439880,340.529663 
M286.611267,320.694550 
	C288.620575,317.097656 291.315582,313.714111 292.513153,309.864685 
	C296.408783,297.342407 288.525421,286.956635 275.997528,288.111511 
	C266.441223,288.992432 259.260681,294.008423 254.201004,303.086487 
	C253.407516,305.255402 252.376099,307.369293 251.859680,309.602295 
	C248.807083,322.801788 258.338043,332.968323 271.365295,329.541199 
	C276.629517,328.156311 281.147125,323.933411 286.611267,320.694550 
z"/>
<path fill="#030201" opacity="1.000000" stroke="none" 
	d="
M334.377869,282.144592 
	C336.101471,266.757172 344.075104,256.821259 358.610840,252.815140 
	C377.336517,247.654236 393.192017,263.720978 388.272034,282.549164 
	C384.152313,298.314667 368.656677,308.942780 353.830994,306.171509 
	C342.059875,303.971191 335.813263,296.399841 334.377869,282.144592 
M365.775665,288.117249 
	C371.049469,284.619659 374.249084,279.774292 372.656311,273.474091 
	C372.098694,271.268311 368.893921,268.817108 366.457764,268.191101 
	C361.371796,266.884216 355.857330,270.497192 352.220001,276.315613 
	C350.227661,280.550415 348.940491,285.048126 352.916046,288.602264 
	C356.728149,292.010284 361.095764,291.153839 365.775665,288.117249 
z"/>
<path fill="#020000" opacity="1.000000" stroke="none" 
	d="
M299.325745,260.272858 
	C295.798431,250.027679 299.616211,241.031830 308.321198,238.302048 
	C316.943634,235.598160 325.491760,239.969879 328.251617,248.494949 
	C330.477905,255.371689 327.671204,262.863739 321.452454,266.644257 
	C315.233429,270.424957 307.333405,269.443848 302.237549,264.178955 
	C301.205170,263.112335 300.409271,261.816803 299.325745,260.272858 
z"/>
<path fill="#020000" opacity="1.000000" stroke="none" 
	d="
M342.799744,354.639893 
	C335.008606,351.387115 331.801666,346.869110 332.000977,339.810150 
	C332.169525,333.843323 335.926727,328.834045 341.818573,326.720978 
	C347.366150,324.731354 353.791351,326.421967 357.609100,331.106323 
	C361.552887,335.945374 362.288391,341.393005 359.458008,346.957855 
	C356.087219,353.585266 350.332001,355.768646 342.799744,354.639893 
z"/>
<path fill="#020000" opacity="1.000000" stroke="none" 
	d="
M297.244751,358.005432 
	C306.450073,358.190277 312.718170,363.789948 312.997650,371.699097 
	C313.274261,379.527832 307.725739,386.156189 300.211273,386.973907 
	C292.624786,387.799469 285.314819,382.451569 284.081726,375.173645 
	C282.653137,366.742126 287.601135,360.077545 297.244751,358.005432 
z"/>
<path fill="#030201" opacity="1.000000" stroke="none" 
	d="
M175.027893,441.745270 
	C181.665100,445.733337 185.735748,451.021759 184.838394,458.672638 
	C183.904373,466.635925 178.700516,471.828827 171.323090,473.632629 
	C165.859528,474.968506 159.697250,475.312866 154.202896,474.251923 
	C144.079849,472.297180 138.298584,464.508667 138.826721,455.678375 
	C139.313354,447.542145 147.088730,439.683167 156.730453,439.200714 
	C162.666458,438.903717 168.707245,440.700684 175.027893,441.745270 
M163.047943,459.371307 
	C164.898422,458.738403 166.748901,458.105499 169.339005,457.219635 
	C162.910370,453.591675 158.348785,453.916046 154.785843,458.037170 
	C157.507401,458.548340 159.905518,458.998749 163.047943,459.371307 
z"/>
<path fill="#030101" opacity="1.000000" stroke="none" 
	d="
M118.342484,440.624939 
	C121.907043,444.948578 121.703102,446.953888 117.720123,449.837585 
	C111.860695,454.079834 98.467422,454.146362 92.456306,449.963013 
	C87.632774,446.606140 87.734711,442.268616 93.238510,439.605743 
	C101.498650,435.609222 109.919846,435.673187 118.342484,440.624939 
z"/>
<path fill="#020000" opacity="1.000000" stroke="none" 
	d="
M125.388367,473.679230 
	C128.633728,477.449219 126.664955,480.035706 123.651344,481.587830 
	C116.771042,485.131470 109.562912,485.181549 102.654877,481.682159 
	C101.037140,480.862671 99.225975,478.470642 99.276482,476.857635 
	C99.327805,475.218719 101.243050,472.914001 102.907875,472.174255 
	C110.412865,468.839508 117.953972,468.651276 125.388367,473.679230 
z"/>
<path fill="#050101" opacity="1.000000" stroke="none" 
	d="
M57.475384,466.872711 
	C55.102215,464.773285 53.118488,462.768188 51.134758,460.763123 
	C53.431149,458.841003 55.562935,455.581268 58.058071,455.274170 
	C63.312698,454.627563 68.831558,455.106628 74.084595,456.024445 
	C75.915543,456.344299 78.549637,459.345032 78.510361,461.068817 
	C78.470116,462.834961 75.805191,465.727112 73.939224,466.040009 
	C68.677216,466.922302 63.235630,466.733612 57.475384,466.872711 
z"/>
<path fill="#030202" opacity="1.000000" stroke="none" 
	d="
M262.917908,424.639679 
	C270.267181,421.955170 277.296478,421.855774 284.247375,424.479584 
	C292.189392,427.477539 297.095428,434.073395 296.982758,441.246155 
	C296.873230,448.219238 291.990021,454.552582 284.243744,457.514008 
	C277.982971,459.907593 271.544220,460.141327 265.176636,458.100220 
	C257.568481,455.661438 251.831070,451.156097 250.874786,442.626740 
	C249.996628,434.794098 253.854050,429.190521 262.917908,424.639679 
M272.018524,443.292053 
	C274.856903,442.851776 277.695312,442.411499 280.533691,441.971222 
	C275.046844,437.603271 270.497467,437.891083 266.950684,441.747528 
	C268.479065,442.252594 269.871704,442.712799 272.018524,443.292053 
z"/>
<path fill="#060101" opacity="1.000000" stroke="none" 
	d="
M342.129761,432.983032 
	C345.054962,437.596436 344.698120,439.861053 340.425690,442.063690 
	C332.868439,445.959900 325.087219,446.009369 317.563599,442.043427 
	C312.313202,439.275757 312.346527,434.560608 317.675110,431.885193 
	C325.774048,427.818756 333.927917,428.061249 342.129761,432.983032 
z"/>
<path fill="#060101" opacity="1.000000" stroke="none" 
	d="
M245.906769,420.246399 
	C245.726562,424.887360 242.273941,425.945709 239.177155,426.750153 
	C233.628601,428.191498 227.995056,428.098450 222.873962,425.069397 
	C219.286713,422.947632 219.070145,419.989929 222.024338,417.472504 
	C227.974960,412.401642 240.903610,413.702881 245.906769,420.246399 
z"/>
<path fill="#030202" opacity="1.000000" stroke="none" 
	d="
M455.269531,463.983398 
	C446.954773,476.885834 427.132416,479.302490 416.194000,469.067535 
	C408.776031,462.126617 408.800720,451.761414 416.251617,444.867432 
	C425.221313,436.568176 442.104004,436.462189 451.166016,444.648315 
	C456.798950,449.736725 458.182678,455.879639 455.269531,463.983398 
M433.518799,454.551880 
	C431.291534,455.147949 429.064301,455.743988 425.860046,456.601532 
	C432.528961,460.408325 436.904785,460.166962 440.729858,456.110443 
	C438.354950,455.554962 436.315430,455.077942 433.518799,454.551880 
z"/>
<path fill="#030101" opacity="1.000000" stroke="none" 
	d="
M369.342957,483.033447 
	C367.637878,482.263184 366.208191,481.730438 365.058258,480.837463 
	C361.947449,478.421814 362.025848,475.510681 365.119568,473.040070 
	C370.308868,468.895996 383.236572,468.800018 388.650848,472.865356 
	C392.272491,475.584717 392.138367,479.260437 387.995575,481.563019 
	C382.218658,484.773834 376.014893,484.768127 369.342957,483.033447 
z"/>
<path fill="#030101" opacity="1.000000" stroke="none" 
	d="
M386.787445,452.018188 
	C382.049255,451.076904 377.450439,450.789856 373.551575,448.988068 
	C369.539368,447.133942 369.869995,443.367371 373.552795,440.737244 
	C378.843384,436.958893 391.060577,436.924744 396.399414,440.673401 
	C400.231750,443.364258 400.325104,447.105591 396.156921,449.345337 
	C393.479034,450.784271 390.228180,451.156799 386.787445,452.018188 
z"/>
<path fill="#DFE9E4" opacity="1.000000" stroke="none" 
	d="
M254.786835,302.643219 
	C259.260681,294.008423 266.441223,288.992432 275.997528,288.111511 
	C288.525421,286.956635 296.408783,297.342407 292.513153,309.864685 
	C291.315582,313.714111 288.620575,317.097656 285.890289,320.854523 
	C281.405945,321.163300 277.558716,321.886963 273.895020,321.352478 
	C263.149353,319.784790 257.873199,312.241364 254.786835,302.643219 
z"/>
<path fill="#BDCCC3" opacity="1.000000" stroke="none" 
	d="
M254.493927,302.864868 
	C257.873199,312.241364 263.149353,319.784790 273.895020,321.352478 
	C277.558716,321.886963 281.405945,321.163300 285.586914,321.008240 
	C281.147125,323.933411 276.629517,328.156311 271.365295,329.541199 
	C258.338043,332.968323 248.807083,322.801788 251.859680,309.602295 
	C252.376099,307.369293 253.407516,305.255402 254.493927,302.864868 
z"/>
<path fill="#DDE7E2" opacity="1.000000" stroke="none" 
	d="
M352.834167,275.959930 
	C355.857330,270.497192 361.371796,266.884216 366.457764,268.191101 
	C368.893921,268.817108 372.098694,271.268311 372.656311,273.474091 
	C374.249084,279.774292 371.049469,284.619659 365.245361,287.923096 
	C361.727783,284.985779 358.701691,282.283203 355.773346,279.478516 
	C354.676483,278.427948 353.807220,277.139771 352.834167,275.959930 
z"/>
<path fill="#BCCBC3" opacity="1.000000" stroke="none" 
	d="
M352.527100,276.137756 
	C353.807220,277.139771 354.676483,278.427948 355.773346,279.478516 
	C358.701691,282.283203 361.727783,284.985779 364.909119,288.025513 
	C361.095764,291.153839 356.728149,292.010284 352.916046,288.602264 
	C348.940491,285.048126 350.227661,280.550415 352.527100,276.137756 
z"/>
<path fill="#D7E0DC" opacity="1.000000" stroke="none" 
	d="
M162.675781,459.410217 
	C159.905518,458.998749 157.507401,458.548340 154.785843,458.037170 
	C158.348785,453.916046 162.910370,453.591675 169.339005,457.219635 
	C166.748901,458.105499 164.898422,458.738403 162.675781,459.410217 
z"/>
<path fill="#D7E0DC" opacity="1.000000" stroke="none" 
	d="
M271.641418,443.232544 
	C269.871704,442.712799 268.479065,442.252594 266.950684,441.747528 
	C270.497467,437.891083 275.046844,437.603271 280.533691,441.971222 
	C277.695312,442.411499 274.856903,442.851776 271.641418,443.232544 
z"/>
<path fill="#D7E0DC" opacity="1.000000" stroke="none" 
	d="
M433.897339,454.576385 
	C436.315430,455.077942 438.354950,455.554962 440.729858,456.110443 
	C436.904785,460.166962 432.528961,460.408325 425.860046,456.601532 
	C429.064301,455.743988 431.291534,455.147949 433.897339,454.576385 
z"/>
</svg>