<svg version="1.1" id="Layer_1" xmlns="http://www.w3.org/2000/svg" xmlns:xlink="http://www.w3.org/1999/xlink" x="0px" y="0px"
	 width="100%" viewBox="0 0 667 400" enable-background="new 0 0 667 400" xml:space="preserve">
<path fill="none" opacity="1.000000" stroke="#000000" stroke-linecap="round" stroke-linejoin="round" stroke-width="11.000000"
	d="
M267.500000,154.000000 
	C268.206024,177.522873 269.460419,201.016006 270.933624,224.504166 
	C271.946289,240.649139 272.271332,256.836212 273.020294,272.999054 
	C273.584320,285.170471 274.334534,297.333282 274.999146,309.500061 
	C275.154816,312.350037 276.649078,313.863617 279.500336,313.992767 
	C280.498291,314.037994 281.500000,314.000000 282.500000,314.000000 
	C308.833344,314.000000 335.166656,314.001923 361.500000,313.998688 
	C368.505188,313.997833 368.720642,313.492371 369.052948,306.502502 
	C369.893250,288.828278 371.159271,271.173523 371.921112,253.496597 
	C372.222961,246.492920 372.554810,239.496735 372.928436,232.496185 
	C373.817261,215.841370 374.038116,199.147583 375.114227,182.507385 
	C375.728668,173.005814 376.020752,163.501099 376.500000,154.000000 
"/>
<path fill="none" opacity="1.000000" stroke="#000000" stroke-linecap="round" stroke-linejoin="round" stroke-width="11.000000"
	d="
M458.500000,110.500000 
	C459.384186,131.349152 460.390259,152.188141 461.934753,173.004837 
	C462.946869,186.645874 463.261841,200.337280 464.018311,213.998993 
	C464.941406,230.669922 466.074402,247.329300 466.977325,264.001221 
	C467.753235,278.328644 468.409241,292.663727 468.964813,307.001373 
	C469.207123,313.253845 469.739410,313.993347 476.000000,313.995514 
	C505.333344,314.005615 534.666687,314.005127 564.000000,313.995728 
	C569.966980,313.993805 571.187134,312.873505 571.492188,306.999603 
	C572.678101,284.167267 573.725830,261.327209 575.031738,238.501816 
	C576.214661,217.826538 577.774109,197.172836 578.963684,176.497910 
	C579.816528,161.675293 580.257690,146.829376 581.032471,132.001694 
	C581.406921,124.835861 582.327820,117.697418 582.000000,110.500000 
"/>
<path fill="none" opacity="1.000000" stroke="#000000" stroke-linecap="round" stroke-linejoin="round" stroke-width="11.000000"
	d="
M184.500000,204.500000 
	C183.496201,220.012253 182.491776,235.519409 181.094086,251.008484 
	C179.668777,266.803467 179.017273,282.667786 177.987549,298.499176 
	C177.737869,302.337982 177.372879,306.170654 176.985397,309.998535 
	C176.746796,312.355713 175.354370,313.731628 172.997803,313.979034 
	C171.843842,314.100189 170.666672,314.000000 169.500000,314.000000 
	C147.166672,314.000000 124.833328,313.993805 102.500008,314.009552 
	C100.270782,314.011108 98.052620,314.074615 96.000000,313.000000 
"/>
<path fill="none" opacity="1.000000" stroke="#000000" stroke-linecap="round" stroke-linejoin="round" stroke-width="11.000000"
	d="
M586.500000,75.000000 
	C586.596252,69.300690 584.950317,63.924129 583.524414,58.493584 
	C582.457703,54.430977 579.584839,53.952599 575.999939,53.959644 
	C541.666748,54.027126 507.333344,54.000000 473.000000,54.000000 
	C469.500000,54.000000 465.995605,54.106861 462.501495,53.963528 
	C460.053436,53.863102 458.145782,54.672089 457.551453,57.013062 
	C456.006561,63.098263 453.356476,68.990860 454.000000,75.500000 
"/>
<path fill="none" opacity="1.000000" stroke="#000000" stroke-linecap="round" stroke-linejoin="round" stroke-width="12.000000"
	d="
M381.000000,119.250000 
	C381.675842,113.050087 378.978210,107.410507 377.829071,101.533424 
	C377.324188,98.951332 374.943207,97.386459 371.499512,97.403320 
	C338.500305,97.564964 305.499695,97.564964 272.500488,97.403320 
	C269.056793,97.386459 266.693970,98.948418 266.168152,101.534195 
	C264.991577,107.320099 262.315399,112.877876 263.000000,119.000000 
"/>
<path fill="none" opacity="1.000000" stroke="#000000" stroke-linecap="round" stroke-linejoin="round" stroke-width="11.000000"
	d="
M189.000000,170.000000 
	C189.506805,163.122543 187.144211,156.848038 185.057724,150.481079 
	C184.222992,147.933868 182.463058,147.999985 180.500000,147.999985 
	C150.833328,148.000015 121.166275,148.070953 91.500488,147.909592 
	C87.819397,147.889572 85.640297,150.032196 85.198257,152.535019 
	C84.204880,158.159454 81.650017,163.585785 82.500000,169.500000 
"/>
<path fill="none" opacity="1.000000" stroke="#000000" stroke-linecap="round" stroke-linejoin="round" stroke-width="11.000000"
	d="
M586.500000,75.500000 
	C583.457031,76.783508 580.289673,77.040863 576.999939,77.036034 
	C538.666687,76.979744 500.333344,77.010109 462.000031,76.965691 
	C460.343414,76.963768 458.712799,77.052490 456.976410,76.588196 
	C449.709290,74.645035 443.662262,80.049347 445.136139,87.472977 
	C445.865509,91.146523 444.784149,94.299301 443.899536,97.471985 
	C441.976105,104.370186 443.452881,106.444466 450.465729,108.141609 
	C455.912354,109.459709 461.141388,108.599548 466.500305,108.577408 
	C502.499695,108.428680 538.500549,108.402603 574.499451,108.602821 
	C580.031860,108.633583 585.495422,109.275467 591.013184,108.059692 
	C595.961670,106.969353 597.795471,104.618576 597.010498,99.498390 
	C596.249023,94.531143 593.893005,89.816452 595.854126,84.446724 
	C596.879333,81.639633 594.605652,79.372757 591.996948,78.005852 
	C590.346680,77.141144 588.666687,76.333321 587.000000,75.499992 
"/>
<path fill="none" opacity="1.000000" stroke="#000000" stroke-linecap="round" stroke-linejoin="round" stroke-width="11.000000"
	d="
M254.500000,134.500000 
	C252.260757,124.717918 253.908875,123.571701 261.507355,120.015724 
	C262.118225,119.729851 263.005554,119.319946 263.473907,119.552559 
	C269.472626,122.532021 275.844818,120.862450 282.000671,120.906097 
	C311.499176,121.115280 341.000000,121.003609 370.500000,120.994278 
	C373.367401,120.993370 376.163055,120.949005 379.026825,120.089325 
	C384.480530,118.452179 390.860260,124.321281 389.960541,129.993744 
	C389.293945,134.196472 390.108887,138.080322 391.467194,142.011337 
	C393.535950,147.998444 388.996368,151.775162 384.013702,152.172012 
	C371.971466,153.131180 360.012909,151.450226 347.996338,151.902924 
	C336.179779,152.348083 324.333344,152.000000 312.500000,152.000000 
	C300.500000,152.000000 288.500000,151.992004 276.500000,152.006439 
	C273.961823,152.009491 271.403351,152.694626 268.992249,152.779114 
	C264.511353,152.936157 259.818634,152.625534 255.521576,150.944839 
	C252.506500,149.765533 251.276413,147.019196 252.090210,144.024521 
	C252.984879,140.732239 252.397858,136.711380 256.000000,134.500000 
"/>
<path fill="none" opacity="1.000000" stroke="#000000" stroke-linecap="round" stroke-linejoin="round" stroke-width="11.000000"
	d="
M87.000000,204.500000 
	C87.386772,218.543808 88.889282,232.508759 89.860161,246.509705 
	C90.553337,256.506012 91.279007,266.503357 91.981461,276.501312 
	C92.730484,287.162170 93.114998,297.854156 94.129173,308.487671 
	C94.445396,311.803253 95.926003,315.027771 95.500000,318.500000 
"/>
<path fill="none" opacity="1.000000" stroke="#000000" stroke-linecap="round" stroke-linejoin="round" stroke-width="12.000000"
	d="
M83.000000,170.000000 
	C85.336365,171.318161 87.861122,171.528610 90.500031,171.525177 
	C120.833321,171.485672 151.167175,171.416977 181.499390,171.600647 
	C185.479218,171.624741 189.211517,169.261719 193.626770,171.777512 
	C197.597397,174.039963 198.531235,176.485321 198.047607,180.505722 
	C197.597824,184.244675 197.781921,187.850998 199.385391,191.549683 
	C201.923615,197.404526 198.983658,201.639542 192.500900,202.506775 
	C187.329742,203.198532 182.175278,202.691299 176.998566,202.636948 
	C149.334946,202.346542 121.665627,202.378464 94.000984,202.614807 
	C89.160728,202.656158 84.355629,202.987946 79.494720,202.559982 
	C72.390648,201.934525 70.591652,197.644348 71.959930,192.489365 
	C73.084152,188.253891 74.606987,184.137955 73.146317,179.454361 
	C72.235558,176.534042 73.415611,173.623535 76.987633,172.461960 
	C78.890709,171.843109 80.666664,170.833328 82.500000,170.000000 
"/>
<path fill="none" opacity="1.000000" stroke="#000000" stroke-linecap="round" stroke-linejoin="round" stroke-width="8.000000"
	d="
M146.500000,241.500000 
	C146.290329,236.871506 142.597015,233.685516 137.045151,234.738159 
	C134.446304,235.230881 131.386246,234.771957 128.874893,237.379501 
	C124.275833,242.154617 125.295418,248.454803 131.467529,251.076447 
	C134.576721,252.397079 137.919449,252.043198 141.046005,253.393463 
	C145.935028,255.504929 148.068436,257.832336 147.500000,262.000000 
	C146.976334,265.839417 143.328613,269.297729 138.997894,269.431915 
	C134.969543,269.556702 130.827515,270.178558 126.980553,268.034882 
	C124.923370,266.888580 122.666664,267.358215 120.500000,268.000000 
"/>
<path fill="none" opacity="1.000000" stroke="#000000" stroke-linecap="round" stroke-linejoin="round" stroke-width="9.000000"
	d="
M512.000000,169.000000 
	C512.000000,179.835892 512.000000,190.671799 512.000000,201.530899 
	C519.089355,203.379501 525.836182,202.109619 532.500000,202.500000 
"/>
<path fill="none" opacity="1.000000" stroke="#000000" stroke-linecap="round" stroke-linejoin="round" stroke-width="4.000000"
	d="
M541.500000,350.500000 
	C541.333313,350.500000 541.153198,350.542145 541.002014,350.493713 
	C538.396790,349.659912 535.849731,346.684692 533.074219,349.085815 
	C529.850830,351.874359 531.684692,356.005463 531.626404,359.502106 
	C531.579773,362.304779 534.243958,362.828705 536.486511,362.425079 
	C538.730652,362.021240 540.616455,360.593872 540.441406,358.003967 
	C540.274231,355.530304 538.705627,354.922119 536.500000,356.000000 
"/>
<path fill="none" opacity="1.000000" stroke="#000000" stroke-linecap="round" stroke-linejoin="round" stroke-width="4.000000"
	d="
M335.500000,348.500000 
	C335.759155,351.828705 335.008820,355.188507 335.974182,358.507507 
	C336.729309,361.103729 338.083588,362.958252 340.990631,362.446747 
	C343.859314,361.941956 345.568726,360.147736 345.510956,356.999786 
	C345.458954,354.167419 345.500000,351.333344 345.500000,348.500000 
"/>
<path fill="none" opacity="1.000000" stroke="#000000" stroke-linecap="round" stroke-linejoin="round" stroke-width="3.000000"
	d="
M109.500000,349.000000 
	C107.321228,348.990692 105.525902,346.986664 102.924873,348.357452 
	C101.359650,349.182373 100.471420,349.697021 100.471420,351.500000 
	C100.471420,353.302979 101.026161,354.486542 102.999985,354.484894 
	C104.001579,354.484039 104.328873,355.627106 105.503395,355.570374 
	C108.054008,355.447235 109.872032,357.037506 109.365974,359.472137 
	C108.858864,361.911865 106.521271,362.663849 103.998444,362.529083 
	C102.104004,362.427917 100.515175,360.833191 98.500000,361.500000 
"/>
<path fill="none" opacity="1.000000" stroke="#000000" stroke-linecap="round" stroke-linejoin="round" stroke-width="8.000000"
	d="
M335.500000,207.500000 
	C338.851685,217.998856 337.075012,228.818222 337.500000,239.500000 
"/>
<path fill="none" opacity="1.000000" stroke="#000000" stroke-linecap="round" stroke-linejoin="round" stroke-width="7.000000"
	d="
M310.250000,207.000000 
	C310.333344,208.000000 310.841888,209.238968 310.434814,209.963364 
	C305.931152,217.977539 308.780762,226.661636 308.021698,235.001968 
	C307.871246,236.654953 308.000000,238.333328 308.000000,240.000000 
"/>
<path fill="none" opacity="1.000000" stroke="#000000" stroke-linecap="round" stroke-linejoin="round" stroke-width="6.000000"
	d="
M334.500000,209.500000 
	C330.895905,211.417877 330.188629,215.027328 328.924042,218.472122 
	C327.049194,223.579147 327.472748,229.715973 322.500000,233.500000 
"/>
<path fill="none" opacity="1.000000" stroke="#000000" stroke-linecap="round" stroke-linejoin="round" stroke-width="6.000000"
	d="
M322.750000,235.500000 
	C319.481079,230.237915 317.573090,224.416214 316.053802,218.486221 
	C315.210449,215.194473 313.740875,212.495285 311.000000,210.500000 
"/>
<path fill="none" opacity="1.000000" stroke="#000000" stroke-linecap="round" stroke-linejoin="round" stroke-width="4.000000"
	d="
M163.500000,348.500000 
	C163.500000,351.666656 163.668198,354.844727 163.454697,357.996918 
	C163.221298,361.442993 164.544510,362.907959 168.001968,362.517365 
	C169.829514,362.310883 171.728180,362.843353 173.500000,362.000000 
"/>
<path fill="none" opacity="1.000000" stroke="#000000" stroke-linecap="round" stroke-linejoin="round" stroke-width="4.000000"
	d="
M149.500000,348.500000 
	C149.500000,351.500000 149.703171,354.517303 149.449554,357.495697 
	C149.118500,361.383698 150.624496,362.996246 154.502350,362.519135 
	C156.162628,362.314911 157.896790,362.801270 159.500000,362.000000 
"/>
<path fill="none" opacity="1.000000" stroke="#000000" stroke-linecap="round" stroke-linejoin="round" stroke-width="4.000000"
	d="
M517.500000,355.500000 
	C519.032837,355.553131 520.626709,355.239868 522.197388,356.395050 
	C523.235229,354.456055 526.946289,353.839783 524.971558,350.516907 
	C522.960144,347.132416 519.761658,348.993378 516.722046,348.330414 
	C516.097839,353.794098 517.222351,358.727966 516.000000,363.500000 
"/>
<path fill="none" opacity="1.000000" stroke="#000000" stroke-linecap="round" stroke-linejoin="round" stroke-width="4.000000"
	d="
M486.500000,348.500000 
	C486.500000,353.006165 486.500000,357.512360 486.500000,362.500000 
	C489.477966,362.500000 491.988983,362.500000 494.500000,362.500000 
"/>
<path fill="none" opacity="1.000000" stroke="#000000" stroke-linecap="round" stroke-linejoin="round" stroke-width="4.000000"
	d="
M548.000000,356.000000 
	C545.284729,360.909088 545.960571,362.382233 551.000122,362.494843 
	C552.499390,362.528320 554.000000,362.500000 555.500000,362.500000 
"/>
<path fill="none" opacity="1.000000" stroke="#000000" stroke-linecap="round" stroke-linejoin="round" stroke-width="4.000000"
	d="
M363.000000,349.000000 
	C363.333344,353.833344 363.666656,358.666656 364.000000,363.500000 
"/>
<path fill="none" opacity="1.000000" stroke="#000000" stroke-linecap="round" stroke-linejoin="round" stroke-width="4.000000"
	d="
M329.500000,348.500000 
	C329.500000,353.166656 329.500000,357.833344 329.500000,362.500000 
"/>
<path fill="none" opacity="1.000000" stroke="#000000" stroke-linecap="round" stroke-linejoin="round" stroke-width="4.000000"
	d="
M307.500000,348.500000 
	C304.988983,348.500000 302.477966,348.500000 299.750000,348.500000 
	C299.750000,353.333344 299.750000,357.666656 299.750000,362.500000 
	C302.477966,362.500000 304.988983,362.500000 307.500000,362.500000 
"/>
<path fill="none" opacity="1.000000" stroke="#000000" stroke-linecap="round" stroke-linejoin="round" stroke-width="4.000000"
	d="
M291.500000,351.000000 
	C293.360016,355.098938 292.528137,359.305542 292.000000,363.500000 
"/>
<path fill="none" opacity="1.000000" stroke="#000000" stroke-linecap="round" stroke-linejoin="round" stroke-width="3.000000"
	d="
M281.000000,351.500000 
	C278.868744,355.350159 280.522034,359.515717 280.000000,363.500000 
"/>
<path fill="none" opacity="1.000000" stroke="#000000" stroke-linecap="round" stroke-linejoin="round" stroke-width="3.000000"
	d="
M291.500000,349.500000 
	C288.929871,352.756012 287.460388,356.512299 286.500000,360.500000 
"/>
<path fill="none" opacity="1.000000" stroke="#000000" stroke-linecap="round" stroke-linejoin="round" stroke-width="4.000000"
	d="
M126.500000,349.500000 
	C127.942665,353.747986 127.430443,358.146362 127.500000,362.500000 
"/>
<path fill="none" opacity="1.000000" stroke="#000000" stroke-linecap="round" stroke-linejoin="round" stroke-width="4.000000"
	d="
M116.000000,349.000000 
	C115.666672,353.833344 115.333336,358.666656 115.000000,363.500000 
"/>
<path fill="none" opacity="1.000000" stroke="#000000" stroke-linecap="round" stroke-linejoin="round" stroke-width="4.000000"
	d="
M352.500000,349.500000 
	C351.057343,353.747986 351.569550,358.146362 351.500000,362.500000 
"/>
<path fill="none" opacity="1.000000" stroke="#000000" stroke-linecap="round" stroke-linejoin="round" stroke-width="3.000000"
	d="
M353.000000,351.000000 
	C355.951813,353.478973 356.143433,357.265411 357.500000,360.500000 
"/>
<path fill="none" opacity="1.000000" stroke="#000000" stroke-linecap="round" stroke-linejoin="round" stroke-width="3.000000"
	d="
M126.000000,351.000000 
	C122.858841,352.743530 124.031647,356.913635 121.500000,359.000000 
"/>
<path fill="none" opacity="1.000000" stroke="#000000" stroke-linecap="round" stroke-linejoin="round" stroke-width="3.000000"
	d="
M280.999969,349.000000 
	C282.333313,352.000000 283.666656,355.000000 284.999969,358.000000 
"/>
<path fill="none" opacity="1.000000" stroke="#000000" stroke-linecap="round" stroke-linejoin="round" stroke-width="4.000000"
	d="
M522.000000,356.500000 
	C522.940430,359.054047 523.227539,362.060425 526.500000,363.000000 
"/>
<path fill="none" opacity="1.000000" stroke="#000000" stroke-linecap="round" stroke-linejoin="round" stroke-width="4.000000"
	d="
M555.500000,348.500000 
	C552.500000,348.500000 549.500000,348.500000 546.500000,348.500000 
"/>
<path fill="none" opacity="1.000000" stroke="#000000" stroke-linecap="round" stroke-linejoin="round" stroke-width="6.000000"
	d="
M138.500000,348.500000 
	C138.500000,349.833344 138.362625,351.183929 138.527740,352.496521 
	C138.906235,355.505249 137.943436,357.661652 135.000000,358.750000 
"/>
<path fill="none" opacity="1.000000" stroke="#000000" stroke-linecap="round" stroke-linejoin="round" stroke-width="3.000000"
	d="
M117.000000,352.000000 
	C119.719719,354.187592 119.842072,357.750275 121.500000,360.500000 
"/>
<path fill="none" opacity="1.000000" stroke="#000000" stroke-linecap="round" stroke-linejoin="round" stroke-width="3.000000"
	d="
M502.500000,358.000000 
	C499.858398,358.947021 500.313995,362.709686 497.500000,363.500000 
"/>
<path fill="none" opacity="1.000000" stroke="#000000" stroke-linecap="round" stroke-linejoin="round" stroke-width="4.000000"
	d="
M555.500000,355.500000 
	C553.000000,355.500000 550.500000,355.500000 547.999573,355.500031 
	C547.054199,353.564941 547.582153,351.507050 547.500000,349.500000 
"/>
<path fill="none" opacity="1.000000" stroke="#000000" stroke-linecap="round" stroke-linejoin="round" stroke-width="3.000000"
	d="
M361.000000,353.000000 
	C360.000000,355.083344 359.000000,357.166656 358.000000,359.250000 
"/>
<path fill="none" opacity="1.000000" stroke="#000000" stroke-linecap="round" stroke-linejoin="round" stroke-width="4.000000"
	d="
M315.000000,348.500000 
	C312.288971,349.503357 313.716370,351.811951 313.567535,353.505920 
	C313.319702,356.327271 313.500000,359.186218 313.500000,361.932373 
	C320.792389,362.918793 322.419067,362.247040 322.458221,357.999603 
	C322.533234,349.851654 323.868195,348.305054 315.500000,348.500000 
"/>
</svg>