<svg version="1.1" id="Layer_1" xmlns="http://www.w3.org/2000/svg" xmlns:xlink="http://www.w3.org/1999/xlink" x="0px" y="0px"
	 width="100%" viewBox="0 0 512 512" enable-background="new 0 0 512 512" xml:space="preserve">
<path fill="#010101" opacity="1.000000" stroke="none" 
	d="
M0.999999,95.000000 
	C1.000000,63.698105 1.000000,32.396214 1.000000,1.000000 
	C113.688660,1.000000 226.377350,1.000000 339.834991,1.323570 
	C340.182526,2.154071 339.422852,2.643277 339.395203,3.170847 
	C339.229706,6.330113 338.068939,10.195156 339.449982,12.501086 
	C341.557129,16.019379 345.999512,16.060303 349.393280,13.738890 
	C352.583008,11.557037 352.811523,8.142339 351.206543,4.631059 
	C350.679413,3.477823 350.395264,2.213518 350.000000,0.999998 
	C404.318512,1.000000 458.637054,1.000000 512.977783,1.000000 
	C512.977783,171.605347 512.977783,342.210693 512.977783,512.908020 
	C342.441223,512.908020 171.882385,512.908020 1.000000,512.908020 
	C1.000000,377.311493 1.000000,241.622726 1.381813,105.237679 
	C5.070300,105.265350 8.376974,105.989311 11.718374,106.720871 
	C12.559642,116.260895 12.909135,116.934357 18.014109,116.937859 
	C19.551041,116.938919 21.933771,116.706818 22.466894,115.759048 
	C24.055668,112.934570 24.918394,109.701683 26.277922,106.056885 
	C29.951429,105.776222 35.773026,107.221588 35.933880,99.888000 
	C35.967216,98.367966 35.650822,95.989136 34.691948,95.458588 
	C31.853653,93.888153 28.613445,93.044098 25.270407,91.820808 
	C24.473341,83.860634 23.540697,82.141975 19.283503,82.058517 
	C17.727043,82.028000 15.286756,82.127739 14.755660,83.042458 
	C13.054600,85.972214 12.058436,89.311249 10.846308,92.351646 
	C7.813521,93.167374 4.406760,94.083687 0.999999,95.000000 
M247.500000,239.925552 
	C190.868881,239.925552 134.237762,239.925552 77.323891,239.925552 
	C63.943375,286.457397 61.478153,333.322296 69.496078,380.706848 
	C173.309601,380.706848 276.529816,380.706848 380.037689,380.706848 
	C380.037689,373.610809 380.001251,366.804962 380.045868,359.999695 
	C380.120667,348.595856 387.541687,340.495697 398.896851,339.641602 
	C402.825256,339.346100 406.794556,339.594574 410.886749,339.594574 
	C411.853058,305.338867 408.198669,272.371582 398.680695,239.925552 
	C348.435944,239.925552 298.467957,239.925552 247.500000,239.925552 
M177.499985,502.877380 
	C231.909958,502.877380 286.319946,502.877380 340.695770,502.877380 
	C340.110596,499.143005 339.191101,495.904785 339.163422,492.658966 
	C339.016907,475.500610 339.016327,458.339874 339.122009,441.180908 
	C339.195282,429.286316 347.436127,421.135223 359.238159,421.053711 
	C366.720032,421.002014 374.202576,421.044067 380.558350,421.044067 
	C380.558350,410.870270 380.558350,401.040283 380.558350,391.262024 
	C276.841644,391.262024 174.298630,391.262024 71.153687,391.262024 
	C73.007347,398.722229 74.666199,405.826569 76.543945,412.872589 
	C81.506409,431.493774 80.624634,449.767242 73.535172,467.711639 
	C65.930336,486.960480 76.754463,502.850616 97.532516,502.870758 
	C123.854980,502.896271 150.177490,502.877197 177.499985,502.877380 
M111.499947,229.198654 
	C206.316360,229.198334 301.132782,229.206940 395.949188,229.187103 
	C408.707001,229.184433 414.821228,223.184296 414.867249,210.777145 
	C414.899384,202.112137 414.881256,193.446899 414.871765,184.781784 
	C414.856873,171.188995 408.638000,165.002884 394.981995,165.002197 
	C339.158539,164.999329 283.335114,165.000916 227.511673,165.000977 
	C178.020447,165.001022 128.529205,164.984894 79.038010,165.014664 
	C68.734421,165.020859 61.497231,171.432861 61.216129,181.250778 
	C60.911030,191.906738 60.935452,202.583435 61.205952,213.241196 
	C61.445484,222.678879 68.007530,228.978775 77.506836,229.130173 
	C88.502106,229.305420 99.502037,229.188660 111.499947,229.198654 
M187.500000,154.999985 
	C253.000229,154.999985 318.500458,154.999985 384.000702,154.999985 
	C384.141907,154.550644 384.283112,154.101303 384.424316,153.651962 
	C379.848328,150.105499 375.386902,146.397766 370.671692,143.047226 
	C361.769196,136.721313 354.309113,128.944122 350.771210,118.657692 
	C346.651917,106.680809 338.389435,99.374725 327.718170,93.807190 
	C316.388519,87.896172 306.854980,79.717812 301.189850,68.209511 
	C296.995361,59.688686 290.338501,55.064167 282.006042,51.970165 
	C263.195801,44.985565 243.687775,43.834538 223.940353,45.479103 
	C211.460617,46.518421 199.266357,48.982941 187.919189,54.685307 
	C182.388092,57.464890 178.247726,61.262890 175.546249,67.074242 
	C170.492310,77.946220 162.310684,86.077568 151.823517,91.937881 
	C147.043182,94.609192 141.961685,97.033897 137.869415,100.559998 
	C133.956665,103.931419 129.927582,108.104195 128.087082,112.768211 
	C122.623985,126.612236 114.010162,137.474930 101.666695,145.652771 
	C98.065933,148.038376 94.952782,151.159988 91.616127,153.944244 
	C91.816368,154.296158 92.016609,154.648071 92.216850,154.999985 
	C123.644569,154.999985 155.072281,154.999985 187.500000,154.999985 
M453.130646,431.702698 
	C449.131287,431.707336 445.130859,431.653900 441.132843,431.729584 
	C434.253052,431.859802 431.320618,434.681458 431.296082,441.431213 
	C431.234375,458.428314 431.232422,475.425964 431.296387,492.423035 
	C431.322845,499.454681 434.763489,502.956116 441.666748,502.981781 
	C458.663818,503.044952 475.661469,503.048828 492.658508,502.978912 
	C499.288879,502.951599 502.943512,499.373871 502.974487,492.821136 
	C503.055542,475.657532 503.049316,458.493103 502.976685,441.329437 
	C502.950439,435.128998 499.682922,431.476685 493.543060,431.419861 
	C480.386505,431.298096 467.226349,431.564453 453.130646,431.702698 
M462.124359,380.500061 
	C462.119385,373.502808 462.221222,366.503296 462.076294,359.508972 
	C461.956512,353.729401 458.444824,350.092346 452.679077,350.052582 
	C435.186615,349.931885 417.691956,349.907471 400.200043,350.061279 
	C394.390137,350.112335 390.825714,353.713837 390.767426,359.424255 
	C390.588837,376.914398 390.505249,394.407227 390.614960,411.897583 
	C390.654510,418.208954 393.642365,420.995026 399.907349,421.036163 
	C417.213196,421.149811 434.519989,421.146790 451.826385,421.147827 
	C459.349548,421.148254 462.065735,418.475677 462.109558,410.988678 
	C462.167084,401.159454 462.124115,391.329620 462.124359,380.500061 
M399.498627,431.845642 
	C386.003021,431.810425 372.506744,431.681091 359.012146,431.782074 
	C352.824921,431.828400 349.890289,434.902191 349.867493,441.069672 
	C349.803528,458.398285 349.801422,475.727509 349.869507,493.056091 
	C349.893188,499.091034 353.330444,502.872528 359.347656,502.928467 
	C377.008087,503.092773 394.671967,503.075287 412.332581,502.918427 
	C417.580414,502.871826 421.002136,499.143097 421.018372,493.988159 
	C421.075104,475.992981 421.080750,457.997345 421.014862,440.002228 
	C420.996307,434.942871 418.097961,432.002106 412.988403,431.800232 
	C408.831238,431.635956 404.661285,431.795868 399.498627,431.845642 
M418.479462,75.015160 
	C414.640808,77.415161 410.802185,79.815163 406.253174,82.659302 
	C417.374023,84.032814 421.828644,92.043571 426.167419,101.475227 
	C429.171112,90.413704 435.193542,84.344620 445.797119,82.372795 
	C440.947052,79.742775 436.248718,78.248886 433.072021,75.179947 
	C429.808838,72.027420 428.031860,67.336510 425.803558,63.648296 
	C423.717133,66.977112 421.359161,70.739151 418.479462,75.015160 
M476.111206,277.475922 
	C476.995422,279.305267 477.879639,281.134613 479.186127,283.837555 
	C481.918915,276.729187 486.083282,271.798615 493.087372,269.532257 
	C485.720703,268.066498 482.284668,262.426300 478.647308,255.755722 
	C476.983704,264.049377 471.310730,266.832550 466.323029,269.523895 
	C469.649048,272.012604 472.807434,274.375916 476.111206,277.475922 
M20.002266,269.422791 
	C20.413397,274.141632 22.569553,276.102844 27.230347,275.997223 
	C31.764761,275.894470 34.187450,273.482056 33.954063,268.881714 
	C33.768791,265.229889 32.711449,262.104279 28.090012,261.979370 
	C22.397444,261.825500 20.446810,263.341003 20.002266,269.422791 
z"/>
<path fill="#87D147" opacity="1.000000" stroke="none" 
	d="
M0.999999,95.454102 
	C4.406760,94.083687 7.813521,93.167374 10.846308,92.351646 
	C12.058436,89.311249 13.054600,85.972214 14.755660,83.042458 
	C15.286756,82.127739 17.727043,82.028000 19.283503,82.058517 
	C23.540697,82.141975 24.473341,83.860634 25.270407,91.820808 
	C28.613445,93.044098 31.853653,93.888153 34.691948,95.458588 
	C35.650822,95.989136 35.967216,98.367966 35.933880,99.888000 
	C35.773026,107.221588 29.951429,105.776222 26.277922,106.056885 
	C24.918394,109.701683 24.055668,112.934570 22.466894,115.759048 
	C21.933771,116.706818 19.551041,116.938919 18.014109,116.937859 
	C12.909135,116.934357 12.559642,116.260895 11.718374,106.720871 
	C8.376974,105.989311 5.070300,105.265350 1.381813,104.770691 
	C1.000000,101.969406 1.000000,98.938812 0.999999,95.454102 
z"/>
<path fill="#70D6F9" opacity="1.000000" stroke="none" 
	d="
M349.545898,0.999998 
	C350.395264,2.213518 350.679413,3.477823 351.206543,4.631059 
	C352.811523,8.142339 352.583008,11.557037 349.393280,13.738890 
	C345.999512,16.060303 341.557129,16.019379 339.449982,12.501086 
	C338.068939,10.195156 339.229706,6.330113 339.395203,3.170847 
	C339.422852,2.643277 340.182526,2.154071 340.301971,1.323570 
	C343.030609,1.000000 346.061188,1.000000 349.545898,0.999998 
z"/>
<path fill="#F4C74C" opacity="1.000000" stroke="none" 
	d="
M248.000000,239.925552 
	C298.467957,239.925552 348.435944,239.925552 398.680695,239.925552 
	C408.198669,272.371582 411.853058,305.338867 410.886749,339.594574 
	C406.794556,339.594574 402.825256,339.346100 398.896851,339.641602 
	C387.541687,340.495697 380.120667,348.595856 380.045868,359.999695 
	C380.001251,366.804962 380.037689,373.610809 380.037689,380.706848 
	C276.529816,380.706848 173.309601,380.706848 69.496078,380.706848 
	C61.478153,333.322296 63.943375,286.457397 77.323891,239.925552 
	C134.237762,239.925552 190.868881,239.925552 248.000000,239.925552 
M331.117889,275.315582 
	C326.397461,275.406342 324.918274,278.030579 324.943207,282.469360 
	C325.054504,302.289490 324.991425,322.110626 324.991882,341.931396 
	C324.991882,342.597626 324.965118,343.265869 325.006348,343.929749 
	C325.198639,347.023682 326.692230,349.012756 329.930054,349.047272 
	C333.136078,349.081482 334.821381,347.221161 334.976288,344.084137 
	C335.091187,341.757812 335.007812,339.421570 335.008209,337.089752 
	C335.009491,329.343903 335.008667,321.598053 335.008667,314.440125 
	C344.154480,311.552917 348.834686,315.095917 352.204041,322.871338 
	C355.692078,330.920624 360.491577,338.404846 364.771606,346.106079 
	C366.399353,349.034882 369.280243,350.387909 371.767853,348.244476 
	C373.247894,346.969177 373.389130,343.754425 373.465729,341.390015 
	C373.507294,340.105560 372.146912,338.779694 371.430817,337.466034 
	C367.146240,329.605896 362.865143,321.743866 358.613800,313.939301 
	C359.148071,313.495148 359.349915,313.217987 359.617157,313.120941 
	C370.733032,309.083588 375.844391,301.106720 373.982239,290.674683 
	C372.304474,281.275696 364.255951,275.365723 353.001312,275.315826 
	C346.005890,275.284790 339.010223,275.310486 331.117889,275.315582 
M112.254326,297.731476 
	C111.199730,290.595276 113.668228,286.050110 119.814850,285.667969 
	C132.905472,284.854156 138.653473,284.376678 140.884979,293.120758 
	C140.925705,293.280273 140.926926,293.451080 140.936279,293.617218 
	C141.149750,297.408020 142.946930,299.761963 146.938538,299.103546 
	C151.132675,298.411713 151.298126,295.068451 150.844360,291.735931 
	C149.758118,283.758514 143.680664,276.963409 135.674911,275.965881 
	C129.791031,275.232819 123.678848,275.165405 117.794800,275.864746 
	C108.185585,277.006805 101.684868,284.991669 101.697617,294.452332 
	C101.710434,303.964661 108.198746,311.832306 117.702217,313.182831 
	C122.283417,313.833862 126.997093,313.518707 131.646606,313.732025 
	C136.937943,313.974762 140.257721,316.874603 140.921341,321.691620 
	C142.212982,331.067261 140.248047,336.809540 135.009964,338.588379 
	C133.783264,339.004974 132.398193,339.049500 131.081039,339.085663 
	C128.418488,339.158752 125.752495,339.122925 123.088066,339.106842 
	C115.565849,339.061371 113.787544,337.309509 111.680466,330.100922 
	C111.101555,328.120392 108.396545,325.623932 106.462738,325.432861 
	C103.245888,325.115021 101.819809,327.819092 101.869926,331.193359 
	C102.002884,340.146118 109.686958,348.415894 118.907768,349.005280 
	C123.552025,349.302094 128.234940,349.242767 132.890076,349.068848 
	C142.654968,348.704041 150.212204,341.045166 150.862839,331.072968 
	C151.878571,315.504395 146.535889,305.952606 135.644958,304.033142 
	C133.690796,303.688721 131.666428,303.689636 129.671783,303.640839 
	C127.008766,303.575714 124.340820,303.686646 121.679146,303.597717 
	C117.791664,303.467804 114.514961,302.170532 112.254326,297.731476 
M244.144943,275.315094 
	C240.646683,275.324554 237.138290,275.165649 233.652039,275.375031 
	C223.222168,276.001434 215.323563,283.416321 215.093842,293.353363 
	C214.801315,306.007202 214.789261,318.678833 215.102661,331.331726 
	C215.345352,341.130280 223.408249,348.740936 233.261475,349.078339 
	C237.587341,349.226501 241.928818,349.242584 246.252548,349.062531 
	C255.849915,348.662903 263.541046,341.087250 264.028351,331.480194 
	C264.272827,326.660797 264.078857,321.820343 264.138702,316.990082 
	C264.190735,312.792969 262.095917,310.920197 257.983551,310.981842 
	C254.152817,311.039246 250.319016,311.061401 246.489395,310.974396 
	C242.985519,310.894775 240.323746,312.248016 240.288132,315.887543 
	C240.249405,319.848633 243.091660,321.158356 246.771362,321.023193 
	C249.180359,320.934723 251.595230,321.006500 254.111420,321.006500 
	C254.111420,324.265869 254.161163,326.763977 254.101730,329.259430 
	C253.945786,335.806549 250.778656,338.963043 244.200409,339.100464 
	C241.036606,339.166565 237.868408,339.178589 234.705414,339.094299 
	C228.533051,338.929932 225.099731,335.625183 225.041763,329.472229 
	C224.933502,317.978516 224.929062,306.482208 225.043518,294.988586 
	C225.101944,289.122131 228.390015,285.895416 234.328583,285.374481 
	C247.026077,284.260651 252.433594,286.216064 253.929245,292.469360 
	C254.006149,292.790833 254.020172,293.129059 254.045547,293.460876 
	C254.325394,297.121490 255.866898,299.701599 259.957275,299.140106 
	C264.247101,298.551147 264.338165,295.213196 263.995697,291.880341 
	C263.063782,282.811432 255.987656,276.649292 244.144943,275.315094 
M206.292450,334.489868 
	C206.490448,332.843994 206.855774,331.198578 206.860443,329.552155 
	C206.904816,313.892883 206.856491,298.233307 206.911942,282.574127 
	C206.925095,278.859924 206.137833,275.521820 201.799164,275.520386 
	C197.387405,275.518921 196.805191,278.909729 196.829407,282.607147 
	C196.915573,295.767151 196.862366,308.928040 196.862198,322.088593 
	C196.862015,338.135223 195.867172,339.138428 179.980576,339.109741 
	C170.216187,339.092102 167.705856,336.554688 167.697159,326.631104 
	C167.684021,311.638062 167.693436,296.645050 167.684479,281.652008 
	C167.682434,278.238373 166.380539,275.527557 162.660004,275.490265 
	C158.931610,275.452942 157.614059,278.056488 157.622070,281.548431 
	C157.659454,297.873901 157.449005,314.203156 157.738541,330.523743 
	C157.934937,341.594086 165.876572,348.933777 177.054642,349.125946 
	C180.385452,349.183228 183.718536,349.172424 187.049744,349.128326 
	C196.740768,349.000000 202.819748,344.573425 206.292450,334.489868 
M305.806915,337.721924 
	C306.532379,340.107544 307.232941,342.501129 307.989532,344.876862 
	C308.982178,347.993622 310.998749,349.922607 314.337708,348.753326 
	C317.265961,347.727905 318.121277,345.289429 317.185028,342.244263 
	C310.785797,321.430603 304.492310,300.583588 297.893768,279.833527 
	C297.324280,278.042694 294.669525,275.595825 293.206360,275.738586 
	C291.330719,275.921600 288.686707,278.102051 288.086853,279.971558 
	C281.535736,300.388336 275.330719,320.916107 269.000427,341.404022 
	C267.987122,344.683533 268.316498,347.630615 271.842224,348.805054 
	C275.748474,350.106201 277.657623,347.510834 278.711090,344.143982 
	C279.654236,341.129517 280.297943,337.988220 281.574890,335.126465 
	C282.145599,333.847412 283.904907,332.331116 285.190002,332.268860 
	C291.333191,331.971344 297.498749,332.135468 303.818939,332.135468 
	C304.425629,333.853638 304.974731,335.408783 305.806915,337.721924 
z"/>
<path fill="#FB657E" opacity="1.000000" stroke="none" 
	d="
M176.999969,502.877380 
	C150.177490,502.877197 123.854980,502.896271 97.532516,502.870758 
	C76.754463,502.850616 65.930336,486.960480 73.535172,467.711639 
	C80.624634,449.767242 81.506409,431.493774 76.543945,412.872589 
	C74.666199,405.826569 73.007347,398.722229 71.153687,391.262024 
	C174.298630,391.262024 276.841644,391.262024 380.558350,391.262024 
	C380.558350,401.040283 380.558350,410.870270 380.558350,421.044067 
	C374.202576,421.044067 366.720032,421.002014 359.238159,421.053711 
	C347.436127,421.135223 339.195282,429.286316 339.122009,441.180908 
	C339.016327,458.339874 339.016907,475.500610 339.163422,492.658966 
	C339.191101,495.904785 340.110596,499.143005 340.695770,502.877380 
	C286.319946,502.877380 231.909958,502.877380 176.999969,502.877380 
z"/>
<path fill="#F98FA6" opacity="1.000000" stroke="none" 
	d="
M110.999939,229.198669 
	C99.502037,229.188660 88.502106,229.305420 77.506836,229.130173 
	C68.007530,228.978775 61.445484,222.678879 61.205952,213.241196 
	C60.935452,202.583435 60.911030,191.906738 61.216129,181.250778 
	C61.497231,171.432861 68.734421,165.020859 79.038010,165.014664 
	C128.529205,164.984894 178.020447,165.001022 227.511673,165.000977 
	C283.335114,165.000916 339.158539,164.999329 394.981995,165.002197 
	C408.638000,165.002884 414.856873,171.188995 414.871765,184.781784 
	C414.881256,193.446899 414.899384,202.112137 414.867249,210.777145 
	C414.821228,223.184296 408.707001,229.184433 395.949188,229.187103 
	C301.132782,229.206940 206.316360,229.198334 110.999939,229.198669 
z"/>
<path fill="#ECF3FB" opacity="1.000000" stroke="none" 
	d="
M187.000000,154.999985 
	C155.072281,154.999985 123.644569,154.999985 92.216850,154.999985 
	C92.016609,154.648071 91.816368,154.296158 91.616127,153.944244 
	C94.952782,151.159988 98.065933,148.038376 101.666695,145.652771 
	C114.010162,137.474930 122.623985,126.612236 128.087082,112.768211 
	C129.927582,108.104195 133.956665,103.931419 137.869415,100.559998 
	C141.961685,97.033897 147.043182,94.609192 151.823517,91.937881 
	C162.310684,86.077568 170.492310,77.946220 175.546249,67.074242 
	C178.247726,61.262890 182.388092,57.464890 187.919189,54.685307 
	C199.266357,48.982941 211.460617,46.518421 223.940353,45.479103 
	C243.687775,43.834538 263.195801,44.985565 282.006042,51.970165 
	C290.338501,55.064167 296.995361,59.688686 301.189850,68.209511 
	C306.854980,79.717812 316.388519,87.896172 327.718170,93.807190 
	C338.389435,99.374725 346.651917,106.680809 350.771210,118.657692 
	C354.309113,128.944122 361.769196,136.721313 370.671692,143.047226 
	C375.386902,146.397766 379.848328,150.105499 384.424316,153.651962 
	C384.283112,154.101303 384.141907,154.550644 384.000702,154.999985 
	C318.500458,154.999985 253.000229,154.999985 187.000000,154.999985 
z"/>
<path fill="#EBF2FA" opacity="1.000000" stroke="none" 
	d="
M453.599182,431.687286 
	C467.226349,431.564453 480.386505,431.298096 493.543060,431.419861 
	C499.682922,431.476685 502.950439,435.128998 502.976685,441.329437 
	C503.049316,458.493103 503.055542,475.657532 502.974487,492.821136 
	C502.943512,499.373871 499.288879,502.951599 492.658508,502.978912 
	C475.661469,503.048828 458.663818,503.044952 441.666748,502.981781 
	C434.763489,502.956116 431.322845,499.454681 431.296387,492.423035 
	C431.232422,475.425964 431.234375,458.428314 431.296082,441.431213 
	C431.320618,434.681458 434.253052,431.859802 441.132843,431.729584 
	C445.130859,431.653900 449.131287,431.707336 453.599182,431.687286 
z"/>
<path fill="#ECF3FB" opacity="1.000000" stroke="none" 
	d="
M462.124390,381.000061 
	C462.124115,391.329620 462.167084,401.159454 462.109558,410.988678 
	C462.065735,418.475677 459.349548,421.148254 451.826385,421.147827 
	C434.519989,421.146790 417.213196,421.149811 399.907349,421.036163 
	C393.642365,420.995026 390.654510,418.208954 390.614960,411.897583 
	C390.505249,394.407227 390.588837,376.914398 390.767426,359.424255 
	C390.825714,353.713837 394.390137,350.112335 400.200043,350.061279 
	C417.691956,349.907471 435.186615,349.931885 452.679077,350.052582 
	C458.444824,350.092346 461.956512,353.729401 462.076294,359.508972 
	C462.221222,366.503296 462.119385,373.502808 462.124390,381.000061 
z"/>
<path fill="#EDF4FC" opacity="1.000000" stroke="none" 
	d="
M399.997803,431.828857 
	C404.661285,431.795868 408.831238,431.635956 412.988403,431.800232 
	C418.097961,432.002106 420.996307,434.942871 421.014862,440.002228 
	C421.080750,457.997345 421.075104,475.992981 421.018372,493.988159 
	C421.002136,499.143097 417.580414,502.871826 412.332581,502.918427 
	C394.671967,503.075287 377.008087,503.092773 359.347656,502.928467 
	C353.330444,502.872528 349.893188,499.091034 349.869507,493.056091 
	C349.801422,475.727509 349.803528,458.398285 349.867493,441.069672 
	C349.890289,434.902191 352.824921,431.828400 359.012146,431.782074 
	C372.506744,431.681091 386.003021,431.810425 399.997803,431.828857 
z"/>
<path fill="#F5C84C" opacity="1.000000" stroke="none" 
	d="
M418.740356,74.758171 
	C421.359161,70.739151 423.717133,66.977112 425.803558,63.648296 
	C428.031860,67.336510 429.808838,72.027420 433.072021,75.179947 
	C436.248718,78.248886 440.947052,79.742775 445.797119,82.372795 
	C435.193542,84.344620 429.171112,90.413704 426.167419,101.475227 
	C421.828644,92.043571 417.374023,84.032814 406.253174,82.659302 
	C410.802185,79.815163 414.640808,77.415161 418.740356,74.758171 
z"/>
<path fill="#FC657D" opacity="1.000000" stroke="none" 
	d="
M476.038513,277.107544 
	C472.807434,274.375916 469.649048,272.012604 466.323029,269.523895 
	C471.310730,266.832550 476.983704,264.049377 478.647308,255.755722 
	C482.284668,262.426300 485.720703,268.066498 493.087372,269.532257 
	C486.083282,271.798615 481.918915,276.729187 479.186127,283.837555 
	C477.879639,281.134613 476.995422,279.305267 476.038513,277.107544 
z"/>
<path fill="#F5C84C" opacity="1.000000" stroke="none" 
	d="
M20.002258,269.003113 
	C20.446810,263.341003 22.397444,261.825500 28.090012,261.979370 
	C32.711449,262.104279 33.768791,265.229889 33.954063,268.881714 
	C34.187450,273.482056 31.764761,275.894470 27.230347,275.997223 
	C22.569553,276.102844 20.413397,274.141632 20.002258,269.003113 
z"/>
<path fill="#060502" opacity="1.000000" stroke="none" 
	d="
M331.566284,275.313171 
	C339.010223,275.310486 346.005890,275.284790 353.001312,275.315826 
	C364.255951,275.365723 372.304474,281.275696 373.982239,290.674683 
	C375.844391,301.106720 370.733032,309.083588 359.617157,313.120941 
	C359.349915,313.217987 359.148071,313.495148 358.613800,313.939301 
	C362.865143,321.743866 367.146240,329.605896 371.430817,337.466034 
	C372.146912,338.779694 373.507294,340.105560 373.465729,341.390015 
	C373.389130,343.754425 373.247894,346.969177 371.767853,348.244476 
	C369.280243,350.387909 366.399353,349.034882 364.771606,346.106079 
	C360.491577,338.404846 355.692078,330.920624 352.204041,322.871338 
	C348.834686,315.095917 344.154480,311.552917 335.008667,314.440125 
	C335.008667,321.598053 335.009491,329.343903 335.008209,337.089752 
	C335.007812,339.421570 335.091187,341.757812 334.976288,344.084137 
	C334.821381,347.221161 333.136078,349.081482 329.930054,349.047272 
	C326.692230,349.012756 325.198639,347.023682 325.006348,343.929749 
	C324.965118,343.265869 324.991882,342.597626 324.991882,341.931396 
	C324.991425,322.110626 325.054504,302.289490 324.943207,282.469360 
	C324.918274,278.030579 326.397461,275.406342 331.566284,275.313171 
M363.947906,296.892517 
	C364.550995,290.032837 361.993378,285.710785 356.233643,285.335022 
	C349.342499,284.885437 342.399597,285.228912 335.359955,285.228912 
	C335.359955,291.446808 335.359955,297.292572 335.359955,303.297485 
	C342.174622,303.297485 348.634247,303.305786 355.093872,303.294495 
	C359.173828,303.287384 361.990143,301.315247 363.947906,296.892517 
z"/>
<path fill="#070602" opacity="1.000000" stroke="none" 
	d="
M112.458923,298.083771 
	C114.514961,302.170532 117.791664,303.467804 121.679146,303.597717 
	C124.340820,303.686646 127.008766,303.575714 129.671783,303.640839 
	C131.666428,303.689636 133.690796,303.688721 135.644958,304.033142 
	C146.535889,305.952606 151.878571,315.504395 150.862839,331.072968 
	C150.212204,341.045166 142.654968,348.704041 132.890076,349.068848 
	C128.234940,349.242767 123.552025,349.302094 118.907768,349.005280 
	C109.686958,348.415894 102.002884,340.146118 101.869926,331.193359 
	C101.819809,327.819092 103.245888,325.115021 106.462738,325.432861 
	C108.396545,325.623932 111.101555,328.120392 111.680466,330.100922 
	C113.787544,337.309509 115.565849,339.061371 123.088066,339.106842 
	C125.752495,339.122925 128.418488,339.158752 131.081039,339.085663 
	C132.398193,339.049500 133.783264,339.004974 135.009964,338.588379 
	C140.248047,336.809540 142.212982,331.067261 140.921341,321.691620 
	C140.257721,316.874603 136.937943,313.974762 131.646606,313.732025 
	C126.997093,313.518707 122.283417,313.833862 117.702217,313.182831 
	C108.198746,311.832306 101.710434,303.964661 101.697617,294.452332 
	C101.684868,284.991669 108.185585,277.006805 117.794800,275.864746 
	C123.678848,275.165405 129.791031,275.232819 135.674911,275.965881 
	C143.680664,276.963409 149.758118,283.758514 150.844360,291.735931 
	C151.298126,295.068451 151.132675,298.411713 146.938538,299.103546 
	C142.946930,299.761963 141.149750,297.408020 140.936279,293.617218 
	C140.926926,293.451080 140.925705,293.280273 140.884979,293.120758 
	C138.653473,284.376678 132.905472,284.854156 119.814850,285.667969 
	C113.668228,286.050110 111.199730,290.595276 112.458923,298.083771 
z"/>
<path fill="#050401" opacity="1.000000" stroke="none" 
	d="
M244.595703,275.318542 
	C255.987656,276.649292 263.063782,282.811432 263.995697,291.880341 
	C264.338165,295.213196 264.247101,298.551147 259.957275,299.140106 
	C255.866898,299.701599 254.325394,297.121490 254.045547,293.460876 
	C254.020172,293.129059 254.006149,292.790833 253.929245,292.469360 
	C252.433594,286.216064 247.026077,284.260651 234.328583,285.374481 
	C228.390015,285.895416 225.101944,289.122131 225.043518,294.988586 
	C224.929062,306.482208 224.933502,317.978516 225.041763,329.472229 
	C225.099731,335.625183 228.533051,338.929932 234.705414,339.094299 
	C237.868408,339.178589 241.036606,339.166565 244.200409,339.100464 
	C250.778656,338.963043 253.945786,335.806549 254.101730,329.259430 
	C254.161163,326.763977 254.111420,324.265869 254.111420,321.006500 
	C251.595230,321.006500 249.180359,320.934723 246.771362,321.023193 
	C243.091660,321.158356 240.249405,319.848633 240.288132,315.887543 
	C240.323746,312.248016 242.985519,310.894775 246.489395,310.974396 
	C250.319016,311.061401 254.152817,311.039246 257.983551,310.981842 
	C262.095917,310.920197 264.190735,312.792969 264.138702,316.990082 
	C264.078857,321.820343 264.272827,326.660797 264.028351,331.480194 
	C263.541046,341.087250 255.849915,348.662903 246.252548,349.062531 
	C241.928818,349.242584 237.587341,349.226501 233.261475,349.078339 
	C223.408249,348.740936 215.345352,341.130280 215.102661,331.331726 
	C214.789261,318.678833 214.801315,306.007202 215.093842,293.353363 
	C215.323563,283.416321 223.222168,276.001434 233.652039,275.375031 
	C237.138290,275.165649 240.646683,275.324554 244.595703,275.318542 
z"/>
<path fill="#070602" opacity="1.000000" stroke="none" 
	d="
M206.199707,334.894470 
	C202.819748,344.573425 196.740768,349.000000 187.049744,349.128326 
	C183.718536,349.172424 180.385452,349.183228 177.054642,349.125946 
	C165.876572,348.933777 157.934937,341.594086 157.738541,330.523743 
	C157.449005,314.203156 157.659454,297.873901 157.622070,281.548431 
	C157.614059,278.056488 158.931610,275.452942 162.660004,275.490265 
	C166.380539,275.527557 167.682434,278.238373 167.684479,281.652008 
	C167.693436,296.645050 167.684021,311.638062 167.697159,326.631104 
	C167.705856,336.554688 170.216187,339.092102 179.980576,339.109741 
	C195.867172,339.138428 196.862015,338.135223 196.862198,322.088593 
	C196.862366,308.928040 196.915573,295.767151 196.829407,282.607147 
	C196.805191,278.909729 197.387405,275.518921 201.799164,275.520386 
	C206.137833,275.521820 206.925095,278.859924 206.911942,282.574127 
	C206.856491,298.233307 206.904816,313.892883 206.860443,329.552155 
	C206.855774,331.198578 206.490448,332.843994 206.199707,334.894470 
z"/>
<path fill="#050402" opacity="1.000000" stroke="none" 
	d="
M305.665405,337.342957 
	C304.974731,335.408783 304.425629,333.853638 303.818939,332.135468 
	C297.498749,332.135468 291.333191,331.971344 285.190002,332.268860 
	C283.904907,332.331116 282.145599,333.847412 281.574890,335.126465 
	C280.297943,337.988220 279.654236,341.129517 278.711090,344.143982 
	C277.657623,347.510834 275.748474,350.106201 271.842224,348.805054 
	C268.316498,347.630615 267.987122,344.683533 269.000427,341.404022 
	C275.330719,320.916107 281.535736,300.388336 288.086853,279.971558 
	C288.686707,278.102051 291.330719,275.921600 293.206360,275.738586 
	C294.669525,275.595825 297.324280,278.042694 297.893768,279.833527 
	C304.492310,300.583588 310.785797,321.430603 317.185028,342.244263 
	C318.121277,345.289429 317.265961,347.727905 314.337708,348.753326 
	C310.998749,349.922607 308.982178,347.993622 307.989532,344.876862 
	C307.232941,342.501129 306.532379,340.107544 305.665405,337.342957 
M299.319305,322.074951 
	C299.558472,321.148193 300.203979,320.102661 299.973206,319.313324 
	C297.949829,312.392578 295.770111,305.517548 293.220520,297.284943 
	C290.452179,306.170532 288.070435,313.815186 285.482727,322.120880 
	C290.186829,322.120880 294.273926,322.120880 299.319305,322.074951 
z"/>
<path fill="#F2C54B" opacity="1.000000" stroke="none" 
	d="
M363.828125,297.283264 
	C361.990143,301.315247 359.173828,303.287384 355.093872,303.294495 
	C348.634247,303.305786 342.174622,303.297485 335.359955,303.297485 
	C335.359955,297.292572 335.359955,291.446808 335.359955,285.228912 
	C342.399597,285.228912 349.342499,284.885437 356.233643,285.335022 
	C361.993378,285.710785 364.550995,290.032837 363.828125,297.283264 
z"/>
<path fill="#EDC24A" opacity="1.000000" stroke="none" 
	d="
M298.840149,322.097900 
	C294.273926,322.120880 290.186829,322.120880 285.482727,322.120880 
	C288.070435,313.815186 290.452179,306.170532 293.220520,297.284943 
	C295.770111,305.517548 297.949829,312.392578 299.973206,319.313324 
	C300.203979,320.102661 299.558472,321.148193 298.840149,322.097900 
z"/>
</svg>