<svg width="75" height="24" viewBox="0 0 75 24" fill="none" xmlns="http://www.w3.org/2000/svg">
<path fill-rule="evenodd" clip-rule="evenodd" d="M20.8 10.18C20.49 7.00002 18.61 2 12.8 2C6.99002 2 5.11001 7.00002 4.80002 10.18C3.71252 10.5927 2.9952 11.6368 3.00002 12.8V14.2C3.00002 15.7464 4.25365 17 5.80001 17C7.34642 17 8.60004 15.7464 8.60004 14.2V12.8C8.59498 11.6619 7.90404 10.6393 6.85001 10.21C7.05002 8.36998 8.03004 4.00002 12.8 4.00002C17.57 4.00002 18.54 8.36998 18.74 10.21C17.6882 10.6402 17.0007 11.6636 17 12.8V14.2C17.0022 14.7269 17.1524 15.2425 17.4335 15.6881C17.7147 16.1337 18.1154 16.4913 18.59 16.72C18.17 17.51 17.1 18.58 14.47 18.9C13.9443 18.1017 12.9272 17.787 12.0424 18.1489C11.1578 18.5108 10.6528 19.4481 10.8373 20.386C11.0218 21.3239 11.8442 22 12.8 22C13.1704 21.9979 13.5329 21.8931 13.8472 21.6971C14.1615 21.5011 14.4152 21.2217 14.58 20.89C18.87 20.4 20.24 18.19 20.67 16.89C21.8333 16.5132 22.6157 15.4227 22.6 14.2V12.8C22.6048 11.6368 21.8875 10.5927 20.8 10.18ZM6.60002 14.2C6.60002 14.6418 6.24185 15 5.80001 15C5.35816 15 5.00004 14.6419 5.00004 14.2V12.8C4.99923 12.6944 5.01933 12.5897 5.05917 12.492C5.09901 12.3942 5.15781 12.3053 5.23217 12.2304C5.30654 12.1554 5.395 12.0959 5.49247 12.0553C5.58993 12.0148 5.69446 11.9939 5.80003 11.9939C5.90561 11.9939 6.01014 12.0148 6.1076 12.0553C6.20506 12.0959 6.29352 12.1554 6.36789 12.2304C6.44226 12.3053 6.50105 12.3942 6.5409 12.492C6.58074 12.5897 6.60083 12.6944 6.60002 12.8V14.2ZM19 12.8C19 12.3582 19.3582 12 19.8 12C20.2419 12 20.6 12.3582 20.6 12.8V14.2C20.6 14.6418 20.2419 15 19.8 15C19.3582 15 19 14.6419 19 14.2V12.8Z" fill="white"/>
<path d="M34.8295 9.45455C34.7784 9.02273 34.571 8.6875 34.2074 8.44886C33.8438 8.21023 33.3977 8.09091 32.8693 8.09091C32.483 8.09091 32.1449 8.15341 31.8551 8.27841C31.5682 8.40341 31.3438 8.57528 31.1818 8.79403C31.0227 9.01278 30.9432 9.26136 30.9432 9.53977C30.9432 9.77273 30.9986 9.97301 31.1094 10.1406C31.223 10.3054 31.3679 10.4432 31.544 10.554C31.7202 10.6619 31.9048 10.7514 32.098 10.8224C32.2912 10.8906 32.4688 10.946 32.6307 10.9886L33.517 11.2273C33.7443 11.2869 33.9972 11.3693 34.2756 11.4744C34.5568 11.5795 34.8253 11.723 35.081 11.9048C35.3395 12.0838 35.5526 12.3139 35.7202 12.5952C35.8878 12.8764 35.9716 13.2216 35.9716 13.6307C35.9716 14.1023 35.848 14.5284 35.6009 14.9091C35.3565 15.2898 34.9986 15.5923 34.527 15.8168C34.0582 16.0412 33.4886 16.1534 32.8182 16.1534C32.1932 16.1534 31.652 16.0526 31.1946 15.8509C30.7401 15.6491 30.3821 15.3679 30.1207 15.0071C29.8622 14.6463 29.7159 14.2273 29.6818 13.75H30.7727C30.8011 14.0795 30.9119 14.3523 31.1051 14.5682C31.3011 14.7812 31.5483 14.9403 31.8466 15.0455C32.1477 15.1477 32.4716 15.1989 32.8182 15.1989C33.2216 15.1989 33.5838 15.1335 33.9048 15.0028C34.2259 14.8693 34.4801 14.6847 34.6676 14.4489C34.8551 14.2102 34.9489 13.9318 34.9489 13.6136C34.9489 13.3239 34.8679 13.0881 34.706 12.9062C34.544 12.7244 34.331 12.5767 34.0668 12.4631C33.8026 12.3494 33.517 12.25 33.2102 12.1648L32.1364 11.858C31.4545 11.6619 30.9148 11.3821 30.517 11.0185C30.1193 10.6548 29.9205 10.179 29.9205 9.59091C29.9205 9.10227 30.0526 8.67614 30.3168 8.3125C30.5838 7.94602 30.9418 7.66193 31.3906 7.46023C31.8423 7.25568 32.3466 7.15341 32.9034 7.15341C33.4659 7.15341 33.9659 7.25426 34.4034 7.45597C34.8409 7.65483 35.1875 7.92756 35.4432 8.27415C35.7017 8.62074 35.8381 9.0142 35.8523 9.45455H34.8295ZM41.6978 13.3239V9.45455H42.7035V16H41.6978V14.892H41.6296C41.4762 15.2244 41.2376 15.5071 40.9137 15.7401C40.5898 15.9702 40.1808 16.0852 39.6864 16.0852C39.2773 16.0852 38.9137 15.9957 38.5955 15.8168C38.2773 15.6349 38.0273 15.3622 37.8455 14.9986C37.6637 14.6321 37.5728 14.1705 37.5728 13.6136V9.45455H38.5785V13.5455C38.5785 14.0227 38.712 14.4034 38.979 14.6875C39.2489 14.9716 39.5927 15.1136 40.0103 15.1136C40.2603 15.1136 40.5146 15.0497 40.7731 14.9219C41.0344 14.794 41.2532 14.598 41.4293 14.3338C41.6083 14.0696 41.6978 13.733 41.6978 13.3239ZM44.5455 18.4545V9.45455H45.517V10.4943H45.6364C45.7102 10.3807 45.8125 10.2358 45.9432 10.0597C46.0767 9.88068 46.267 9.72159 46.5142 9.58239C46.7642 9.44034 47.1023 9.36932 47.5284 9.36932C48.0795 9.36932 48.5653 9.5071 48.9858 9.78267C49.4063 10.0582 49.7344 10.4489 49.9702 10.9545C50.206 11.4602 50.3239 12.0568 50.3239 12.7443C50.3239 13.4375 50.206 14.0384 49.9702 14.5469C49.7344 15.0526 49.4077 15.4446 48.9901 15.723C48.5724 15.9986 48.0909 16.1364 47.5455 16.1364C47.125 16.1364 46.7884 16.0668 46.5355 15.9276C46.2827 15.7855 46.0881 15.625 45.9517 15.446C45.8153 15.2642 45.7102 15.1136 45.6364 14.9943H45.5511V18.4545H44.5455ZM45.5341 12.7273C45.5341 13.2216 45.6065 13.6577 45.7514 14.0355C45.8963 14.4105 46.108 14.7045 46.3864 14.9176C46.6648 15.1278 47.0057 15.233 47.4091 15.233C47.8295 15.233 48.1804 15.1222 48.4616 14.9006C48.7457 14.6761 48.9588 14.375 49.1009 13.9972C49.2457 13.6165 49.3182 13.1932 49.3182 12.7273C49.3182 12.267 49.2472 11.8523 49.1051 11.483C48.9659 11.1108 48.7543 10.8168 48.4702 10.6009C48.1889 10.3821 47.8352 10.2727 47.4091 10.2727C47 10.2727 46.6563 10.3764 46.3778 10.5838C46.0994 10.7884 45.8892 11.0753 45.7472 11.4446C45.6051 11.8111 45.5341 12.2386 45.5341 12.7273ZM51.858 18.4545V9.45455H52.8295V10.4943H52.9489C53.0227 10.3807 53.125 10.2358 53.2557 10.0597C53.3892 9.88068 53.5795 9.72159 53.8267 9.58239C54.0767 9.44034 54.4148 9.36932 54.8409 9.36932C55.392 9.36932 55.8778 9.5071 56.2983 9.78267C56.7188 10.0582 57.0469 10.4489 57.2827 10.9545C57.5185 11.4602 57.6364 12.0568 57.6364 12.7443C57.6364 13.4375 57.5185 14.0384 57.2827 14.5469C57.0469 15.0526 56.7202 15.4446 56.3026 15.723C55.8849 15.9986 55.4034 16.1364 54.858 16.1364C54.4375 16.1364 54.1009 16.0668 53.848 15.9276C53.5952 15.7855 53.4006 15.625 53.2642 15.446C53.1278 15.2642 53.0227 15.1136 52.9489 14.9943H52.8636V18.4545H51.858ZM52.8466 12.7273C52.8466 13.2216 52.919 13.6577 53.0639 14.0355C53.2088 14.4105 53.4205 14.7045 53.6989 14.9176C53.9773 15.1278 54.3182 15.233 54.7216 15.233C55.142 15.233 55.4929 15.1222 55.7741 14.9006C56.0582 14.6761 56.2713 14.375 56.4134 13.9972C56.5582 13.6165 56.6307 13.1932 56.6307 12.7273C56.6307 12.267 56.5597 11.8523 56.4176 11.483C56.2784 11.1108 56.0668 10.8168 55.7827 10.6009C55.5014 10.3821 55.1477 10.2727 54.7216 10.2727C54.3125 10.2727 53.9688 10.3764 53.6903 10.5838C53.4119 10.7884 53.2017 11.0753 53.0597 11.4446C52.9176 11.8111 52.8466 12.2386 52.8466 12.7273ZM61.8295 16.1364C61.2386 16.1364 60.7202 15.9957 60.2741 15.7145C59.831 15.4332 59.4844 15.0398 59.2344 14.5341C58.9872 14.0284 58.8636 13.4375 58.8636 12.7614C58.8636 12.0795 58.9872 11.4844 59.2344 10.9759C59.4844 10.4673 59.831 10.0724 60.2741 9.79119C60.7202 9.50994 61.2386 9.36932 61.8295 9.36932C62.4205 9.36932 62.9375 9.50994 63.3807 9.79119C63.8267 10.0724 64.1733 10.4673 64.4205 10.9759C64.6705 11.4844 64.7955 12.0795 64.7955 12.7614C64.7955 13.4375 64.6705 14.0284 64.4205 14.5341C64.1733 15.0398 63.8267 15.4332 63.3807 15.7145C62.9375 15.9957 62.4205 16.1364 61.8295 16.1364ZM61.8295 15.233C62.2784 15.233 62.6477 15.1179 62.9375 14.8878C63.2273 14.6577 63.4418 14.3551 63.581 13.9801C63.7202 13.6051 63.7898 13.1989 63.7898 12.7614C63.7898 12.3239 63.7202 11.9162 63.581 11.5384C63.4418 11.1605 63.2273 10.8551 62.9375 10.6222C62.6477 10.3892 62.2784 10.2727 61.8295 10.2727C61.3807 10.2727 61.0114 10.3892 60.7216 10.6222C60.4318 10.8551 60.2173 11.1605 60.0781 11.5384C59.9389 11.9162 59.8693 12.3239 59.8693 12.7614C59.8693 13.1989 59.9389 13.6051 60.0781 13.9801C60.2173 14.3551 60.4318 14.6577 60.7216 14.8878C61.0114 15.1179 61.3807 15.233 61.8295 15.233ZM66.3306 16V9.45455H67.3022V10.4432H67.3704C67.4897 10.1193 67.7056 9.85653 68.0181 9.65483C68.3306 9.45312 68.6829 9.35227 69.0749 9.35227C69.1488 9.35227 69.2411 9.35369 69.3519 9.35653C69.4627 9.35937 69.5465 9.36364 69.6033 9.36932V10.392C69.5692 10.3835 69.4911 10.3707 69.369 10.3537C69.2496 10.3338 69.1232 10.3239 68.9897 10.3239C68.6715 10.3239 68.3874 10.3906 68.1374 10.5241C67.8903 10.6548 67.6942 10.8366 67.5494 11.0696C67.4073 11.2997 67.3363 11.5625 67.3363 11.858V16H66.3306ZM74.0522 9.45455V10.3068H70.6602V9.45455H74.0522ZM71.6488 7.88636H72.6545V14.125C72.6545 14.4091 72.6957 14.6222 72.7781 14.7642C72.8633 14.9034 72.9712 14.9972 73.1019 15.0455C73.2354 15.0909 73.3761 15.1136 73.5238 15.1136C73.6346 15.1136 73.7255 15.108 73.7965 15.0966C73.8675 15.0824 73.9244 15.071 73.967 15.0625L74.1715 15.9659C74.1033 15.9915 74.0082 16.017 73.886 16.0426C73.7638 16.071 73.609 16.0852 73.4215 16.0852C73.1374 16.0852 72.859 16.0241 72.5863 15.902C72.3164 15.7798 72.092 15.5938 71.913 15.3438C71.7369 15.0938 71.6488 14.7784 71.6488 14.3977V7.88636Z" fill="white"/>
</svg>
