<svg width="37" height="40" viewBox="0 0 37 40" fill="none" xmlns="http://www.w3.org/2000/svg">
<ellipse cx="18.1395" cy="20" rx="18.0697" ry="20" fill="#EEEEEE"/>
<path d="M14.5255 29H11.815C11.3358 29 10.8762 28.7893 10.5373 28.4142C10.1984 28.0391 10.0081 27.5304 10.0081 27V20C10.0081 19.4696 10.1984 18.9609 10.5373 18.5858C10.8762 18.2107 11.3358 18 11.815 18H14.5255M20.8499 16V12C20.8499 11.2044 20.5643 10.4413 20.056 9.87868C19.5477 9.31607 18.8583 9 18.1394 9L14.5255 18V29H24.7168C25.1526 29.0055 25.5754 28.8364 25.9075 28.524C26.2396 28.2116 26.4584 27.7769 26.5238 27.3L27.7706 18.3C27.8099 18.0134 27.7924 17.7207 27.7194 17.4423C27.6464 17.1638 27.5195 16.9063 27.3476 16.6875C27.1757 16.4687 26.9629 16.2939 26.724 16.1752C26.485 16.0565 26.2255 15.9967 25.9636 16H20.8499Z" stroke="#282323" stroke-width="2" stroke-linecap="round" stroke-linejoin="round"/>
</svg>
