<svg version="1.1" id="Layer_1" xmlns="http://www.w3.org/2000/svg" xmlns:xlink="http://www.w3.org/1999/xlink" x="0px" y="0px"
	 width="100%" viewBox="0 0 656 1024" enable-background="new 0 0 656 1024" xml:space="preserve">
<path fill="#000000" opacity="1.000000" stroke="none" 
	d="
M1.000000,948.468628 
	C3.565274,949.057922 6.263879,948.654541 8.908099,948.654785 
	C222.135452,948.670105 435.362793,948.666687 648.590149,948.670227 
	C651.087952,948.670227 653.585693,948.743835 656.541748,948.891541 
	C657.000000,974.319641 657.000000,999.639221 657.000000,1024.953491 
	C438.333313,1024.948120 219.666656,1024.948120 1.000000,1024.948120 
	C1.000000,999.576599 1.000000,974.256958 1.000000,948.468628 
M446.572235,997.755493 
	C449.062897,996.114319 449.196442,994.009155 447.402405,991.891785 
	C445.937988,990.163208 444.002960,990.026855 442.044189,991.261841 
	C440.226929,992.407654 439.723969,994.140503 440.445709,995.995239 
	C441.473389,998.636169 443.433716,999.359192 445.988098,998.003601 
	C445.988098,998.003601 445.954773,998.025574 446.572235,997.755493 
M93.995056,998.004944 
	C93.995056,998.004944 93.962311,997.975769 94.441147,998.531189 
	C99.656059,1000.841064 103.447418,999.755249 105.685089,995.311035 
	C107.989037,990.735168 106.524727,985.822937 101.386833,982.901184 
	C99.176949,982.973022 96.967072,983.044861 94.147430,983.338867 
	C89.238640,988.172424 89.195564,993.451233 93.995056,998.004944 
M583.282837,994.217102 
	C583.814880,993.128235 583.817993,992.068848 582.988464,990.345764 
	C582.582214,988.213196 581.666443,986.328308 579.153564,986.870667 
	C575.857056,987.582092 575.651428,990.615417 575.608337,993.174011 
	C575.569580,995.479614 576.363953,997.949158 579.085571,998.509827 
	C581.911987,999.092102 582.829773,997.158813 583.282837,994.217102 
M52.345631,983.224609 
	C47.630402,986.532043 48.959503,990.968140 49.833004,995.413635 
	C49.659260,989.580078 54.081230,992.274658 56.584557,991.700256 
	C58.549480,991.249390 61.348202,992.649902 62.261654,989.992188 
	C63.051346,987.694641 61.927769,985.481384 59.417484,983.582825 
	C57.402958,982.123840 55.145401,983.297852 52.345631,983.224609 
M134.055191,997.720703 
	C137.799683,992.684021 136.978531,989.224854 131.415771,986.807983 
	C130.047821,986.213684 128.584534,985.841125 127.206444,985.267273 
	C125.222145,984.441040 122.651840,983.679443 123.409126,980.903198 
	C124.230103,977.893494 126.899445,977.935242 129.562073,978.201843 
	C131.378555,978.383728 132.803192,980.268860 135.051483,979.645630 
	C134.021698,977.575317 132.238922,977.378540 130.742905,976.879883 
	C126.759628,975.552307 122.534698,977.145203 121.385262,980.252075 
	C120.091064,983.750244 121.906563,986.426697 126.799423,988.210754 
	C127.579514,988.495239 128.407379,988.662964 129.162750,988.998291 
	C131.349609,989.969116 134.603073,990.305298 133.909851,993.698486 
	C133.184250,997.250183 130.038452,997.924133 126.886261,997.932373 
	C124.850166,997.937744 122.912582,996.544922 119.709541,997.427368 
	C124.843895,1000.489380 129.078384,1000.437805 134.055191,997.720703 
M163.627396,997.073486 
	C165.683075,994.566162 166.119202,991.608398 165.489105,988.602844 
	C164.744934,985.052979 162.542938,982.674133 158.759689,982.245483 
	C155.109802,981.831909 151.933395,982.888245 150.750137,986.614380 
	C149.516953,990.497864 149.205734,994.605652 152.662552,997.710693 
	C156.055283,1000.758179 159.637314,1000.156372 163.627396,997.073486 
M185.996490,977.141174 
	C184.677231,984.312378 185.565079,991.459595 185.680420,999.072388 
	C187.378281,997.795471 186.933853,996.545837 187.043732,995.471863 
	C187.194901,993.994446 186.968201,992.271423 188.868027,991.819092 
	C190.665314,991.391296 191.469940,992.862366 192.359573,994.076599 
	C193.511963,995.649597 194.477951,997.419739 197.228653,998.708740 
	C195.197266,995.384216 193.119492,992.931946 192.114502,990.099060 
	C190.858627,986.559082 196.031982,985.742493 196.390533,982.321594 
	C193.028763,983.358276 191.853790,987.461548 188.219620,987.743652 
	C186.348572,984.095093 188.963348,980.118591 185.996490,977.141174 
M142.696594,991.283020 
	C142.922836,988.196350 141.409805,984.518494 146.042282,982.690247 
	C142.148178,982.549438 143.256256,978.950867 141.484482,976.594299 
	C139.417786,983.517944 141.094818,989.794556 141.023865,995.982239 
	C140.996490,998.371033 143.425934,999.427795 147.065735,999.412048 
	C144.367767,996.912964 142.211609,995.170959 142.696594,991.283020 
M172.683350,995.703979 
	C170.763672,993.050293 170.467285,990.290100 171.840591,987.252869 
	C173.264923,984.102722 176.414413,983.947449 180.091995,983.023743 
	C175.360275,981.537231 172.409012,982.535278 170.549026,985.865845 
	C168.402740,989.709045 168.617401,993.699707 171.447952,997.059448 
	C173.607040,999.622192 176.555099,1000.496399 179.844788,998.414307 
	C177.377396,998.383423 174.986664,998.196899 172.683350,995.703979 
M41.949093,996.009460 
	C42.182037,995.265381 42.414982,994.521362 42.735229,993.498413 
	C40.779709,994.231873 41.621738,997.105896 38.649757,996.836670 
	C36.280342,990.493103 33.819778,983.905518 31.359213,977.317932 
	C32.898140,984.290405 34.890396,991.120300 37.702412,997.594177 
	C39.329002,1001.338806 40.826622,998.794556 41.949093,996.009460 
M609.199036,989.128906 
	C607.311890,992.150696 611.701904,988.549744 611.487976,991.445557 
	C611.158752,995.902039 608.542236,994.848999 605.829468,995.170959 
	C608.399231,995.441711 610.299561,996.929321 612.844482,997.691162 
	C612.999512,993.787781 612.817444,990.449219 612.093811,987.238098 
	C610.492310,986.933777 610.085876,987.997864 609.199036,989.128906 
M556.556946,995.035217 
	C555.698547,995.238892 554.923462,993.691223 553.761475,995.172852 
	C555.988647,996.165833 558.388733,996.278320 561.298889,998.653503 
	C560.467590,993.927612 561.371643,990.402161 559.331726,987.172241 
	C557.503418,988.039307 557.947815,988.643311 558.630676,989.924316 
	C559.590698,991.725281 560.424805,994.118652 556.556946,995.035217 
M67.482201,988.239990 
	C68.858978,983.648682 72.314476,982.261169 76.813438,982.476196 
	C72.080681,980.875122 68.922752,982.702271 66.971825,986.814880 
	C65.007896,990.954834 66.342155,995.527405 70.380447,998.313477 
	C67.961098,995.632996 66.447899,992.670593 67.482201,988.239990 
M85.021500,998.450134 
	C85.429207,998.717529 85.836914,998.984924 86.683395,999.540100 
	C83.496765,993.487610 82.475273,987.760193 86.047646,981.818054 
	C84.302979,981.341919 84.204453,979.543030 83.393707,978.186768 
	C84.188927,984.841614 81.533455,991.599854 85.021500,998.450134 
M588.545715,988.831726 
	C589.791321,992.028198 589.831604,995.181458 588.188171,998.315613 
	C589.247681,998.906555 590.280090,999.047058 591.467651,998.153137 
	C590.154785,995.338501 590.963745,992.314026 590.654114,989.371704 
	C590.479736,987.715027 590.422974,987.721008 588.545715,988.831726 
M110.275543,989.669922 
	C110.275543,992.593506 110.275543,995.517090 110.275543,998.440613 
	C111.646187,993.485229 109.692291,988.137085 113.741394,983.796753 
	C112.689438,983.375854 111.754761,982.690491 110.276016,983.510254 
	C110.276016,985.187012 110.276016,986.986084 110.275543,989.669922 
M598.283997,987.983765 
	C598.888611,987.378052 600.284424,988.251038 600.581116,986.811096 
	C597.853027,986.086670 596.255066,986.753662 596.234985,989.755005 
	C596.211121,993.326111 598.722229,992.378357 601.128296,993.067505 
	C599.932251,990.865356 596.184753,991.585083 598.283997,987.983765 
z"/>
<path fill="#000000" opacity="1.000000" stroke="none" 
	d="
M416.883301,902.021057 
	C385.292236,915.067688 352.983948,918.464661 319.589905,913.659973 
	C289.476349,909.327271 261.416321,899.534363 235.662430,883.340088 
	C227.472031,878.189880 219.676880,872.459900 213.696701,864.637939 
	C210.350220,860.260803 208.607605,855.549133 208.661911,849.873291 
	C209.215057,792.049744 209.251877,734.218811 210.184311,676.402100 
	C210.751373,641.240295 210.096817,606.072510 211.043640,570.925781 
	C212.098511,531.768188 211.349838,492.603577 212.083008,453.448212 
	C212.791107,415.631500 228.072601,385.656006 259.735931,364.414185 
	C276.331024,353.281128 284.668762,337.908905 284.737549,317.701447 
	C284.839081,287.878326 285.476227,258.056274 285.991608,228.235565 
	C286.512665,198.087250 287.145630,167.940796 287.783752,137.794662 
	C287.849304,134.698929 287.458008,132.098297 285.114655,129.625870 
	C281.918610,126.253807 280.765381,121.776184 280.733704,117.169228 
	C280.696014,111.691322 280.299500,106.208954 281.513306,100.743240 
	C282.041412,98.365219 282.062164,95.658386 281.505188,93.291008 
	C278.164154,79.089325 280.665985,64.753723 280.246613,50.492958 
	C280.023834,42.917343 284.242218,38.524715 290.681305,35.584606 
	C300.843994,30.944304 311.693146,28.972242 322.656250,28.224859 
	C341.469391,26.942320 360.299591,26.827438 378.764679,31.728081 
	C384.418488,33.228611 389.925812,35.112118 394.845856,38.389156 
	C398.948517,41.121735 400.439301,44.715645 400.213837,49.848377 
	C399.783417,59.647350 400.228821,69.484619 400.302948,79.306046 
	C400.321808,81.805832 400.903137,84.484261 400.212006,86.774612 
	C397.337372,96.301041 399.741516,105.906387 399.357513,115.454109 
	C399.207062,119.195473 398.659485,122.907829 396.681366,125.986084 
	C394.456482,129.448318 394.105530,133.001648 394.169495,136.904282 
	C394.631104,165.060089 394.750000,193.223618 395.452728,221.372818 
	C396.300934,255.350159 397.090759,289.324310 397.419342,323.312408 
	C397.592255,341.200592 406.212433,354.737213 420.826050,364.577423 
	C452.407074,385.842773 468.141266,415.463379 468.340698,453.521759 
	C468.607941,504.514038 468.615479,555.513245 469.550262,606.494568 
	C470.253021,644.824158 469.647522,683.156738 470.477234,721.472290 
	C471.401062,764.131714 470.984497,806.792175 471.510376,849.447876 
	C471.615173,857.951477 468.516754,864.608398 463.160522,870.651245 
	C450.494934,884.940247 434.486206,894.321350 416.883301,902.021057 
M278.013824,502.629700 
	C257.554199,498.640015 237.751968,492.650085 219.233154,482.827667 
	C217.857391,485.065491 218.432495,487.105499 218.414917,489.031311 
	C218.075851,526.184021 218.118835,563.336060 217.572525,600.491821 
	C216.639267,663.963684 216.632614,727.449097 216.142883,790.928101 
	C216.115677,794.454285 217.229263,796.808777 220.064163,798.919922 
	C239.359589,813.289429 260.917023,822.674683 284.328186,827.644043 
	C316.720642,834.519592 349.384125,835.293213 382.169189,830.682800 
	C410.506165,826.697937 436.715973,817.221191 460.183075,800.559875 
	C463.341187,798.317688 464.988495,795.892822 464.661499,791.872620 
	C464.203033,786.235840 464.152954,780.561462 464.046875,774.901001 
	C463.307068,735.419373 463.855591,695.931091 463.172485,656.443542 
	C462.224396,601.636597 463.044220,546.809143 461.887177,491.999481 
	C461.840057,489.766754 462.318451,487.423096 461.172089,485.020081 
	C459.991425,485.479187 459.056580,485.763641 458.192291,486.190765 
	C446.497742,491.970245 434.255096,496.287354 421.616913,499.385925 
	C374.290344,510.989349 326.656708,511.041016 278.013824,502.629700 
M388.872223,304.040375 
	C368.727203,318.416473 346.054352,319.149048 322.810486,315.905304 
	C311.756989,314.362762 301.242340,310.814941 291.294525,303.665466 
	C291.294525,306.645508 291.319397,308.762054 291.290039,310.877869 
	C291.183929,318.527069 291.669983,326.208221 289.769836,333.748199 
	C285.630310,350.174377 275.420227,361.965515 261.621857,371.149628 
	C239.891586,385.613190 226.648209,405.836884 221.004852,431.238983 
	C218.221756,443.766388 219.650101,456.469025 218.925369,469.077911 
	C218.677658,473.387634 220.368027,475.815735 223.994873,477.778412 
	C235.502014,484.005554 247.689453,488.479340 260.290771,491.724457 
	C305.957031,503.484528 352.128784,504.665161 398.573334,497.459778 
	C418.562073,494.358765 437.931519,488.979919 456.186218,479.950836 
	C460.253998,477.938812 462.298187,475.559662 461.903992,470.756592 
	C461.441925,465.126587 461.729645,459.431824 461.755981,453.765472 
	C461.922211,418.016052 447.289398,390.167450 417.542267,370.181458 
	C402.553589,360.111206 392.916779,346.395355 391.231445,328.012634 
	C390.609436,321.228210 390.936951,314.360199 390.674408,307.536377 
	C390.624146,306.230011 391.775024,304.253540 388.872223,304.040375 
M216.159882,816.750488 
	C215.891235,828.068420 216.417313,839.401611 215.498459,850.707397 
	C215.194412,854.448608 216.841904,857.501953 219.054138,860.304443 
	C223.958923,866.517578 230.013016,871.487366 236.577621,875.784790 
	C261.477142,892.085266 288.779572,902.148254 318.143127,906.655945 
	C326.031769,907.866943 333.973480,908.959290 341.983521,908.691895 
	C349.238190,908.449768 356.311768,909.503052 363.282410,904.595093 
	C369.181244,900.441711 371.327667,898.484070 368.112732,891.695801 
	C365.914307,887.053833 367.015259,884.187317 371.886475,882.253418 
	C374.205017,881.332947 376.844788,881.028076 378.941498,879.777710 
	C385.982208,875.579102 391.022522,877.559570 396.190186,883.488464 
	C402.815216,891.089539 417.090820,893.924438 426.000397,889.649292 
	C439.334991,883.250916 451.304993,874.883362 460.345306,862.879578 
	C462.360352,860.204041 464.509460,857.349243 464.542328,853.967224 
	C464.668488,840.981934 464.487518,827.993286 464.356354,815.006592 
	C464.347046,814.081604 463.815735,813.161804 463.458649,812.020874 
	C460.223633,812.844421 456.806763,811.387390 454.083679,813.319824 
	C448.307892,817.418701 441.751740,819.941467 435.367065,822.700500 
	C422.852997,828.108398 410.169800,832.982056 396.643250,835.643005 
	C385.645599,837.806519 374.594574,838.891174 363.480774,839.636230 
	C333.394928,841.653015 303.589783,839.866089 274.335114,832.125488 
	C256.694244,827.457825 240.112076,820.163330 224.452072,810.814941 
	C218.190063,807.076843 215.258911,809.746826 216.159882,816.750488 
M388.185547,185.127991 
	C387.924591,168.407028 387.663635,151.686066 387.397400,134.627045 
	C385.450531,135.072662 384.311340,135.275024 383.206146,135.594879 
	C355.835602,143.516510 328.379181,143.413101 300.854675,136.472198 
	C294.431976,134.852570 294.449310,134.819199 294.351898,141.354050 
	C293.915161,170.648132 293.470978,199.942108 293.022369,229.236023 
	C292.994354,231.066696 292.969940,232.901260 292.833862,234.725830 
	C291.792480,248.690872 292.482391,262.684937 292.119293,276.661102 
	C292.098724,277.454926 292.088928,278.359711 292.433960,278.491791 
	C325.329712,262.462341 357.477295,261.420471 389.546539,279.247131 
	C389.619019,279.036835 389.823822,278.725128 389.818878,278.416779 
	C389.322998,247.630814 388.811249,216.845093 388.185547,185.127991 
M355.663605,65.306618 
	C332.513519,67.516258 309.858826,65.457092 287.050842,56.928448 
	C287.050842,63.682838 287.079865,69.945732 287.045319,76.208275 
	C286.946991,94.042480 288.525696,95.851547 306.132416,99.794067 
	C323.574707,103.699753 341.226074,103.635201 358.856567,102.453491 
	C368.286041,101.821465 377.717194,100.194489 386.600891,96.519325 
	C389.769226,95.208595 392.739594,93.673126 393.125092,89.730194 
	C394.160919,79.136131 394.004242,68.576370 392.448303,57.306778 
	C380.560547,62.008892 368.717255,64.358627 355.663605,65.306618 
M344.441437,273.170654 
	C339.952545,273.222931 335.435883,272.974915 330.980286,273.387146 
	C320.187256,274.385620 309.560486,276.109955 300.257263,282.358215 
	C290.970306,288.595551 291.023987,295.557739 300.445709,301.732880 
	C308.895569,307.271118 318.425934,309.316193 328.253510,310.231903 
	C343.270874,311.631226 358.150909,311.165771 372.491913,305.807220 
	C377.324249,304.001587 382.079590,301.934875 385.606445,297.915039 
	C388.900726,294.160217 388.864624,289.454315 385.475708,285.777740 
	C383.538696,283.676300 381.152527,282.157013 378.616547,280.864624 
	C368.186768,275.549438 357.022675,273.421631 344.441437,273.170654 
M329.580078,58.846329 
	C343.407257,59.103733 357.242126,59.483566 370.906586,56.674484 
	C377.603790,55.297691 384.306671,53.863716 390.273773,50.324474 
	C394.414429,47.868561 394.403778,46.151550 390.363190,43.489162 
	C387.278351,41.456554 383.814697,40.231155 380.293579,39.177643 
	C363.446289,34.136959 346.145233,33.643860 328.806854,34.586094 
	C317.182831,35.217796 305.540771,36.438477 294.661255,41.194767 
	C291.781921,42.453548 287.868774,43.599937 287.892059,47.029575 
	C287.916138,50.570644 292.048859,51.442734 294.893188,52.536934 
	C305.723999,56.703526 317.060303,58.377975 329.580078,58.846329 
M319.346252,115.347221 
	C308.558197,114.443771 298.182343,111.770744 288.190369,107.498230 
	C287.200653,111.407684 287.055084,117.007858 287.650513,119.799072 
	C288.566315,124.092430 290.965027,126.830688 295.309082,128.067596 
	C324.447876,136.364426 353.620239,137.640808 382.871704,128.706299 
	C391.173309,126.170677 395.119049,117.221512 391.615936,108.798210 
	C368.438171,117.462265 344.426758,117.334175 319.346252,115.347221 
z"/>
<path fill="#000000" opacity="1.000000" stroke="none" 
	d="
M94.757187,983.116699 
	C96.967072,983.044861 99.176949,982.973022 101.926216,983.268494 
	C105.791428,987.448547 106.546005,991.721130 103.812355,996.006714 
	C101.396446,999.794128 97.634132,999.218933 93.962311,997.975769 
	C93.962311,997.975769 93.995056,998.004944 93.887329,997.654419 
	C90.876411,992.352295 91.259064,987.627136 94.757187,983.116699 
z"/>
<path fill="#000000" opacity="1.000000" stroke="none" 
	d="
M53.024372,982.992737 
	C55.145401,983.297852 57.402958,982.123840 59.778061,984.141235 
	C60.662937,986.373840 62.053120,988.492126 60.156670,989.643005 
	C57.069378,991.516602 53.619274,991.189514 50.362411,989.713196 
	C49.706181,986.702454 51.649582,984.963135 53.024372,982.992737 
z"/>
<path fill="#000000" opacity="1.000000" stroke="none" 
	d="
M583.106262,991.049316 
	C583.817993,992.068848 583.814880,993.128235 582.946716,994.751160 
	C581.347229,996.997253 579.734924,998.728760 577.931580,996.386780 
	C576.093018,993.998840 575.889404,990.805786 578.270752,988.720398 
	C580.859192,986.453735 581.758057,989.651123 583.106262,991.049316 
z"/>
<path fill="#000000" opacity="1.000000" stroke="none" 
	d="
M152.928665,987.146179 
	C154.597351,984.479187 156.603699,983.068604 159.368301,984.229004 
	C162.556015,985.567017 163.379364,988.374146 163.263748,991.600220 
	C163.157959,994.552551 161.901459,996.921326 159.072311,997.722595 
	C155.051071,998.861511 153.442398,995.922119 152.289062,992.828857 
	C151.625854,991.050110 151.996124,989.227600 152.928665,987.146179 
z"/>
<path fill="#000000" opacity="1.000000" stroke="none" 
	d="
M446.003448,997.991211 
	C445.061096,997.795776 444.036011,997.770020 443.160706,997.394836 
	C441.657837,996.750488 440.824829,995.459473 441.313477,993.843140 
	C441.804474,992.219177 443.215363,991.651917 444.829681,991.926025 
	C446.542084,992.216736 447.365692,993.388428 447.194092,995.079895 
	C447.115570,995.853455 446.647797,996.587463 446.155670,997.682495 
	C445.954773,998.025574 445.988098,998.003601 446.003448,997.991211 
z"/>
<path fill="#000000" opacity="1.000000" stroke="none" 
	d="
M387.729492,688.542236 
	C391.408325,698.856750 390.169769,708.187378 384.023895,716.757202 
	C385.395203,718.371765 386.983063,717.663879 388.372772,717.638245 
	C394.713104,717.521790 401.038849,717.413574 407.190338,719.363342 
	C407.973083,719.611450 408.949799,719.988525 409.621277,719.735107 
	C418.685547,716.314697 424.009888,721.615356 429.025848,728.107361 
	C433.957306,726.479858 437.724091,723.235046 440.771851,719.261658 
	C444.114166,714.904236 442.761841,711.133850 437.536835,709.209045 
	C436.599762,708.863831 435.625580,708.619934 434.686279,708.280151 
	C433.126801,707.716248 432.044830,706.666199 432.334381,704.924744 
	C432.666870,702.925049 434.194183,702.395020 436.047577,702.369324 
	C444.378052,702.254028 450.750580,710.126404 448.856689,718.297668 
	C447.213013,725.389160 442.503082,730.278870 436.846008,734.327148 
	C426.292999,741.879089 426.249725,741.818604 419.691650,755.632080 
	C426.720764,752.892151 432.899567,750.361938 435.782013,743.362061 
	C437.127686,740.094177 438.501862,736.857239 441.721313,734.961060 
	C445.126801,732.955322 448.534119,733.189453 451.422028,735.818420 
	C454.110474,738.265869 454.872925,741.432007 453.429657,744.927979 
	C452.905518,746.197571 452.232239,747.467224 450.609955,747.286804 
	C448.839050,747.089966 448.781403,745.645447 448.798706,744.259155 
	C448.819397,742.604065 449.167908,740.604065 446.752167,740.467346 
	C444.819031,740.357910 443.801788,741.908386 443.256042,743.539612 
	C436.779785,762.897888 420.575226,767.197937 403.111298,769.205811 
	C398.521881,769.733459 393.845734,769.710693 389.215942,770.253357 
	C386.141663,770.613647 384.439240,771.556335 384.028015,774.971558 
	C383.513275,779.246582 382.311859,783.438477 381.416809,787.668335 
	C381.087280,789.225586 380.441833,790.585510 378.740814,790.917908 
	C376.933075,791.271179 375.967438,789.980591 375.261322,788.634216 
	C371.828033,782.088196 365.736847,778.034424 360.691315,773.004456 
	C359.116699,771.434692 357.137238,770.678040 354.917572,770.296387 
	C342.971130,768.242065 332.800232,763.135010 325.712402,752.907776 
	C324.480255,751.129944 322.828918,750.414307 320.722992,750.047791 
	C308.058472,747.843506 296.624969,742.567383 285.814087,735.786011 
	C279.781219,732.001770 272.709015,734.727661 270.534088,741.672119 
	C270.021423,743.309082 270.383423,745.965820 267.713837,745.457397 
	C265.060455,744.952209 265.606323,742.346985 265.865570,740.461914 
	C266.462860,736.118713 268.883484,732.816223 272.254181,730.096497 
	C273.552399,729.049072 275.825745,728.540283 275.034912,725.710693 
	C270.521423,724.412842 266.291382,726.231934 262.119415,727.466431 
	C252.186600,730.405701 244.870605,737.352783 237.751831,744.378845 
	C235.663666,746.439819 233.717224,749.374756 238.623901,751.212952 
	C240.360565,751.863464 240.733734,753.776917 239.763672,755.486511 
	C238.732803,757.303284 237.178879,757.139893 235.428864,756.451599 
	C231.210114,754.792175 228.917999,750.896973 230.021271,746.462708 
	C230.534943,744.398254 231.280396,742.204773 232.542587,740.541687 
	C246.500992,722.150330 263.623291,709.542297 288.113068,710.658691 
	C291.226929,710.800659 294.352844,710.678101 297.633209,710.128784 
	C292.533600,705.396851 286.366028,703.044739 279.861542,701.299133 
	C269.390778,698.488892 258.693481,699.522095 248.065979,699.246948 
	C239.782593,699.032471 235.118378,693.434143 236.847839,685.882202 
	C237.738907,681.991211 240.191772,679.528137 244.167953,678.527161 
	C247.294571,677.740051 249.765396,678.602600 251.719299,681.020325 
	C252.650101,682.172119 253.756470,683.559204 252.654739,685.061218 
	C251.377594,686.802490 249.985580,685.755188 248.854233,684.700073 
	C247.239563,683.194275 245.576874,683.044250 243.975204,684.516113 
	C242.536316,685.838318 241.857254,687.574707 242.625610,689.496948 
	C243.369171,691.357239 244.859985,692.450439 246.902527,692.348083 
	C251.057922,692.140015 255.220718,691.931763 259.355713,691.491333 
	C274.021790,689.929565 287.847015,692.449646 300.782623,699.652344 
	C303.742188,701.300293 306.297943,703.370117 308.399292,706.011047 
	C313.493622,712.413513 314.168945,712.739075 323.414185,712.968384 
	C320.042358,703.201111 314.032806,695.371033 307.255646,688.058472 
	C305.224854,685.867126 302.808960,684.037781 300.683319,681.927979 
	C298.002472,679.267151 298.595245,677.374329 302.301636,676.363647 
	C305.636688,675.454224 308.935303,676.162292 312.213654,676.662720 
	C323.455566,678.378906 334.546143,680.484253 343.449127,688.474854 
	C346.534698,691.244202 350.528534,689.389709 354.065399,690.101624 
	C362.198700,691.738647 362.204865,691.557312 363.742645,683.263916 
	C364.654846,678.344299 365.754242,673.449463 368.022247,668.951233 
	C369.700165,665.623474 372.083496,664.955078 374.531036,668.169556 
	C379.363220,674.515930 384.729034,680.531555 387.729492,688.542236 
M330.300110,745.892212 
	C336.919373,745.412292 344.069153,745.715698 344.577026,736.213806 
	C344.585297,736.059448 344.677734,735.882507 344.784302,735.764221 
	C348.982086,731.105469 346.047180,728.027283 342.406097,725.144775 
	C339.497681,722.842224 336.174225,721.359680 332.664978,720.189453 
	C324.723785,717.541565 316.341736,716.976624 308.290100,714.990234 
	C296.093719,711.981140 288.702515,719.313965 279.643341,726.662415 
	C295.715424,736.557922 310.241547,746.950317 330.300110,745.892212 
M369.732208,736.717285 
	C367.788757,735.131958 365.730652,733.722656 363.351807,732.875549 
	C355.305847,730.010254 346.682556,735.051086 347.625000,742.368835 
	C348.543945,749.504333 350.569824,756.463684 355.755859,761.838989 
	C360.946381,767.218994 366.455231,772.290833 371.776978,777.545837 
	C373.513855,779.260925 375.568726,779.644409 377.745544,779.046631 
	C380.116058,778.395630 379.483917,776.146606 379.774445,774.439941 
	C380.025391,772.965637 380.223724,771.481323 380.406647,769.996704 
	C381.940796,757.545349 380.355652,746.052979 369.732208,736.717285 
M369.338715,718.072327 
	C370.061584,717.219910 371.476471,717.018066 371.677155,715.500366 
	C364.173401,711.519104 355.870819,709.894714 347.593842,707.312744 
	C346.415344,712.078918 347.218567,716.700684 347.215607,721.281494 
	C347.213501,724.515137 348.814636,728.008911 351.330322,728.691345 
	C354.596985,729.577637 358.733398,728.973877 361.261841,725.702148 
	C363.432312,722.893494 366.147736,720.734436 369.338715,718.072327 
M379.932922,739.501892 
	C381.413818,735.678955 384.664185,733.218567 387.111755,730.137939 
	C388.526306,728.357544 389.126678,726.370850 388.025848,724.135742 
	C386.999512,722.051941 385.089355,722.390869 383.298218,722.242676 
	C381.494904,722.093384 379.676544,721.916748 377.913391,721.530273 
	C371.918793,720.216248 367.591034,722.607056 364.847168,729.330750 
	C371.089996,730.821167 374.328400,736.495483 379.932922,739.501892 
M398.958282,757.395752 
	C405.824646,755.757935 411.320923,752.210571 415.712830,745.461853 
	C404.601227,747.498779 394.300446,748.768738 383.891724,747.554871 
	C383.532288,756.046692 384.427521,757.048401 391.810638,758.203003 
	C394.077271,758.557434 396.091370,758.039368 398.958282,757.395752 
M342.832550,707.715576 
	C342.607849,704.956238 344.094177,700.860535 339.748505,700.630920 
	C335.445526,700.403442 331.259766,701.849182 328.845734,706.230835 
	C326.968445,709.638245 327.891174,713.893799 331.378601,715.412354 
	C334.808319,716.905701 338.403503,718.019287 342.152771,719.381897 
	C343.260620,715.541809 342.610443,712.060303 342.832550,707.715576 
M373.562256,706.771851 
	C375.498627,706.291992 375.502777,705.327332 374.315826,703.972656 
	C371.148102,700.357300 357.245880,696.701599 352.565735,699.457581 
	C358.891296,703.892944 365.701111,705.789917 373.562256,706.771851 
M417.685913,733.840027 
	C424.198486,730.830872 424.447479,729.367065 418.750885,725.086304 
	C418.297180,728.733032 415.424103,730.982117 414.074951,734.016052 
	C415.259644,734.996155 416.166260,734.449890 417.685913,733.840027 
M348.176819,699.654419 
	C347.261749,697.487488 348.089508,695.661682 349.498627,693.832458 
	C347.637756,694.546143 344.708649,693.618591 344.773956,696.456177 
	C344.843079,699.458923 346.777069,701.666016 350.277405,703.807739 
	C349.328461,701.949341 348.891937,701.094421 348.176819,699.654419 
M382.517426,707.997375 
	C382.975403,705.800903 382.732300,703.945740 379.842896,702.641541 
	C380.912872,706.988403 379.189941,709.541748 375.865265,711.316833 
	C378.336639,710.944946 380.668488,710.670288 382.517426,707.997375 
M345.498901,754.431396 
	C345.826630,749.568970 342.317963,749.890137 338.271667,749.189453 
	C340.418060,752.141479 342.347260,753.733826 345.498901,754.431396 
z"/>
<path fill="#000000" opacity="1.000000" stroke="none" 
	d="
M338.193726,566.987549 
	C338.081757,570.136536 338.141754,572.814514 337.840637,575.451233 
	C337.608673,577.482666 338.003510,580.296021 335.266602,580.810913 
	C332.806763,581.273682 331.526245,578.962646 330.339233,577.197327 
	C328.670258,574.715088 327.230499,572.080078 325.646912,569.538940 
	C321.874481,563.485291 318.075195,557.448364 313.013397,551.525635 
	C313.013397,557.390503 313.077393,563.256409 312.983154,569.119751 
	C312.943176,571.605042 312.600311,574.088074 312.339111,576.566223 
	C312.170929,578.162048 311.626495,579.663635 309.686066,579.516602 
	C307.894775,579.380859 307.187531,577.910400 307.109009,576.332336 
	C306.976959,573.678223 306.990356,571.012390 307.051544,568.353943 
	C307.227570,560.706970 307.466370,553.061340 307.662323,545.414795 
	C307.724091,543.004578 307.908600,540.388916 310.576050,539.650635 
	C313.163544,538.934631 314.318115,541.418640 315.459442,543.160400 
	C320.828705,551.354187 326.092285,559.617310 331.737183,568.389648 
	C333.609131,560.632812 332.066071,553.125488 333.572968,545.901184 
	C333.997223,543.867310 333.447968,540.912964 336.544678,541.100708 
	C339.850891,541.301147 339.324646,544.355042 339.240143,546.580872 
	C338.987976,553.223633 338.565918,559.859924 338.193726,566.987549 
z"/>
<path fill="#000000" opacity="1.000000" stroke="none" 
	d="
M276.598053,601.156006 
	C273.743561,597.075134 272.165009,592.972107 275.109894,588.846130 
	C277.791992,585.088379 281.979614,584.511841 286.331360,585.244934 
	C291.131836,586.053589 294.790039,588.376221 295.965302,593.377380 
	C296.438904,595.392700 297.113281,598.131836 294.295715,598.884460 
	C291.651245,599.590881 291.157745,597.080017 290.685242,595.137390 
	C289.893646,591.883057 287.731079,590.373535 284.534180,590.475403 
	C282.718597,590.533203 280.840973,590.977661 279.883636,592.849670 
	C278.979309,594.618042 279.889038,596.201721 280.917969,597.444641 
	C282.712036,599.611816 284.749329,601.584595 286.754211,603.568542 
	C289.116089,605.905701 291.749237,607.997498 293.913055,610.499817 
	C297.935944,615.152161 298.110565,620.507812 294.709778,624.603333 
	C291.409210,628.578247 283.664825,629.717590 279.104004,626.899170 
	C274.597412,624.114319 272.209106,617.633545 274.068726,612.916748 
	C274.813873,611.026733 275.872650,609.025269 278.404541,609.782959 
	C281.094574,610.588013 280.565948,612.589417 279.820068,614.654236 
	C278.641205,617.917664 279.546661,620.807983 282.639435,622.248413 
	C285.128784,623.407837 288.073486,623.193359 289.827240,620.615540 
	C291.886566,617.588623 290.528076,614.921082 288.206421,612.629211 
	C284.422821,608.893921 280.615845,605.182312 276.598053,601.156006 
z"/>
<path fill="#000000" opacity="1.000000" stroke="none" 
	d="
M275.674896,577.376587 
	C272.447144,576.811646 272.802643,574.832581 273.427856,572.785522 
	C276.746490,561.918945 281.354004,551.585632 286.483734,541.475647 
	C287.321808,539.823853 288.412750,538.207214 290.647797,538.506592 
	C293.191406,538.847351 294.308838,540.901489 294.876862,542.962524 
	C297.131012,551.141907 299.167816,559.381165 301.297974,567.594849 
	C302.007782,570.331848 302.778748,573.053040 303.477753,575.792786 
	C303.887756,577.399719 303.684235,578.885742 301.871735,579.445618 
	C300.069489,580.002197 299.037262,578.817505 298.388458,577.369690 
	C297.778534,576.008606 297.124573,574.595886 296.907227,573.143372 
	C296.196899,568.395752 293.577789,566.557617 288.789307,566.288086 
	C283.770630,566.005676 280.388977,567.044617 279.238495,572.461731 
	C278.837891,574.347961 277.989685,576.292297 275.674896,577.376587 
M284.968048,560.179321 
	C287.144806,561.647766 289.760101,562.460449 291.869904,560.970154 
	C294.007507,559.460205 292.138336,557.009583 291.884247,554.994019 
	C291.605042,552.779602 291.490662,550.483276 289.775055,547.913757 
	C287.984497,552.083130 286.385559,555.806274 284.968048,560.179321 
z"/>
<path fill="#000000" opacity="1.000000" stroke="none" 
	d="
M420.992188,544.069824 
	C421.897705,541.863647 422.628448,540.003845 423.429077,538.174561 
	C424.203064,536.406006 425.360748,534.924500 427.471832,534.967285 
	C429.591827,535.010193 430.820465,536.578552 431.390564,538.351318 
	C434.700623,548.643799 437.925842,558.964172 441.082916,569.304688 
	C441.606812,571.020508 441.164185,572.761536 439.181854,573.357910 
	C437.066711,573.994263 436.220520,572.460999 435.577637,570.813416 
	C435.456451,570.502930 435.374817,570.168213 435.204895,569.886963 
	C433.636932,567.291748 434.564789,562.691772 429.730499,562.707336 
	C422.177155,562.731628 419.237396,564.738770 417.045013,570.545227 
	C416.109558,573.022705 415.700165,577.591125 412.474426,576.599365 
	C408.515442,575.382202 411.281219,571.362671 412.089111,568.880920 
	C414.767822,560.652039 417.893707,552.568726 420.992188,544.069824 
M429.367462,551.882263 
	C428.355072,549.763550 428.907318,547.022034 426.677795,545.014709 
	C424.984497,549.520996 422.641602,553.497070 422.061157,558.169128 
	C429.864410,558.402832 430.638092,557.807495 429.367462,551.882263 
z"/>
<path fill="#000000" opacity="1.000000" stroke="none" 
	d="
M319.319214,608.216797 
	C320.203796,605.844788 320.905945,603.803284 321.632111,601.770325 
	C322.119965,600.404419 322.961517,599.403870 324.557281,599.601929 
	C326.256195,599.812805 326.587189,601.091919 326.570618,602.535706 
	C326.481049,610.353882 326.443665,618.173401 326.267334,625.989746 
	C326.179504,629.883667 324.073822,632.587769 320.521118,633.999939 
	C315.872955,635.847534 311.059296,635.614868 306.278809,634.563293 
	C304.625366,634.199585 302.851654,633.427429 303.245728,631.310852 
	C303.626495,629.265869 305.413727,629.042114 307.196350,629.256714 
	C307.855225,629.336060 308.499207,629.534729 309.157440,629.624207 
	C319.094452,630.974487 321.555634,628.516479 320.289062,618.517090 
	C319.357727,618.066772 318.735870,618.778870 318.031189,619.136841 
	C309.641998,623.397766 302.519257,620.064697 300.256775,610.841003 
	C299.530853,607.881531 299.522461,604.892395 299.931549,601.920654 
	C300.143036,600.384094 300.957550,598.960754 302.847931,599.167969 
	C304.399750,599.338135 305.035187,600.611328 305.160950,602.019165 
	C305.308716,603.673035 305.248657,605.344299 305.336517,607.004944 
	C305.530304,610.668152 306.302521,614.188171 310.383148,615.273376 
	C314.196167,616.287292 315.980713,613.191650 317.902252,610.709167 
	C318.405975,610.058472 318.736786,609.273926 319.319214,608.216797 
z"/>
<path fill="#000000" opacity="1.000000" stroke="none" 
	d="
M257.673553,576.391541 
	C251.490509,572.480347 250.162750,566.033447 248.246292,560.123901 
	C245.833359,552.683411 245.212631,544.845337 244.457565,537.076599 
	C244.288300,535.335022 244.302429,533.408386 246.474960,533.196716 
	C248.541718,532.995361 249.133499,534.842102 249.435867,536.544800 
	C250.421127,542.092896 251.317474,547.657166 252.343384,553.197571 
	C253.403870,558.924683 255.190109,564.408813 258.177429,569.799988 
	C260.136902,568.713501 260.428528,566.851379 260.970276,565.254822 
	C263.638367,557.391602 266.173462,549.482910 268.880463,541.633362 
	C269.553741,539.681091 270.215637,536.910583 273.120514,537.801208 
	C276.381653,538.801147 275.135803,541.430359 274.402832,543.626221 
	C271.406403,552.603149 268.512543,561.617554 265.309509,570.520447 
	C264.149323,573.745239 262.679810,577.252075 257.673553,576.391541 
z"/>
<path fill="#000000" opacity="1.000000" stroke="none" 
	d="
M389.185791,599.009277 
	C394.860046,598.610046 400.266602,595.566345 405.846588,598.120728 
	C410.017181,600.029846 411.058197,603.900757 411.836792,607.872192 
	C413.235229,615.005615 408.652405,622.501953 401.140045,624.044067 
	C396.189026,625.060364 393.698303,626.920715 394.313629,632.192200 
	C394.508545,633.861938 394.816772,636.218384 392.045898,636.307007 
	C389.376312,636.392456 388.781860,634.396606 388.790619,632.239380 
	C388.835205,621.284119 388.932800,610.328979 389.185791,599.009277 
M395.635040,604.296326 
	C393.003143,608.736084 394.864563,613.287964 395.341125,617.793152 
	C395.458588,618.903625 396.327118,619.572388 397.463989,619.397583 
	C400.674591,618.904114 403.851013,617.916809 405.131775,614.670410 
	C406.579895,610.999878 406.629669,607.043823 403.893646,603.875183 
	C401.616821,601.238281 398.803680,602.310059 395.635040,604.296326 
z"/>
<path fill="#000000" opacity="1.000000" stroke="none" 
	d="
M385.230774,603.393738 
	C384.106720,610.154297 382.368530,616.449341 384.032257,623.009155 
	C384.536499,624.997314 385.359314,627.582458 382.660675,628.693665 
	C379.738464,629.897095 379.361847,626.789001 377.837067,625.120361 
	C376.920593,625.787109 376.050659,626.497375 375.108337,627.093201 
	C368.191345,631.467163 360.753510,628.538940 358.987427,620.480103 
	C357.770233,614.925781 358.336090,609.232056 359.003082,603.627747 
	C359.209991,601.888916 359.831635,599.729370 362.307770,600.066223 
	C364.585083,600.375916 364.236328,602.441040 364.259979,604.043640 
	C364.323761,608.361084 364.099304,612.694153 364.397339,616.992737 
	C364.591614,619.794800 365.283356,622.951965 368.709961,623.504822 
	C371.762726,623.997192 373.425262,621.570435 374.884644,619.274658 
	C377.635437,614.947327 378.159851,609.932007 379.235107,605.088989 
	C379.450562,604.118591 379.514679,603.107849 379.799896,602.161316 
	C380.402832,600.160522 380.589905,597.271362 383.440063,597.679077 
	C386.597534,598.130676 385.273895,600.979065 385.230774,603.393738 
z"/>
<path fill="#000000" opacity="1.000000" stroke="none" 
	d="
M357.942993,547.531250 
	C358.559418,557.200195 359.079926,566.437195 359.600525,575.675293 
	C364.175110,575.675293 368.444122,575.692749 372.712860,575.667236 
	C374.569550,575.656189 376.772858,575.425598 377.034821,577.864319 
	C377.333435,580.644226 374.883362,580.913391 372.931824,581.089539 
	C368.138184,581.522217 363.325653,581.741455 358.523773,582.089050 
	C354.975220,582.345886 353.242950,580.661438 353.169189,577.185730 
	C353.031830,570.710083 352.906464,564.234009 352.812561,557.757629 
	C352.757080,553.936218 352.620697,550.137817 351.983429,546.346069 
	C351.643402,544.323303 351.012238,541.492126 354.063477,541.118530 
	C357.034058,540.754822 357.038177,543.583069 357.485016,545.649353 
	C357.590271,546.135986 357.725616,546.616150 357.942993,547.531250 
z"/>
<path fill="#000000" opacity="1.000000" stroke="none" 
	d="
M388.307709,566.609375 
	C388.351898,568.387085 388.487549,569.723694 388.402832,571.046265 
	C388.195618,574.281067 389.819305,575.080994 392.716034,574.638550 
	C396.001831,574.136719 399.311401,573.780762 402.617584,573.426331 
	C404.392822,573.235962 406.160553,573.530762 406.473297,575.626221 
	C406.787964,577.734619 405.120361,578.632446 403.410614,578.851196 
	C397.805817,579.568298 392.186798,580.212036 386.556030,580.673279 
	C383.433167,580.929077 382.678406,578.770874 382.683746,576.115906 
	C382.705872,565.135925 382.462402,554.169189 381.077179,543.255859 
	C380.879974,541.702332 381.100739,540.024170 382.912292,539.639709 
	C385.311676,539.130432 386.145264,541.021606 386.552490,542.845459 
	C388.267212,550.524902 388.219543,558.351257 388.307709,566.609375 
z"/>
<path fill="#000000" opacity="1.000000" stroke="none" 
	d="
M334.505859,599.145264 
	C335.212494,600.386414 335.687042,601.411438 336.159302,602.431580 
	C339.011322,601.428833 341.620544,600.440491 344.276581,599.599976 
	C346.397705,598.928772 348.598999,599.007141 350.616577,599.918152 
	C352.723572,600.869446 355.391724,602.061707 354.236176,604.903809 
	C353.197723,607.457825 350.923706,605.953918 349.078033,605.300293 
	C343.135651,603.196167 335.456085,608.651489 335.431885,615.067688 
	C335.418732,618.545410 335.804413,622.023743 335.828674,625.503052 
	C335.841705,627.375061 335.400208,629.419434 333.061554,629.557251 
	C330.686371,629.697205 329.950500,627.658630 329.932831,625.826599 
	C329.856140,617.865417 329.878326,609.899353 330.096954,601.941467 
	C330.161011,599.610779 331.179535,597.565125 334.505859,599.145264 
z"/>
<path fill="#000000" opacity="1.000000" stroke="none" 
	d="
M343.381683,541.858765 
	C347.193481,540.107361 347.933990,542.850586 348.047913,545.046326 
	C348.597656,555.644165 349.538605,566.244812 348.870239,576.869629 
	C348.738037,578.971313 348.489777,581.654419 345.540863,581.535645 
	C342.891296,581.429016 342.824127,578.992554 342.847443,576.984009 
	C342.981873,565.384827 342.083008,553.777893 343.381683,541.858765 
z"/>
</svg>