<svg version="1.1" id="Layer_1" xmlns="http://www.w3.org/2000/svg" xmlns:xlink="http://www.w3.org/1999/xlink" x="0px" y="0px"
	 width="100%" viewBox="0 0 512 512" enable-background="new 0 0 512 512" xml:space="preserve">
<path fill="#000000" opacity="1.000000" stroke="none" 
	d="
M347.000000,513.000000 
	C231.361435,513.000000 116.222862,513.000000 1.042144,513.000000 
	C1.042144,342.403076 1.042144,171.806137 1.042144,1.104599 
	C171.555237,1.104599 342.110565,1.104599 512.832947,1.104599 
	C512.832947,171.666534 512.832947,342.333252 512.832947,513.000000 
	C457.806061,513.000000 402.653046,513.000000 347.000000,513.000000 
M331.738251,488.979889 
	C333.215729,488.979889 334.693176,488.979889 336.991730,488.979889 
	C329.565186,479.218475 328.481354,468.332367 328.949646,457.172668 
	C321.245361,457.172668 314.144470,457.172668 306.111389,457.023163 
	C297.841583,457.023163 289.571777,457.023163 281.017334,457.023163 
	C281.017334,465.388916 280.875397,473.196777 281.068848,480.996338 
	C281.191101,485.926788 284.370148,488.923706 289.487427,488.950073 
	C303.314789,489.021332 317.143127,488.893829 331.738251,488.979889 
M344.941772,92.054573 
	C344.946075,79.556458 345.015411,67.057693 344.890076,54.560875 
	C344.869354,52.498512 344.688202,49.682091 343.401306,48.513760 
	C336.352875,42.114723 328.936493,36.120975 321.166351,29.584051 
	C321.166351,55.708992 321.166351,80.845993 321.017792,106.880241 
	C321.017792,108.804214 321.017792,110.728188 321.017792,112.635017 
	C329.274933,112.635017 337.082825,112.635017 344.805817,112.635017 
	C344.805817,105.840240 344.805817,99.410416 344.941772,92.054573 
M338.562744,235.419006 
	C338.562744,235.419006 338.442261,235.441269 337.737244,235.566956 
	C317.861328,242.528717 305.135010,260.003326 305.035400,281.035522 
	C304.896667,310.333099 304.906555,339.632202 305.039551,368.929810 
	C305.105011,383.347778 310.799805,395.400391 321.553192,404.987732 
	C323.669556,406.874603 326.151886,408.350983 328.831268,410.280090 
	C328.831268,407.258148 328.831268,405.102112 328.977783,402.025757 
	C328.985199,389.200470 328.987579,376.375183 329.001434,363.549896 
	C329.014984,351.006165 335.087250,345.012115 347.783020,345.000977 
	C354.112427,344.995422 360.441803,345.000000 366.771210,345.000000 
	C378.048645,345.000000 389.326050,345.000000 400.807220,345.000000 
	C400.807220,321.775208 400.821198,299.001007 400.774872,276.226929 
	C400.771881,274.750244 400.314026,273.272888 400.052704,271.798523 
	C395.234711,244.618149 365.216797,226.273712 339.546143,235.000900 
	C339.195099,234.986404 338.906219,235.113327 338.562744,235.419006 
M304.936310,410.937958 
	C293.978516,398.140503 288.877686,383.301178 288.964447,366.474854 
	C289.100891,340.009766 289.390228,313.535828 288.869568,287.080292 
	C288.495636,268.079437 293.535583,251.379318 306.770172,236.815002 
	C326.278442,217.356247 352.871094,211.748169 377.483185,221.902466 
	C401.806458,231.937607 416.955780,255.141449 416.993774,282.489044 
	C417.020630,301.821014 416.994354,321.153015 417.008698,340.485016 
	C417.009766,341.929108 417.147217,343.373047 417.216003,344.715027 
	C419.972656,344.715027 422.376831,344.715027 424.711609,344.715027 
	C424.711609,296.692352 424.711609,248.956009 424.711609,201.164825 
	C384.618408,201.164825 344.814301,201.164825 304.082489,201.012817 
	C296.486633,201.012817 288.890778,201.012817 281.306458,201.012817 
	C281.306458,281.273560 281.306458,361.038910 281.306458,440.835175 
	C289.412018,440.835175 297.210754,440.835175 305.934509,440.988464 
	C313.499634,440.988464 321.064789,440.988464 328.811646,440.988464 
	C328.811646,436.506165 328.811646,432.421783 328.811646,429.841614 
	C320.433258,423.374512 312.779663,417.466919 304.936310,410.937958 
M305.946014,184.981110 
	C345.543243,184.981110 385.140503,184.981110 424.990448,184.981110 
	C424.990448,176.761368 425.097412,169.116333 424.953705,161.475998 
	C424.854126,156.182236 421.785553,153.048477 416.488281,153.045624 
	C379.992188,153.025986 343.496002,153.112045 306.072998,153.020096 
	C300.607880,153.015106 295.142792,153.012863 289.677673,153.004257 
	C285.312561,152.997391 281.664062,155.049347 281.368256,159.254669 
	C280.771301,167.741425 281.190399,176.299652 281.190399,184.835220 
	C289.483887,184.835220 297.252716,184.835220 305.946014,184.981110 
M368.091187,361.022186 
	C360.493744,361.022186 352.896271,361.022186 345.460052,361.022186 
	C345.214111,361.892212 345.051971,362.198212 345.051819,362.504272 
	C345.035309,397.140015 344.886749,431.776611 345.102661,466.410980 
	C345.179871,478.798279 355.490204,488.848297 367.997681,488.918701 
	C400.634613,489.102539 433.273438,489.036560 465.911041,488.933990 
	C472.097137,488.914551 477.613068,486.751709 482.457336,481.648895 
	C487.116455,476.640472 489.044128,470.693542 489.029999,463.885254 
	C488.961609,430.915588 489.002686,397.945679 488.986298,364.975861 
	C488.985687,363.711182 488.794098,362.446564 488.690094,361.164764 
	C448.573364,361.164764 408.797394,361.164764 368.091187,361.022186 
M243.933273,488.992798 
	C251.246445,488.992798 258.559631,488.992798 264.999786,488.992798 
	C264.999786,482.032623 264.999786,475.424652 264.999786,468.816681 
	C264.999786,400.493134 265.004852,332.169556 264.974121,263.846008 
	C264.973236,261.889038 265.134979,259.655243 264.300568,258.020142 
	C258.666992,246.980576 251.652344,236.939835 241.767899,228.313599 
	C239.743774,226.598251 237.791092,224.789215 235.684097,223.182556 
	C220.355484,211.493866 203.402603,203.734787 183.237167,201.643341 
	C174.309433,201.643341 165.381699,201.643341 156.512497,201.643341 
	C163.432068,235.233032 163.366989,236.278824 151.363953,279.234344 
	C163.230545,277.524170 174.651077,275.878296 186.919022,274.297028 
	C198.520905,271.623047 210.122787,268.949066 222.231155,266.158356 
	C224.042953,270.703461 225.955276,275.500763 227.925156,280.442474 
	C211.108185,286.861389 194.036163,289.397675 176.131592,292.007538 
	C158.773239,293.466278 141.414886,294.925018 123.362831,296.222839 
	C122.909363,296.330688 122.455887,296.438538 121.193611,296.364105 
	C110.532829,296.580353 99.871239,296.762848 89.211472,297.020905 
	C73.940689,297.390533 61.103104,308.078583 57.825531,322.955139 
	C53.637154,341.965790 61.051613,356.402069 75.497055,368.076385 
	C76.189819,368.636200 77.288216,368.982605 78.183685,368.956055 
	C83.823051,368.788513 89.458435,368.487305 95.998970,368.449097 
	C141.699051,366.533813 186.391800,358.610901 230.459045,345.431549 
	C232.184708,350.656921 233.777664,355.480377 235.727524,361.384674 
	C216.045013,366.002045 197.000046,371.347351 177.616898,374.786774 
	C155.232422,378.758789 132.549850,381.050812 109.073196,383.929779 
	C98.250008,384.285706 87.425537,384.974731 76.603889,384.932709 
	C48.489182,384.823547 30.121233,408.167175 26.133394,426.441528 
	C23.467434,438.658356 25.341097,450.282654 31.649851,461.081024 
	C32.418915,462.397369 34.234859,463.943634 35.570377,463.948029 
	C43.045265,463.972717 50.521606,463.556335 58.794746,463.540222 
	C76.061920,462.344818 93.421448,461.903168 110.577507,459.800995 
	C149.223190,455.065582 185.415054,443.138153 217.563446,420.468811 
	C218.448181,419.844940 219.466156,419.410034 220.514633,418.836334 
	C223.618011,423.121887 226.532013,427.145966 229.389694,431.092255 
	C229.023270,431.611053 228.888245,431.936615 228.645996,432.122070 
	C227.589874,432.930389 226.517838,433.720062 225.424347,434.477203 
	C192.897873,456.997833 156.492752,469.383911 117.652870,474.843597 
	C101.201530,477.156158 84.538918,477.965729 67.060928,479.282135 
	C61.208424,479.282135 55.355919,479.282135 49.503410,479.282135 
	C49.479538,479.775848 49.455666,480.269562 49.431793,480.763275 
	C56.860210,485.678375 64.973083,488.575409 74.921638,488.961731 
	C109.838203,488.974854 144.754776,489.009064 179.671326,488.993195 
	C200.783936,488.983612 221.896515,488.896393 243.933273,488.992798 
M362.712341,112.995018 
	C370.120728,112.995018 377.529114,112.995018 384.606934,112.995018 
	C384.606934,99.223328 384.606934,86.164665 384.606934,73.205208 
	C376.604004,73.205208 368.995056,73.205208 361.000519,73.205208 
	C361.000519,84.182190 360.956451,94.959557 361.034485,105.736038 
	C361.051880,108.138817 361.498505,110.538490 362.712341,112.995018 
M402.134705,137.000671 
	C403.380402,137.000671 404.626099,137.000671 406.622162,137.000671 
	C403.290253,131.729263 399.120880,129.140747 393.947296,129.110855 
	C366.652618,128.953156 339.356049,128.948578 312.061432,129.111740 
	C306.777863,129.143341 302.617035,131.820267 299.388458,137.000671 
	C333.980469,137.000671 367.598846,137.000671 402.134705,137.000671 
z"/>
<path fill="#FEEFBD" opacity="1.000000" stroke="none" 
	d="
M177.006622,292.118134 
	C194.036163,289.397675 211.108185,286.861389 227.925156,280.442474 
	C225.955276,275.500763 224.042953,270.703461 222.231155,266.158356 
	C210.122787,268.949066 198.520905,271.623047 186.483154,273.855530 
	C186.093689,272.919708 186.048874,272.395477 186.199692,271.935364 
	C191.726364,255.076126 192.622360,237.939392 188.953918,220.621185 
	C187.623550,214.340744 185.664398,208.193512 183.992157,201.985489 
	C203.402603,203.734787 220.355484,211.493866 235.684097,223.182556 
	C237.791092,224.789215 239.743774,226.598251 241.884079,229.095108 
	C241.998352,311.751495 241.980560,393.626404 242.037750,475.501251 
	C242.040863,479.949066 242.670914,484.396454 243.009109,488.844025 
	C221.896515,488.896393 200.783936,488.983612 179.671326,488.993195 
	C144.754776,489.009064 109.838203,488.974854 74.408043,488.539978 
	C71.920410,485.231628 69.946365,482.345032 67.972328,479.458405 
	C84.538918,477.965729 101.201530,477.156158 117.652870,474.843597 
	C156.492752,469.383911 192.897873,456.997833 225.424347,434.477203 
	C226.517838,433.720062 227.589874,432.930389 228.645996,432.122070 
	C228.888245,431.936615 229.023270,431.611053 229.389694,431.092255 
	C226.532013,427.145966 223.618011,423.121887 220.514633,418.836334 
	C219.466156,419.410034 218.448181,419.844940 217.563446,420.468811 
	C185.415054,443.138153 149.223190,455.065582 110.577507,459.800995 
	C93.421448,461.903168 76.061920,462.344818 58.371452,463.059143 
	C55.488914,453.759247 54.044407,444.930603 55.959373,435.718750 
	C60.366077,414.520386 72.006584,398.997955 91.775627,390.040558 
	C97.562653,387.418457 103.907539,386.027527 109.996735,384.072296 
	C132.549850,381.050812 155.232422,378.758789 177.616898,374.786774 
	C197.000046,371.347351 216.045013,366.002045 235.727524,361.384674 
	C233.777664,355.480377 232.184708,350.656921 230.459045,345.431549 
	C186.391800,358.610901 141.699051,366.533813 95.394859,368.014008 
	C87.696907,357.928528 86.020378,346.820404 87.137787,335.380280 
	C88.641350,319.986603 96.053947,308.152527 110.380302,301.336334 
	C114.158684,299.538635 118.123314,298.132385 122.002411,296.546387 
	C122.455887,296.438538 122.909363,296.330688 124.060150,296.509888 
	C140.788971,296.528351 156.823639,296.355835 172.846497,295.826111 
	C174.272507,295.778961 175.621735,293.409180 177.006622,292.118134 
z"/>
<path fill="#81B4FC" opacity="1.000000" stroke="none" 
	d="
M369.021393,361.164764 
	C408.797394,361.164764 448.573364,361.164764 488.690094,361.164764 
	C488.794098,362.446564 488.985687,363.711182 488.986298,364.975861 
	C489.002686,397.945679 488.961609,430.915588 489.029999,463.885254 
	C489.044128,470.693542 487.116455,476.640472 481.693420,481.802460 
	C461.322235,481.639191 441.535278,482.878021 422.150055,480.638885 
	C393.477295,477.326935 370.287750,452.510925 369.144012,421.595917 
	C368.399719,401.478210 369.015137,381.310211 369.021393,361.164764 
z"/>
<path fill="#FFD55D" opacity="1.000000" stroke="none" 
	d="
M340.021301,235.110519 
	C365.216797,226.273712 395.234711,244.618149 400.052704,271.798523 
	C400.314026,273.272888 400.771881,274.750244 400.774872,276.226929 
	C400.821198,299.001007 400.807220,321.775208 400.807220,345.000000 
	C389.326050,345.000000 378.048645,345.000000 366.771210,345.000000 
	C360.441803,345.000000 354.112427,344.995422 347.783020,345.000977 
	C335.087250,345.012115 329.014984,351.006165 329.001434,363.549896 
	C328.987579,376.375183 328.985199,389.200470 328.621674,402.318542 
	C321.493652,393.432861 317.219879,383.146362 317.106415,371.769043 
	C316.797943,340.829803 316.777710,309.883057 317.110626,278.944305 
	C317.242188,266.720276 321.413269,255.565628 329.415527,246.069504 
	C332.410736,242.515213 335.432587,238.983353 338.442261,235.441269 
	C338.442261,235.441269 338.562744,235.419006 338.855682,235.522980 
	C339.439514,235.454803 339.730408,235.282669 340.021301,235.110519 
z"/>
<path fill="#FFE6A1" opacity="1.000000" stroke="none" 
	d="
M243.471191,488.918396 
	C242.670914,484.396454 242.040863,479.949066 242.037750,475.501251 
	C241.980560,393.626404 241.998352,311.751495 242.013214,229.403595 
	C251.652344,236.939835 258.666992,246.980576 264.300568,258.020142 
	C265.134979,259.655243 264.973236,261.889038 264.974121,263.846008 
	C265.004852,332.169556 264.999786,400.493134 264.999786,468.816681 
	C264.999786,475.424652 264.999786,482.032623 264.999786,488.992798 
	C258.559631,488.992798 251.246445,488.992798 243.471191,488.918396 
z"/>
<path fill="#5490F5" opacity="1.000000" stroke="none" 
	d="
M368.556274,361.093475 
	C369.015137,381.310211 368.399719,401.478210 369.144012,421.595917 
	C370.287750,452.510925 393.477295,477.326935 422.150055,480.638885 
	C441.535278,482.878021 461.322235,481.639191 481.387085,481.958740 
	C477.613068,486.751709 472.097137,488.914551 465.911041,488.933990 
	C433.273438,489.036560 400.634613,489.102539 367.997681,488.918701 
	C355.490204,488.848297 345.179871,478.798279 345.102661,466.410980 
	C344.886749,431.776611 345.035309,397.140015 345.051819,362.504272 
	C345.051971,362.198212 345.214111,361.892212 345.460052,361.022186 
	C352.896271,361.022186 360.493744,361.022186 368.556274,361.093475 
z"/>
<path fill="#F9F8F2" opacity="1.000000" stroke="none" 
	d="
M305.010193,201.164825 
	C344.814301,201.164825 384.618408,201.164825 424.711609,201.164825 
	C424.711609,248.956009 424.711609,296.692352 424.711609,344.715027 
	C422.376831,344.715027 419.972656,344.715027 417.216003,344.715027 
	C417.147217,343.373047 417.009766,341.929108 417.008698,340.485016 
	C416.994354,321.153015 417.020630,301.821014 416.993774,282.489044 
	C416.955780,255.141449 401.806458,231.937607 377.483185,221.902466 
	C352.871094,211.748169 326.278442,217.356247 306.149048,236.667252 
	C305.355316,224.734604 305.182770,212.949722 305.010193,201.164825 
z"/>
<path fill="#81B4FC" opacity="1.000000" stroke="none" 
	d="
M306.999847,153.164124 
	C343.496002,153.112045 379.992188,153.025986 416.488281,153.045624 
	C421.785553,153.048477 424.854126,156.182236 424.953705,161.475998 
	C425.097412,169.116333 424.990448,176.761368 424.990448,184.981110 
	C385.140503,184.981110 345.543243,184.981110 305.476990,184.450272 
	C305.005280,178.485840 304.742981,173.036209 305.077301,167.623428 
	C305.376312,162.782547 306.333221,157.982300 306.999847,153.164124 
z"/>
<path fill="#F1EEDF" opacity="1.000000" stroke="none" 
	d="
M304.546326,201.088821 
	C305.182770,212.949722 305.355316,224.734604 305.847595,236.804443 
	C293.535583,251.379318 288.495636,268.079437 288.869568,287.080292 
	C289.390228,313.535828 289.100891,340.009766 288.964447,366.474854 
	C288.877686,383.301178 293.978516,398.140503 304.997040,411.745270 
	C305.041687,421.980103 305.025604,431.407654 305.009521,440.835175 
	C297.210754,440.835175 289.412018,440.835175 281.306458,440.835175 
	C281.306458,361.038910 281.306458,281.273560 281.306458,201.012817 
	C288.890778,201.012817 296.486633,201.012817 304.546326,201.088821 
z"/>
<path fill="#FDF4D6" opacity="1.000000" stroke="none" 
	d="
M109.534966,384.001038 
	C103.907539,386.027527 97.562653,387.418457 91.775627,390.040558 
	C72.006584,398.997955 60.366077,414.520386 55.959373,435.718750 
	C54.044407,444.930603 55.488914,453.759247 57.972801,462.934357 
	C50.521606,463.556335 43.045265,463.972717 35.570377,463.948029 
	C34.234859,463.943634 32.418915,462.397369 31.649851,461.081024 
	C25.341097,450.282654 23.467434,438.658356 26.133394,426.441528 
	C30.121233,408.167175 48.489182,384.823547 76.603889,384.932709 
	C87.425537,384.974731 98.250008,384.285706 109.534966,384.001038 
z"/>
<path fill="#FEF5D7" opacity="1.000000" stroke="none" 
	d="
M183.614655,201.814423 
	C185.664398,208.193512 187.623550,214.340744 188.953918,220.621185 
	C192.622360,237.939392 191.726364,255.076126 186.199692,271.935364 
	C186.048874,272.395477 186.093689,272.919708 186.059448,273.823212 
	C174.651077,275.878296 163.230545,277.524170 151.363953,279.234344 
	C163.366989,236.278824 163.432068,235.233032 156.512497,201.643341 
	C165.381699,201.643341 174.309433,201.643341 183.614655,201.814423 
z"/>
<path fill="#FEF5D7" opacity="1.000000" stroke="none" 
	d="
M121.598015,296.455261 
	C118.123314,298.132385 114.158684,299.538635 110.380302,301.336334 
	C96.053947,308.152527 88.641350,319.986603 87.137787,335.380280 
	C86.020378,346.820404 87.696907,357.928528 94.942947,367.904602 
	C89.458435,368.487305 83.823051,368.788513 78.183685,368.956055 
	C77.288216,368.982605 76.189819,368.636200 75.497055,368.076385 
	C61.051613,356.402069 53.637154,341.965790 57.825531,322.955139 
	C61.103104,308.078583 73.940689,297.390533 89.211472,297.020905 
	C99.871239,296.762848 110.532829,296.580353 121.598015,296.455261 
z"/>
<path fill="#FDC139" opacity="1.000000" stroke="none" 
	d="
M338.089752,235.504120 
	C335.432587,238.983353 332.410736,242.515213 329.415527,246.069504 
	C321.413269,255.565628 317.242188,266.720276 317.110626,278.944305 
	C316.777710,309.883057 316.797943,340.829803 317.106415,371.769043 
	C317.219879,383.146362 321.493652,393.432861 328.548401,402.778687 
	C328.831268,405.102112 328.831268,407.258148 328.831268,410.280090 
	C326.151886,408.350983 323.669556,406.874603 321.553192,404.987732 
	C310.799805,395.400391 305.105011,383.347778 305.039551,368.929810 
	C304.906555,339.632202 304.896667,310.333099 305.035400,281.035522 
	C305.135010,260.003326 317.861328,242.528717 338.089752,235.504120 
z"/>
<path fill="#E1DED2" opacity="1.000000" stroke="none" 
	d="
M321.166351,105.982994 
	C321.166351,80.845993 321.166351,55.708992 321.166351,29.584051 
	C328.936493,36.120975 336.352875,42.114723 343.401306,48.513760 
	C344.688202,49.682091 344.869354,52.498512 344.890076,54.560875 
	C345.015411,67.057693 344.946075,79.556458 344.542969,92.590950 
	C339.532166,102.859100 332.031677,107.428154 321.166351,105.982994 
z"/>
<path fill="#5490F5" opacity="1.000000" stroke="none" 
	d="
M330.971100,488.845184 
	C317.143127,488.893829 303.314789,489.021332 289.487427,488.950073 
	C284.370148,488.923706 281.191101,485.926788 281.068848,480.996338 
	C280.875397,473.196777 281.017334,465.388916 281.017334,457.023163 
	C289.571777,457.023163 297.841583,457.023163 306.622070,457.450562 
	C311.515930,470.943085 319.510498,481.228210 330.971100,488.845184 
z"/>
<path fill="#FAF9F3" opacity="1.000000" stroke="none" 
	d="
M362.229919,112.967300 
	C361.498505,110.538490 361.051880,108.138817 361.034485,105.736038 
	C360.956451,94.959557 361.000519,84.182190 361.000519,73.205208 
	C368.995056,73.205208 376.604004,73.205208 384.606934,73.205208 
	C384.606934,86.164665 384.606934,99.223328 384.606934,112.995018 
	C377.529114,112.995018 370.120728,112.995018 362.229919,112.967300 
z"/>
<path fill="#F1EEDF" opacity="1.000000" stroke="none" 
	d="
M401.675964,137.000671 
	C367.598846,137.000671 333.980469,137.000671 299.388458,137.000671 
	C302.617035,131.820267 306.777863,129.143341 312.061432,129.111740 
	C339.356049,128.948578 366.652618,128.953156 393.947296,129.110855 
	C399.120880,129.140747 403.290253,131.729263 406.622162,137.000671 
	C404.626099,137.000671 403.380402,137.000671 401.675964,137.000671 
z"/>
<path fill="#5490F5" opacity="1.000000" stroke="none" 
	d="
M306.536438,153.092102 
	C306.333221,157.982300 305.376312,162.782547 305.077301,167.623428 
	C304.742981,173.036209 305.005280,178.485840 305.014771,184.377319 
	C297.252716,184.835220 289.483887,184.835220 281.190399,184.835220 
	C281.190399,176.299652 280.771301,167.741425 281.368256,159.254669 
	C281.664062,155.049347 285.312561,152.997391 289.677673,153.004257 
	C295.142792,153.012863 300.607880,153.015106 306.536438,153.092102 
z"/>
<path fill="#F9F8F2" opacity="1.000000" stroke="none" 
	d="
M305.472015,440.911804 
	C305.025604,431.407654 305.041687,421.980103 305.091919,412.055939 
	C312.779663,417.466919 320.433258,423.374512 328.811646,429.841614 
	C328.811646,432.421783 328.811646,436.506165 328.811646,440.988464 
	C321.064789,440.988464 313.499634,440.988464 305.472015,440.911804 
z"/>
<path fill="#81B4FC" opacity="1.000000" stroke="none" 
	d="
M331.354675,488.912537 
	C319.510498,481.228210 311.515930,470.943085 307.088165,457.525330 
	C314.144470,457.172668 321.245361,457.172668 328.949646,457.172668 
	C328.481354,468.332367 329.565186,479.218475 336.991730,488.979889 
	C334.693176,488.979889 333.215729,488.979889 331.354675,488.912537 
z"/>
<path fill="#D1CDBF" opacity="1.000000" stroke="none" 
	d="
M321.092072,106.431618 
	C332.031677,107.428154 339.532166,102.859100 344.475006,93.053955 
	C344.805817,99.410416 344.805817,105.840240 344.805817,112.635017 
	C337.082825,112.635017 329.274933,112.635017 321.017792,112.635017 
	C321.017792,110.728188 321.017792,108.804214 321.092072,106.431618 
z"/>
<path fill="#FDF4D6" opacity="1.000000" stroke="none" 
	d="
M67.516632,479.370270 
	C69.946365,482.345032 71.920410,485.231628 73.947861,488.446014 
	C64.973083,488.575409 56.860210,485.678375 49.431793,480.763275 
	C49.455666,480.269562 49.479538,479.775848 49.503410,479.282135 
	C55.355919,479.282135 61.208424,479.282135 67.516632,479.370270 
z"/>
<path fill="#F0E7CA" opacity="1.000000" stroke="none" 
	d="
M176.569107,292.062836 
	C175.621735,293.409180 174.272507,295.778961 172.846497,295.826111 
	C156.823639,296.355835 140.788971,296.528351 124.406998,296.590332 
	C141.414886,294.925018 158.773239,293.466278 176.569107,292.062836 
z"/>
<path fill="#FDC139" opacity="1.000000" stroke="none" 
	d="
M339.783722,235.055710 
	C339.730408,235.282669 339.439514,235.454803 338.914032,235.504303 
	C338.906219,235.113327 339.195099,234.986404 339.783722,235.055710 
z"/>
</svg>