<svg version="1.1" id="Layer_1" xmlns="http://www.w3.org/2000/svg" xmlns:xlink="http://www.w3.org/1999/xlink" x="0px" y="0px"
	 width="100%" viewBox="0 0 512 512" enable-background="new 0 0 512 512" xml:space="preserve">
<path fill="#000000" opacity="1.000000" stroke="none" 
	d="
M151.468658,513.000000 
	C143.065430,509.045776 135.749359,504.466431 131.812561,495.935211 
	C130.054489,492.125366 128.660538,488.305145 128.660309,484.081879 
	C128.655945,401.280762 128.376221,318.477936 128.872650,235.679810 
	C128.987885,216.458389 133.526749,197.591797 138.951645,179.067047 
	C147.948547,148.344772 157.561066,117.798912 165.707397,86.831985 
	C168.645981,75.661346 168.812195,64.193466 168.670898,52.721458 
	C168.643311,50.480618 167.958694,49.023975 165.669281,48.169117 
	C161.959625,46.783943 160.559631,43.851608 160.627106,39.918945 
	C160.752838,32.590645 160.891357,25.249329 160.595917,17.930735 
	C160.296799,10.521284 163.051285,5.058719 169.765793,1.236594 
	C227.687561,1.000000 285.375122,1.000000 343.531342,1.000000 
	C351.518188,5.292750 354.012634,11.865018 353.439148,20.287405 
	C352.987518,26.919548 353.309723,33.606976 353.355988,40.269375 
	C353.380157,43.751923 352.130798,46.699642 348.841370,47.828190 
	C345.492249,48.977222 345.451447,51.216103 345.302277,54.029797 
	C344.264618,73.602341 349.235870,92.095917 354.709198,110.617592 
	C363.252075,139.526901 372.634918,168.207397 379.655670,197.545593 
	C383.283478,212.705429 385.365601,228.122330 385.360474,243.776672 
	C385.334930,322.063965 385.115387,400.352509 385.546021,478.637421 
	C385.631958,494.258453 377.411285,507.606018 362.302307,512.832275 
	C291.979095,513.000000 221.958206,513.000000 151.468658,513.000000 
M273.499908,497.647064 
	C299.326721,497.650238 325.153564,497.676056 350.980347,497.646454 
	C362.656982,497.633087 369.575439,490.522797 369.459473,478.807678 
	C369.332520,465.980957 369.211060,453.154205 369.089050,440.327454 
	C369.022614,433.345612 369.024292,433.326172 362.221619,433.325043 
	C322.561798,433.318451 282.901978,433.321747 243.242172,433.321381 
	C241.075882,433.321381 238.909576,433.320465 236.743286,433.317322 
	C235.910126,433.316101 235.076157,433.329010 234.243927,433.298340 
	C228.865158,433.100403 225.205429,429.937988 225.053818,425.369415 
	C224.903809,420.848358 228.522858,417.651794 234.154160,417.642609 
	C266.148529,417.590454 298.143005,417.596893 330.137451,417.586548 
	C341.302185,417.582947 352.468384,417.485016 363.630798,417.646912 
	C367.440002,417.702148 369.176422,416.398438 369.066895,412.480225 
	C368.927307,407.485535 369.011566,402.482819 369.080170,397.484680 
	C369.119995,394.584991 367.931824,393.218658 364.906311,393.291870 
	C360.076782,393.408783 355.242157,393.316101 350.409668,393.310669 
	C339.390228,393.298248 336.968658,390.901245 336.960419,379.802979 
	C336.939392,351.474548 336.964600,323.146118 336.931244,294.817719 
	C336.927856,291.961884 337.092407,289.129761 337.934540,286.419281 
	C338.862823,283.431610 341.066498,281.775879 344.195587,281.474823 
	C347.443726,281.162292 350.125305,282.148926 351.818146,285.104797 
	C353.195068,287.509033 353.313782,290.157990 353.308533,292.854523 
	C353.279694,307.685242 353.292908,322.516022 353.293488,337.346802 
	C353.293945,348.844818 353.418335,360.344818 353.231598,371.839752 
	C353.168304,375.735809 354.478210,377.456909 358.411072,377.037109 
	C359.564301,376.914032 360.741974,377.022186 361.908447,377.020233 
	C368.883514,377.008484 369.045410,376.917328 369.053223,370.179108 
	C369.094269,334.685272 369.025726,299.191101 369.200623,263.698059 
	C369.224762,258.797791 367.853607,257.009491 362.704895,257.026031 
	C309.881195,257.195892 257.056854,257.134064 204.232681,257.168793 
	C195.232635,257.174713 193.082199,259.357391 193.079636,268.464783 
	C193.066757,314.290192 193.078354,360.115570 193.111801,405.940979 
	C193.117905,414.289948 194.049805,415.511444 202.263824,417.621399 
	C206.416000,418.688019 208.651382,421.264282 208.675827,425.388855 
	C208.697632,429.072327 206.621689,431.665192 203.098236,432.866760 
	C200.999969,433.582306 198.819870,433.350525 196.674423,432.915741 
	C184.807251,430.510742 177.006775,420.973663 176.772461,408.191437 
	C176.592300,398.363037 176.725342,388.528839 176.726044,378.697205 
	C176.728668,341.536957 176.688370,304.376587 176.760056,267.216461 
	C176.790649,251.356766 186.719452,241.308289 202.549728,240.840042 
	C204.880707,240.771103 207.215286,240.819778 209.548187,240.819885 
	C260.539368,240.822174 311.530731,240.774490 362.521515,240.913544 
	C367.178528,240.926239 369.148743,239.824020 368.761383,234.800247 
	C368.185272,227.327637 367.290070,219.907196 366.057251,212.534607 
	C362.863983,193.437286 356.438660,175.185089 351.278748,156.599899 
	C350.325592,153.166687 348.662811,152.128525 345.244843,152.399506 
	C337.550812,153.009506 330.045532,152.050644 322.617554,149.680710 
	C316.950043,147.872452 311.391266,145.651718 305.295380,145.119553 
	C294.891418,144.211273 285.244507,146.820984 275.490112,149.924530 
	C262.978760,153.905212 250.103378,154.184525 237.731140,149.645187 
	C222.368835,144.008774 207.273926,143.241028 191.980682,149.360031 
	C184.551315,152.332596 176.768890,152.761887 168.900986,152.462296 
	C166.311707,152.363693 164.189514,152.261780 163.134949,155.621567 
	C152.794754,188.564728 144.335556,221.608047 144.716751,256.734192 
	C145.497894,328.713104 144.929062,400.706635 144.932266,472.694153 
	C144.932434,476.190216 144.938583,479.697662 145.202789,483.179993 
	C145.730255,490.132477 149.770523,494.375488 156.133102,496.632172 
	C159.003922,497.650360 162.005188,497.664215 165.018448,497.662354 
	C200.845581,497.640045 236.672729,497.647339 273.499908,497.647064 
M226.500122,16.389357 
	C213.171158,16.386385 199.842194,16.387054 186.513229,16.379219 
	C176.907318,16.373573 176.907318,16.368521 177.038300,25.880100 
	C177.128784,32.450737 177.308929,32.656441 183.732285,32.658710 
	C218.221298,32.670895 252.710342,32.652599 287.199310,32.691544 
	C293.243927,32.698372 296.819092,35.651772 296.952362,40.451214 
	C297.084198,45.197899 293.436981,48.229015 287.417206,48.358753 
	C286.084869,48.387470 284.751495,48.370014 283.418579,48.370186 
	C252.761673,48.374119 222.103928,48.492508 191.448685,48.268311 
	C186.317505,48.230785 184.707443,49.812843 184.982407,54.810005 
	C185.476852,63.795708 184.996521,72.808266 183.665054,81.702606 
	C181.216690,98.058151 175.102097,113.467575 170.945557,129.386337 
	C170.383118,131.540344 168.967773,133.639130 170.078430,136.266525 
	C173.190277,136.892456 176.317596,136.984833 179.399445,136.146652 
	C187.097305,134.053055 194.687408,131.485504 202.470810,129.801758 
	C215.400757,127.004669 227.923401,129.374207 240.179810,133.840775 
	C251.223297,137.865295 262.276611,137.681107 273.427460,133.926682 
	C278.450104,132.235596 283.495789,130.545502 288.775452,129.596893 
	C302.014252,127.218254 314.573334,129.761597 326.956696,134.230225 
	C331.514648,135.875000 336.222900,136.826492 341.133209,136.705582 
	C344.012177,136.634705 345.072906,135.723114 344.139984,132.723785 
	C342.065002,126.052727 340.405243,119.247803 338.197632,112.623611 
	C332.263550,94.817566 328.446320,76.701080 328.921967,57.806740 
	C329.135956,49.306499 328.955414,49.331917 320.613464,48.278927 
	C316.227325,47.725273 313.669281,45.354584 313.516266,40.745895 
	C313.361603,36.089127 315.906494,33.573429 320.194946,32.856739 
	C322.631592,32.449520 325.179443,32.701775 327.677338,32.668095 
	C337.598206,32.534328 336.917114,34.096470 336.955475,23.165846 
	C336.979279,16.376356 336.943787,16.371004 329.967499,16.371880 
	C295.811707,16.376165 261.655914,16.383471 226.500122,16.389357 
z"/>
<path fill="#000000" opacity="1.000000" stroke="none" 
	d="
M249.818604,356.872803 
	C257.487854,334.226257 264.995483,311.831879 272.532715,289.447510 
	C273.060089,287.881378 273.617249,286.269043 274.491638,284.887787 
	C276.247253,282.114532 278.909668,280.891266 282.186798,281.359283 
	C285.255585,281.797546 287.433502,283.514954 288.307404,286.518158 
	C288.812073,288.252411 289.193787,290.096191 289.197327,291.891510 
	C289.256683,322.043854 289.249115,352.196289 289.247101,382.348724 
	C289.247009,383.345703 289.260437,384.363770 289.076965,385.336029 
	C288.257172,389.680664 286.011475,392.932861 281.299774,393.094849 
	C276.549744,393.258179 273.811951,390.265442 273.333832,385.783905 
	C272.823822,381.003845 272.886536,376.153778 272.855774,371.333313 
	C272.793579,361.587799 272.837219,351.841614 271.980377,341.961395 
	C268.077209,353.569885 264.174194,365.178467 260.270660,376.786865 
	C259.263000,379.783417 258.201416,382.763000 257.257751,385.779541 
	C255.965073,389.911499 253.762161,393.139374 249.002029,393.162994 
	C244.181900,393.186890 242.064774,389.737335 240.718796,385.748291 
	C236.995255,374.712982 233.360611,363.647736 229.664658,352.603058 
	C228.565613,349.318756 227.379898,346.063446 225.139282,342.870605 
	C225.139282,347.566803 225.137512,352.263000 225.139664,356.959198 
	C225.143326,364.955414 225.206497,372.952271 225.116577,380.947418 
	C225.092514,383.086273 224.805359,385.270447 224.284607,387.344818 
	C223.359955,391.028198 220.640640,392.983856 217.012009,393.092621 
	C213.290558,393.204163 210.852661,391.068451 209.594818,387.527496 
	C208.850189,385.431213 208.773788,383.299194 208.773911,381.128204 
	C208.775543,351.808716 208.769547,322.489197 208.766846,293.169708 
	C208.766754,292.336853 208.731033,291.499847 208.798386,290.671844 
	C209.160080,286.225769 210.476791,282.403534 215.535156,281.439362 
	C219.952789,280.597351 223.310425,282.933533 225.110626,288.262543 
	C229.903336,302.450073 234.584366,316.675293 239.323227,330.881073 
	C241.903168,338.614929 244.490814,346.346375 247.124680,354.061951 
	C247.566956,355.357513 247.204926,357.451385 249.818604,356.872803 
z"/>
<path fill="#000000" opacity="1.000000" stroke="none" 
	d="
M304.891876,314.000000 
	C304.887695,306.844971 304.809296,300.188690 304.919678,293.535553 
	C304.957916,291.232697 305.225067,288.874054 305.813019,286.653534 
	C306.734100,283.175049 309.359070,281.496552 312.858276,281.395203 
	C316.337891,281.294342 318.907898,282.797272 320.293488,286.156464 
	C321.210449,288.379517 321.286194,290.674408 321.285553,293.012512 
	C321.277771,322.627441 321.282318,352.242401 321.278473,381.857330 
	C321.278229,383.849609 321.309479,385.827393 320.547394,387.754211 
	C319.163330,391.253571 316.555908,393.180450 312.912292,393.100067 
	C309.231567,393.018890 306.766388,390.888092 305.677368,387.292572 
	C304.944031,384.871155 304.870056,382.390839 304.872284,379.885803 
	C304.891815,358.090546 304.888397,336.295258 304.891876,314.000000 
z"/>
</svg>